<?xml version="1.0" encoding="utf-8"?>
<!-- Generator: Adobe Illustrator 22.1.0, SVG Export Plug-In . SVG Version: 6.00 Build 0)  -->
<svg version="1.1" id="图层_1" xmlns="http://www.w3.org/2000/svg" xmlns:xlink="http://www.w3.org/1999/xlink" x="0px" y="0px"
	 viewBox="0 0 200 100" style="enable-background:new 0 0 200 100;" xml:space="preserve">
<style type="text/css">
	.st0{fill:#64B3F4;}
</style>
<path class="st0" d="M19.7,21.2c-0.2,7-5.1,12.4-11.8,13.5l0,0c-3.4,0.6-5.9,3.5-5.9,7c0,3.9,3.2,7.1,7.1,7.1s7.1-3.2,7.1-7.1
	c0-0.3,0-0.6-0.1-0.9c0.2-6.6,5-12.1,11.3-13.4c3.7-0.3,6.6-3.4,6.6-7.1c0-4-3.2-7.2-7.2-7.2s-7.2,3.2-7.2,7.2L19.7,21.2z
	 M87.6,41.8c0,3.8-2.9,6.9-6.6,7.1c-6.3,1.3-11,6.8-11.3,13.4c0,0.3,0.1,0.6,0.1,0.9c0,3.9-3.2,7.1-7.1,7.1c-1.9,0-3.7-0.8-5-2
	c0,0,0,0,0,0c0,0-0.1,0-0.1-0.1c-1.5-1.5-2.4-3.6-2.2-5.9c-0.1-4.7-2.6-9.1-6.4-11.6c-1.2-0.5-2.6-0.8-4-0.8c-1.5,0-3,0.3-4.3,0.9
	c-3.9,2.4-6.5,6.6-6.6,11.5c0,0.3,0.1,0.6,0.1,0.9c0,3.9-3.2,7.1-7.1,7.1S20,67.2,20,63.3c0-3.5,2.6-6.4,5.9-7
	c6.6-1.1,11.6-6.5,11.8-13.5l0-0.9c0-0.1,0-0.2,0-0.3c0-0.4,0-0.7,0.1-1.1c0.6-3.3,3.4-5.6,6.6-5.8c6.3-1.4,10.9-6.7,11.1-13.4
	l0-0.9c0-4,3.2-7.2,7.2-7.2s7.2,3.2,7.2,7.2c0,3.8-2.9,6.9-6.6,7.1c-6.3,1.3-11,6.8-11.3,13.4c0,0.5,0,1.6,0,2
	c0.3,4.6,2.6,8.7,6.5,11.1c1.3,0.6,2.8,1,4.4,1c1.5,0,2.9-0.3,4.1-0.8c-0.1,0.1-0.2,0.2-0.4,0.2c3.9-2.4,6.5-6.6,6.7-11.6l0-0.9
	c0-4,3.2-7.2,7.2-7.2C84.4,34.6,87.6,37.8,87.6,41.8z M103.9,32.9v-2.6h5.7V29h2.7v1.3h5.7v2.6H103.9z M103.9,43.2v-2.7h5.7v-1.8
	h-5.7v-2.7h1.6v-2.3h2.6v2.3h5.5v-2.3h2.7v2.3h1.6v2.7h-5.7v1.8h5.7v2.7h-5.7v7.7c0,0.9-0.3,1.5-0.9,2c-0.5,0.3-1,0.5-1.6,0.5H108
	v-2.6h0.7c0.6,0,0.9-0.3,0.9-1v-6.5H103.9z M103.9,53.4v-2.6c0.4-0.1,0.6-0.3,0.7-0.7l0.3-5.3h2.7l-0.3,4.7c0,0.9-0.1,1.5-0.3,1.9
	c-0.3,0.7-0.8,1.2-1.5,1.6C105,53.2,104.5,53.3,103.9,53.4z M114.3,44.8h2.6l0.3,5.2c0,0.5,0.2,0.7,0.7,0.7v2.7
	c-2.1-0.2-3.3-1.4-3.3-3.5L114.3,44.8z M118.7,53.4v-2.6c0.5,0,0.7-0.3,0.7-0.7V32.6c0-1.3,0.6-2.4,1.7-3.1c0.6-0.4,1.5-0.6,2.6-0.6
	h6.8v2.7h-6.9c-0.4,0-0.7,0.1-1,0.4c-0.3,0.3-0.4,0.6-0.4,1.1v2.7h8.4v2.6h-1.7v14.9h-2.7V38.5H122v11.3c0,1.2-0.4,2.2-1.2,2.9
	C120.2,53.1,119.5,53.4,118.7,53.4z M137.8,49.1V33.1c0-1.4,0.3-2.4,1-3.1c0.7-0.7,1.6-1,2.8-1h17.7c1.1,0,1.8,0.2,2.3,0.5
	c1.2,0.8,1.8,1.9,1.8,3.4v16c0,1.3-0.2,2.2-0.5,2.7c-0.8,1.1-1.9,1.7-3.5,1.7h-17.7c-1.3,0-2.3-0.3-3-1c-0.4-0.4-0.6-0.8-0.8-1.1
	C137.9,50.6,137.8,49.9,137.8,49.1z M142.5,50.6H159c0.7,0,1.2-0.2,1.5-0.5c0.3-0.3,0.4-0.8,0.4-1.5v-15c0-0.7-0.1-1.3-0.4-1.5
	c-0.3-0.3-0.9-0.5-1.7-0.5h-16.1c-0.8,0-1.3,0.1-1.5,0.2c-0.3,0.2-0.4,0.4-0.6,0.6c-0.1,0.2-0.2,0.6-0.2,1.2v15
	c0,0.7,0.2,1.2,0.5,1.6C141.2,50.4,141.7,50.6,142.5,50.6z M142.1,49.1v-2.7c1.9-0.9,3.2-2.6,3.8-5.1h-3.6v-2.7h16.7v2.7h-3.8v3.9
	c0,0.5,0.1,0.8,0.2,0.9c0.2,0.2,0.5,0.3,1,0.3h2.5v2.7h-4.2c-0.6,0-1.1-0.2-1.6-0.7c-0.5-0.5-0.7-1.1-0.7-1.9v-5.2H149
	c-0.8,2.4-1.6,4.1-2.3,5C145.6,47.8,144.1,48.7,142.1,49.1z M142.6,36.4v-2.7h16.2v2.7H142.6z M170.9,39.4v-2.3h12v-1.2h-11.4v-2.3
	h11.4v-1.2h-12v-2.3h12v-1.3h2.7v1.3h12v2.3h-12v1.2h11.3v2.3h-11.3v1.2h12v2.3H177l-2.2,2.2h15.9v2.3h-14.3l-2.1,2h19.1
	c0.4,0,0.7-0.1,1-0.3c0.1-0.1,0.2-0.3,0.2-0.5s-0.1-0.6-0.2-1.2l-0.8-3.3h2.6l0.9,3.6c0.2,0.6,0.2,1.2,0.2,1.6c0,0.8-0.3,1.4-1,1.9
	c-0.5,0.3-1.2,0.5-2.1,0.5h-8.6c0,1.7,0,2.7-0.1,3c-0.1,0.7-0.4,1.2-0.9,1.6c-0.4,0.3-0.9,0.5-1.5,0.5l-2.3,0v-2.5l1.4,0
	c0.2,0,0.3-0.1,0.5-0.2c0.2-0.2,0.3-0.4,0.3-0.6l0-1.7h-9.3c-1.1,0-1.8-0.2-2.1-0.5c-0.3-0.3-0.4-0.7-0.4-1.1c0-0.6,0.3-1.1,0.8-1.7
	l1-1c-0.9-0.2-1.4-0.7-1.4-1.4c0-0.7,0.2-1.2,0.6-1.6l1.2-1.3H170.9z M171,53.1v-2.7c0.4,0,0.8-0.2,1-0.4c0.2-0.3,0.3-0.6,0.4-1h2.7
	c-0.3,1.1-0.5,1.9-0.8,2.3C173.5,52.5,172.4,53.1,171,53.1z M193.3,48.8l2.7,0c0.1,1,0.5,1.5,1.2,1.5c0.1,0,0.1,0,0.2,0v2.7
	c-1,0-1.9-0.3-2.6-1C194,51.4,193.5,50.3,193.3,48.8z"/>
</svg>
