<?xml version="1.0" encoding="utf-8"?>
<!-- Generator: Adobe Illustrator 22.0.1, SVG Export Plug-In . SVG Version: 6.00 Build 0)  -->
<svg version="1.1" id="Layer_1" xmlns="http://www.w3.org/2000/svg" xmlns:xlink="http://www.w3.org/1999/xlink" x="0px" y="0px"
	 viewBox="0 0 900 504.7" style="enable-background:new 0 0 900 504.7;" xml:space="preserve">
<style type="text/css">
	.st0{fill:#BEE0FD;}
	.st1{opacity:0.22;}
	.st2{fill:#068DEA;}
	.st3{opacity:0.22;fill:none;stroke:#068DEA;stroke-width:2;stroke-miterlimit:10;}
</style>
<rect class="st0" width="898.6" height="502.7"/>
<g class="st1">
	<g>
		<polygon class="st2" points="873.6,496.8 48,496.8 48,495.5 872.3,495.5 872.3,486.6 19,486.6 19,478.1 897.3,478.1 897.3,470.2 
			0,470.2 0,468.9 898.6,468.9 898.6,479.4 20.3,479.4 20.3,485.2 873.6,485.2 		"/>
	</g>
	<g>
		<polygon class="st2" points="7.7,462.7 5.8,462.7 5.8,419.7 40.9,419.7 40.9,437.4 38.9,437.4 38.9,421.6 7.7,421.6 		"/>
		<polygon class="st2" points="17.6,416.5 15.7,416.5 15.7,360.7 94.3,360.7 94.3,414.3 92.4,414.3 92.4,362.6 17.6,362.6 		"/>
		<polygon class="st2" points="40.9,361.7 38.9,361.7 38.9,354.7 62.3,354.7 62.3,356.6 40.9,356.6 		"/>
		<polygon class="st2" points="90.8,361.7 88.8,361.7 88.8,356.6 85.1,356.6 85.1,352.3 52.1,352.3 52.1,355.6 50.2,355.6 
			50.2,350.4 87,350.4 87,354.7 90.8,354.7 		"/>
		<polygon class="st2" points="72.2,351.3 70.3,351.3 70.3,347.5 54.6,347.5 54.6,351.3 52.7,351.3 52.7,345.6 72.2,345.6 		"/>
		<polygon class="st2" points="61,338.5 59.6,346.5 62.4,346.5 		"/>
		<polygon class="st2" points="158.6,375 157.2,383 160,383 		"/>
		<polygon class="st2" points="195.8,375 194.4,383 197.2,383 		"/>
		<rect x="47.3" y="361.7" class="st2" width="1.9" height="75.7"/>
		<rect x="61.4" y="361.7" class="st2" width="1.9" height="75.7"/>
		<polygon class="st2" points="62.3,462.7 60.4,462.7 60.4,460 57.9,457.4 16.3,457.4 16.3,462.7 14.3,462.7 14.3,455.5 58.6,455.5 
			62.3,459.2 		"/>
		<polygon class="st2" points="54.2,456.5 52.3,456.5 52.3,449.4 20.7,449.4 20.7,451.4 17.6,451.4 17.6,453.5 15.7,453.5 
			15.7,449.5 18.8,449.5 18.8,447.5 54.2,447.5 		"/>
		<polygon class="st2" points="22.5,449.3 21.6,447.6 31.6,442.5 45,442.5 45,448.5 43,448.5 43,444.4 32.1,444.4 		"/>
		<polygon class="st2" points="135.8,462.7 133.9,462.7 133.9,451.2 94,451.2 94,446.5 91.2,443.7 48.3,443.7 48.3,441.8 92,441.8 
			95.9,445.7 95.9,449.3 135.8,449.3 		"/>
		<polygon class="st2" points="90.8,462.7 88.8,462.7 88.8,450.1 58.6,450.1 58.6,448.2 90.8,448.2 		"/>
		<rect x="117.2" y="450.2" class="st2" width="1.9" height="12.5"/>
		<polygon class="st2" points="112,450.2 110,450.2 110,446 107.7,443.7 96.7,443.7 96.7,441.8 108.5,441.8 112,445.2 		"/>
		<polygon class="st2" points="71.4,442.8 69.5,442.8 69.5,434.1 83.8,434.1 83.8,432.2 88.8,432.2 88.8,429.3 92.4,429.3 
			92.4,426.3 98.6,426.3 98.6,424.1 118,424.1 118,428.4 131.8,428.4 131.8,430.4 116.1,430.4 116.1,426 100.6,426 100.6,428.2 
			94.3,428.2 94.3,431.3 90.8,431.3 90.8,434.1 85.8,434.1 85.8,436.1 71.4,436.1 		"/>
		<polygon class="st2" points="94.3,423.7 92.4,423.7 92.4,418.1 134.9,418.1 134.9,420 94.3,420 		"/>
		<polygon class="st2" points="135.8,423.7 133.9,423.7 133.9,415.5 144.4,415.5 144.4,413.1 149.1,413.1 149.1,415 146.4,415 
			146.4,417.4 135.8,417.4 		"/>
		<rect x="134.9" y="428.3" class="st2" width="10" height="1.9"/>
		<polygon class="st2" points="131,450.2 129.1,450.2 129.1,443.9 149.1,443.9 149.1,445.9 131,445.9 		"/>
		<polygon class="st2" points="174,462.7 172,462.7 172,459.2 169.2,456.3 169.2,453.7 150.1,453.7 150.1,462.7 148.2,462.7 
			148.2,451.8 171.1,451.8 171.1,455.6 174,458.4 		"/>
		<polygon class="st2" points="204.6,449.2 202.7,449.2 202.7,387.2 196.5,387.2 196.5,384 157.2,384 157.2,387.8 150.1,387.8 
			150.1,449.2 148.2,449.2 148.2,385.8 155.3,385.8 155.3,382.1 198.4,382.1 198.4,385.3 204.6,385.3 		"/>
		<rect x="155.3" y="386.8" class="st2" width="1.9" height="62.4"/>
		<rect x="162.1" y="383.1" class="st2" width="1.9" height="66.1"/>
		<polygon class="st2" points="34.8,437.4 32.9,437.4 32.9,431.8 31.1,431.8 31.1,427.2 11.7,427.2 11.7,425.2 33,425.2 33,429.9 
			34.8,429.9 		"/>
		<polygon class="st2" points="243,438.4 231.4,438.4 231.4,435.9 208.3,435.9 208.3,434 233.3,434 233.3,436.5 243,436.5 		"/>
		<path class="st2" d="M231.7,434.7h-1.9c0-4.9-4-8.8-8.8-8.8c-4.9,0-8.8,4-8.8,8.8h-1.9c0-5.9,4.8-10.8,10.8-10.8
			S231.7,428.7,231.7,434.7z"/>
		<polygon class="st2" points="239.7,420.3 237.8,420.3 237.8,414.1 233.5,414.1 233.5,411.5 203.7,411.5 203.7,409.5 235.5,409.5 
			235.5,412.2 239.7,412.2 		"/>
		<rect x="216.5" y="419.3" class="st2" width="26.6" height="1.9"/>
		<polygon class="st2" points="248,432.3 241.4,432.3 241.4,428.6 239.7,428.6 239.7,432.3 235.7,432.3 235.7,430.4 237.8,430.4 
			237.8,426.7 243.3,426.7 243.3,430.4 248,430.4 		"/>
		<polygon class="st2" points="211.2,445.9 203.7,445.9 203.7,443.9 209.3,443.9 209.3,439.8 229,439.8 229,443.2 243,443.2 
			243,445.2 227.1,445.2 227.1,441.8 211.2,441.8 		"/>
		<polygon class="st2" points="244.6,462.7 242.7,462.7 242.7,454.9 241.5,453.7 175.1,453.7 175.1,451.8 242.3,451.8 244.6,454.1 
					"/>
		<polygon class="st2" points="202.8,462.7 200.9,462.7 200.9,457.4 181.7,457.4 181.7,455.5 202.8,455.5 		"/>
		<rect x="214.1" y="452.7" class="st2" width="1.9" height="10"/>
		<rect x="218.6" y="452.7" class="st2" width="1.9" height="10"/>
		<polygon class="st2" points="239,462.7 237.1,462.7 237.1,457.4 224.5,457.4 224.5,455.5 239,455.5 		"/>
		<polygon class="st2" points="249,462.7 247.1,462.7 247.1,378.4 307.8,378.4 307.8,451.7 305.9,451.7 305.9,380.3 249,380.3 		"/>
		<rect x="248" y="382.1" class="st2" width="39.7" height="1.9"/>
		<rect x="289.7" y="379.3" class="st2" width="1.9" height="83.4"/>
		<rect x="268.3" y="375.6" class="st2" width="1.9" height="3.7"/>
		<rect x="281.5" y="375.6" class="st2" width="1.9" height="3.7"/>
		<path class="st2" d="M286.4,376.5h-21.9v-10.1h21.9V376.5z M266.5,374.6h18v-6.3h-18V374.6z"/>
		<rect x="276.5" y="367.4" class="st2" width="1.9" height="5.2"/>
		<polygon class="st2" points="339.3,441.8 315.3,441.8 315.3,432.3 312.5,432.3 312.5,427.6 310.7,425.8 306.8,425.8 306.8,423.9 
			311.5,423.9 314.4,426.8 314.4,430.4 317.2,430.4 317.2,439.8 339.3,439.8 		"/>
		<rect x="311.8" y="443.9" class="st2" width="27.4" height="1.9"/>
		<polygon class="st2" points="298.5,462.7 296.6,462.7 296.6,456.8 305.9,456.8 305.9,453.9 312.8,453.9 312.8,455.5 319.4,455.5 
			319.4,450.9 331.7,450.9 331.7,454.1 338.4,454.1 338.4,456.8 342.3,456.8 342.3,458.7 336.5,458.7 336.5,456 329.8,456 
			329.8,452.8 321.3,452.8 321.3,457.4 310.9,457.4 310.9,455.8 307.8,455.8 307.8,458.7 298.5,458.7 		"/>
		<polygon class="st2" points="345.6,462.7 343.7,462.7 343.7,365 403.1,365 403.1,376.8 401.2,376.8 401.2,366.9 345.6,366.9 		"/>
		<polygon class="st2" points="398.7,366 396.8,366 396.8,359.9 394.9,361.8 389.5,361.8 387,359.3 384.2,362 358.9,362 
			358.1,361.2 358.1,366 356.1,366 356.1,356.5 359.7,360.1 383.4,360.1 387,356.5 390.3,359.8 394.1,359.8 398.7,355.2 		"/>
		<polygon class="st2" points="380.3,361.6 375.7,357 375.7,353.2 369.5,353.2 369.5,357.7 364.6,357.7 364.6,361.1 362.7,361.1 
			362.7,355.7 367.5,355.7 367.5,351.3 377.7,351.3 377.7,356.2 381.6,360.2 		"/>
		<polygon class="st2" points="395.7,462.7 393.7,462.7 393.7,448.7 359.1,448.7 359.1,451.9 344.6,451.9 344.6,450 357.2,450 
			357.2,446.8 395.7,446.8 		"/>
		<polygon class="st2" points="336,436.7 334,436.7 334,417.7 326.2,417.7 326.2,412.7 306.8,412.7 306.8,410.8 328.1,410.8 
			328.1,415.8 336,415.8 		"/>
		<rect x="328.5" y="421" class="st2" width="1.9" height="15.7"/>
		<polygon class="st2" points="365.2,444.9 363.3,444.9 363.3,383.5 366.6,383.5 366.6,379.3 379.1,379.3 379.1,386.3 377.2,386.3 
			377.2,381.2 368.6,381.2 368.6,385.5 365.2,385.5 		"/>
		<polygon class="st2" points="382.6,444.2 380.7,444.2 380.7,386.5 376,386.5 376,444.2 374.1,444.2 374.1,384.6 382.6,384.6 		"/>
		<polygon class="st2" points="402.1,452.9 400.1,452.9 400.1,381.2 381.7,381.2 381.7,379.3 402.1,379.3 		"/>
		<rect x="394.7" y="455.2" class="st2" width="29.4" height="1.9"/>
		<polygon class="st2" points="425.1,462.7 423.1,462.7 423.1,452 433.4,452 433.4,453.9 425.1,453.9 		"/>
		<polygon class="st2" points="458.4,462.7 456.5,462.7 456.5,453.9 442.2,453.9 442.2,420.6 431.8,420.6 431.8,439.7 429.9,439.7 
			429.9,418.6 444.1,418.6 444.1,452 458.4,452 		"/>
		<polygon class="st2" points="436.9,414 442,419.1 431.8,419.1 		"/>
		<polygon class="st2" points="427.9,441.2 430.9,452.1 425,452.1 		"/>
		<polygon class="st2" points="452.9,441.2 455.9,452.1 450,452.1 		"/>
		<polygon class="st2" points="485.1,449.9 483.2,449.9 483.2,432 448.4,432 448.4,446.6 446.4,446.6 446.4,430.1 485.1,430.1 		"/>
		<polygon class="st2" points="564,462.7 562,462.7 562,450.9 547.3,450.9 547.3,453.9 501.4,453.9 501.4,432 488.2,432 
			488.2,430.1 503.3,430.1 503.3,452 545.3,452 545.3,448.9 564,448.9 		"/>
		<polygon class="st2" points="475.2,462.7 473.3,462.7 473.3,455.4 469.9,447 457.4,447 457.4,445.1 471.2,445.1 475.2,455 		"/>
		<polygon class="st2" points="466.5,456 459.6,446.6 461.1,445.4 466.2,452.3 469.7,445.6 471.4,446.5 		"/>
		<polygon class="st2" points="499.1,462.7 497.2,462.7 497.2,453 495,453 492.8,450.9 477.5,450.9 477.5,448.9 493.6,448.9 
			495.8,451 499.1,451 		"/>
		<polygon class="st2" points="508.4,452.9 506.4,452.9 506.4,445.1 508.7,445.1 508.7,442.9 515.8,442.9 515.8,445.7 520.3,445.7 
			520.3,448.1 522.9,448.1 522.9,442.9 537,442.9 537,449.1 535,449.1 535,444.8 524.8,444.8 524.8,450.1 518.3,450.1 518.3,447.6 
			513.9,447.6 513.9,444.8 510.6,444.8 510.6,447 508.4,447 		"/>
		<polygon class="st2" points="508.4,440.5 506.4,440.5 506.4,434.5 522.7,434.5 522.7,439.7 520.7,439.7 520.7,436.4 508.4,436.4 
					"/>
		<polygon class="st2" points="534.8,440.5 532.9,440.5 532.9,434.7 527.6,434.7 527.6,429.9 525.7,429.9 525.7,432.8 512,432.8 
			512,435.5 510,435.5 510,430.9 523.8,430.9 523.8,427.9 529.5,427.9 529.5,432.8 534.8,432.8 		"/>
		<polygon class="st2" points="471.5,431 469.6,431 469.6,427.7 456.8,427.7 456.8,430.5 454.9,430.5 454.9,425.8 471.5,425.8 		"/>
		<polygon class="st2" points="469.6,423.2 467.7,423.2 467.7,378.7 463.2,378.7 463.2,383.1 461.3,383.1 461.3,376.8 469.6,376.8 
					"/>
		<polygon class="st2" points="464.4,384.4 452,384.4 452,381.2 401.1,381.2 401.1,379.3 453.9,379.3 453.9,382.5 464.4,382.5 		"/>
		<rect x="410.2" y="380.2" class="st2" width="1.9" height="72.7"/>
		<rect x="405.3" y="384.7" class="st2" width="1.9" height="68.3"/>
		<polygon class="st2" points="503.2,427.3 501.2,427.3 501.2,398.5 472.4,398.5 472.4,396.5 503.2,396.5 		"/>
		<polygon class="st2" points="478.4,409.3 476.5,409.3 476.5,390.4 478.6,390.4 478.6,383.6 496.3,383.6 496.3,385.8 500.5,385.8 
			500.5,393.9 498.6,393.9 498.6,387.8 494.4,387.8 494.4,385.5 480.6,385.5 480.6,392.3 478.4,392.3 		"/>
		<rect x="482" y="397.5" class="st2" width="1.9" height="14.9"/>
		<rect x="487.2" y="397.5" class="st2" width="1.9" height="14.9"/>
		<polygon class="st2" points="494.6,413.4 478.2,413.3 478.2,410 472.4,410 472.4,408 480.2,408 480.2,411.4 492.7,411.4 
			492.7,397.5 494.6,397.5 		"/>
		<polygon class="st2" points="549,441.9 547.1,441.9 547.1,434.5 537.3,434.5 537.3,432.6 549,432.6 		"/>
		<polygon class="st2" points="642.2,450.1 640.3,450.1 640.3,429.3 637.4,426.5 578.7,426.5 575.9,429.3 575.9,445.9 561.9,445.9 
			559.1,443.1 554.8,443.1 552,445.9 547.2,445.9 547.2,444 551.2,444 554,441.2 559.9,441.2 562.7,444 573.9,444 573.9,428.5 
			577.9,424.5 638.2,424.5 642.2,428.5 		"/>
		<polygon class="st2" points="575.2,421.3 573.3,421.3 573.3,375.4 636.9,375.4 636.9,387.4 675.2,387.4 675.2,399.9 673.2,399.9 
			673.2,389.4 635,389.4 635,377.3 575.2,377.3 		"/>
		<polygon class="st2" points="683.4,430 681.5,430 681.5,400.9 630.5,400.9 630.5,421.3 628.6,421.3 628.6,398.9 683.4,398.9 		"/>
		<polygon class="st2" points="687.5,440.3 685.5,440.3 685.5,434.5 659.9,434.5 659.9,427.6 649.8,427.6 649.8,433.6 647.8,433.6 
			647.8,425.7 661.8,425.7 661.8,432.6 687.5,432.6 		"/>
		<rect x="581.3" y="369.4" class="st2" width="1.9" height="6.9"/>
		<rect x="576.9" y="368.5" class="st2" width="57.2" height="1.9"/>
		<rect x="628.6" y="369.4" class="st2" width="1.9" height="6.9"/>
		<polygon class="st2" points="708.3,462.7 706.4,462.7 706.4,457.4 655.1,457.4 655.1,451.1 602.5,451.1 602.5,455.4 596.3,455.4 
			596.3,462.7 594.4,462.7 594.4,453.5 600.5,453.5 600.5,449.1 657,449.1 657,455.4 708.3,455.4 		"/>
		<polygon class="st2" points="715.8,462.7 713.9,462.7 713.9,447.3 710.3,443.8 702.7,441.5 663.1,441.5 655.4,443.2 652.3,446.3 
			652.3,450.1 650.4,450.1 650.4,445.5 654.4,441.5 663,439.6 702.9,439.6 711.3,442.1 715.8,446.5 		"/>
		<polygon class="st2" points="706.8,436.6 691,436.6 691,434.7 704.9,434.7 704.9,432.5 711.3,432.5 711.3,395.3 716.3,395.3 
			716.3,391.7 758.1,391.7 758.1,394.9 762.7,394.9 762.7,433.5 760.8,433.5 760.8,396.9 756.2,396.9 756.2,393.7 718.2,393.7 
			718.2,397.2 713.2,397.2 713.2,434.4 706.8,434.4 		"/>
		<rect x="714.8" y="384.4" class="st2" width="44.1" height="1.9"/>
		<rect x="720" y="385.4" class="st2" width="1.9" height="7.3"/>
		<rect x="752.8" y="385.4" class="st2" width="1.9" height="7.3"/>
		<polygon class="st2" points="715.1,447.8 714.6,446 765.6,431.5 791.6,431.5 791.6,444.2 789.7,444.2 789.7,433.4 765.8,433.4 		
			"/>
		
			<rect x="767.1" y="436.5" transform="matrix(0.9139 -0.4059 0.4059 0.9139 -110.4517 354.0127)" class="st2" width="24.6" height="1.9"/>
		<polygon class="st2" points="723.4,453.9 714.8,453.9 714.8,452 721.4,452 721.4,447.7 757.6,447.7 757.6,441.4 783.1,441.4 
			783.1,446.7 791.9,446.7 791.9,448.6 781.1,448.6 781.1,443.4 759.5,443.4 759.5,449.6 723.4,449.6 		"/>
		<polygon class="st2" points="807.1,462.7 805.2,462.7 805.2,452.6 778.6,452.6 778.6,462.7 776.7,462.7 776.7,450.7 807.1,450.7 
					"/>
		<polygon class="st2" points="892.8,463.4 890.9,463.4 890.9,450.3 878.4,450.3 878.4,444.8 872.2,444.8 872.2,440.6 794.9,440.6 
			794.9,438.7 874.1,438.7 874.1,442.9 880.4,442.9 880.4,448.4 892.8,448.4 		"/>
		<polygon class="st2" points="882.3,462.7 880.4,462.7 880.4,459.2 860.8,455.7 860.8,451.1 823.9,451.1 823.9,439.7 825.8,439.7 
			825.8,449.1 862.7,449.1 862.7,454.1 882.3,457.6 		"/>
		<polygon class="st2" points="819.1,430.3 817.1,430.3 817.1,310.4 809.4,310.4 809.4,322.5 801.2,322.5 801.2,321.1 798,324.3 
			776,324.3 776,319.7 769.9,319.7 769.9,428.5 767.9,428.5 767.9,317.8 777.9,317.8 777.9,322.4 797.2,322.4 803.1,316.5 
			803.1,320.6 807.5,320.6 807.5,308.5 819.1,308.5 		"/>
		<polygon class="st2" points="858.6,439.7 856.7,439.7 856.7,435 817.8,435 817.8,439.7 815.9,439.7 815.9,433.1 858.6,433.1 		"/>
		<polygon class="st2" points="775.8,318.7 773.8,318.7 773.8,312.1 805.1,312.1 805.1,314 775.8,314 		"/>
		<rect x="813.1" y="276.1" class="st2" width="2.1" height="33.3"/>
		<polygon class="st2" points="814.2,268.1 815.2,281.8 813.1,281.8 		"/>
		<rect x="773.7" y="303.3" class="st2" width="2.1" height="14.9"/>
		<polygon class="st2" points="774.8,295.2 775.8,308.9 773.7,308.9 		"/>
		
			<rect x="776.9" y="319.8" transform="matrix(0.5274 -0.8496 0.8496 0.5274 96.0879 814.3006)" class="st2" width="6.1" height="1.9"/>
		
			<rect x="794.1" y="317.7" transform="matrix(0.8496 -0.5274 0.5274 0.8496 -49.6135 467.5672)" class="st2" width="1.9" height="6.1"/>
		<rect x="16.4" y="431" class="st2" width="12.5" height="1.8"/>
		<rect x="16.4" y="435.1" class="st2" width="12.5" height="1.8"/>
		<rect x="16.4" y="439.2" class="st2" width="8" height="1.8"/>
		<rect x="16.4" y="443.4" class="st2" width="3.2" height="1.8"/>
		<rect x="12.1" y="443.4" class="st2" width="2" height="1.8"/>
		<rect x="12.1" y="439.5" class="st2" width="2" height="1.8"/>
		<rect x="12.1" y="435.6" class="st2" width="2" height="1.8"/>
		<rect x="12.1" y="431.7" class="st2" width="2" height="1.8"/>
		<rect x="22.1" y="367.6" class="st2" width="21.9" height="1.8"/>
		<rect x="22.1" y="373.3" class="st2" width="21.9" height="1.8"/>
		<rect x="22.1" y="379" class="st2" width="21.9" height="1.8"/>
		<rect x="22.1" y="384.7" class="st2" width="21.9" height="1.8"/>
		<rect x="22.1" y="390.4" class="st2" width="21.9" height="1.8"/>
		<rect x="22.1" y="396.1" class="st2" width="21.9" height="1.8"/>
		<rect x="22.1" y="401.8" class="st2" width="21.9" height="1.8"/>
		<rect x="22.1" y="407.5" class="st2" width="21.9" height="1.8"/>
		<rect x="22.1" y="413.2" class="st2" width="21.9" height="1.8"/>
		<rect x="52.4" y="367.6" class="st2" width="6.9" height="1.8"/>
		<rect x="52.4" y="373.3" class="st2" width="6.9" height="1.8"/>
		<rect x="52.4" y="379" class="st2" width="6.9" height="1.8"/>
		<rect x="52.4" y="384.7" class="st2" width="6.9" height="1.8"/>
		<rect x="52.4" y="390.4" class="st2" width="6.9" height="1.8"/>
		<rect x="52.4" y="396.1" class="st2" width="6.9" height="1.8"/>
		<rect x="52.4" y="401.8" class="st2" width="6.9" height="1.8"/>
		<rect x="52.4" y="407.5" class="st2" width="6.9" height="1.8"/>
		<rect x="52.4" y="413.2" class="st2" width="6.9" height="1.8"/>
		<rect x="52.4" y="419.6" class="st2" width="6.9" height="1.8"/>
		<rect x="52.4" y="425.3" class="st2" width="6.9" height="1.8"/>
		<rect x="52.4" y="431" class="st2" width="6.9" height="1.8"/>
		<rect x="67" y="367.6" class="st2" width="21.5" height="1.8"/>
		<rect x="67" y="373.3" class="st2" width="21.5" height="1.8"/>
		<rect x="67" y="379" class="st2" width="21.5" height="1.8"/>
		<rect x="67" y="384.7" class="st2" width="21.5" height="1.8"/>
		<rect x="67" y="390.4" class="st2" width="21.5" height="1.8"/>
		<rect x="67" y="396.1" class="st2" width="21.5" height="1.8"/>
		<rect x="67" y="401.8" class="st2" width="21.5" height="1.8"/>
		<rect x="67" y="407.5" class="st2" width="21.5" height="1.8"/>
		<rect x="67" y="413.2" class="st2" width="21.5" height="1.8"/>
		<rect x="67" y="419.6" class="st2" width="21.5" height="1.8"/>
		<rect x="67" y="425.3" class="st2" width="21.5" height="1.8"/>
		<rect x="64.3" y="452.5" class="st2" width="1.6" height="3.5"/>
		<rect x="68.9" y="452.5" class="st2" width="1.6" height="3.5"/>
		<rect x="73.4" y="452.5" class="st2" width="1.6" height="3.5"/>
		<rect x="77.9" y="452.5" class="st2" width="1.6" height="3.5"/>
		<rect x="82.5" y="452.5" class="st2" width="1.6" height="3.5"/>
		<rect x="73.4" y="458.5" class="st2" width="1.6" height="3.5"/>
		<rect x="77.9" y="458.5" class="st2" width="1.6" height="3.5"/>
		<rect x="82.5" y="458.5" class="st2" width="1.6" height="3.5"/>
		<rect x="42.4" y="459.6" class="st2" width="4.5" height="1.7"/>
		<rect x="34.8" y="451.6" class="st2" width="4.5" height="1.7"/>
		
			<rect x="107.6" y="454.1" transform="matrix(6.123234e-17 -1 1 6.123234e-17 -346.1541 563.6899)" class="st2" width="2.4" height="1.7"/>
		
			<rect x="112.1" y="454.1" transform="matrix(6.123234e-17 -1 1 6.123234e-17 -341.6547 568.1893)" class="st2" width="2.4" height="1.7"/>
		
			<rect x="107.6" y="458.8" transform="matrix(6.123234e-17 -1 1 6.123234e-17 -350.834 568.3697)" class="st2" width="2.4" height="1.7"/>
		
			<rect x="112.1" y="458.8" transform="matrix(6.123234e-17 -1 1 6.123234e-17 -346.3345 572.8691)" class="st2" width="2.4" height="1.7"/>
		
			<rect x="97.7" y="454.1" transform="matrix(6.123234e-17 -1 1 6.123234e-17 -356.022 553.822)" class="st2" width="2.4" height="1.7"/>
		
			<rect x="102.2" y="454.1" transform="matrix(6.123234e-17 -1 1 6.123234e-17 -351.5223 558.3217)" class="st2" width="2.4" height="1.7"/>
		
			<rect x="97.7" y="458.8" transform="matrix(6.123234e-17 -1 1 6.123234e-17 -360.7018 558.5018)" class="st2" width="2.4" height="1.7"/>
		
			<rect x="102.2" y="458.8" transform="matrix(6.123234e-17 -1 1 6.123234e-17 -356.2021 563.0015)" class="st2" width="2.4" height="1.7"/>
		<rect x="51" y="459.6" class="st2" width="4.5" height="1.7"/>
		<rect x="93.4" y="435.9" class="st2" width="7.1" height="1.5"/>
		<rect x="104.5" y="435.9" class="st2" width="7.1" height="1.5"/>
		
			<rect x="103.1" y="430.9" transform="matrix(6.123234e-17 -1 1 6.123234e-17 -327.533 536.2803)" class="st2" width="2.6" height="2"/>
		
			<rect x="107" y="430.9" transform="matrix(6.123234e-17 -1 1 6.123234e-17 -323.5992 540.2141)" class="st2" width="2.6" height="2"/>
		
			<rect x="110.9" y="430.9" transform="matrix(6.123234e-17 -1 1 6.123234e-17 -319.6649 544.1484)" class="st2" width="2.6" height="2"/>
		
			<rect x="138.2" y="449.9" transform="matrix(6.123234e-17 -1 1 6.123234e-17 -311.0027 589.7344)" class="st2" width="2.4" height="1"/>
		
			<rect x="141.3" y="449.9" transform="matrix(6.123234e-17 -1 1 6.123234e-17 -307.8682 592.8689)" class="st2" width="2.4" height="1"/>
		
			<rect x="143.7" y="449.9" transform="matrix(6.123234e-17 -1 1 6.123234e-17 -305.5152 595.2218)" class="st2" width="2.4" height="1"/>
		
			<rect x="138.2" y="456" transform="matrix(6.123234e-17 -1 1 6.123234e-17 -317.1172 595.8489)" class="st2" width="2.4" height="1"/>
		
			<rect x="141.3" y="456" transform="matrix(6.123234e-17 -1 1 6.123234e-17 -313.9827 598.9834)" class="st2" width="2.4" height="1"/>
		
			<rect x="143.7" y="456" transform="matrix(6.123234e-17 -1 1 6.123234e-17 -311.6298 601.3363)" class="st2" width="2.4" height="1"/>
		
			<rect x="124.1" y="454" transform="matrix(6.123234e-17 -1 1 6.123234e-17 -328.6907 580.41)" class="st2" width="3.4" height="1"/>
		
			<rect x="126.6" y="454" transform="matrix(6.123234e-17 -1 1 6.123234e-17 -326.2771 582.8235)" class="st2" width="3.4" height="1"/>
		
			<rect x="124.1" y="459.8" transform="matrix(6.123234e-17 -1 1 6.123234e-17 -334.4303 586.1495)" class="st2" width="3.4" height="1"/>
		
			<rect x="126.6" y="459.8" transform="matrix(6.123234e-17 -1 1 6.123234e-17 -332.0167 588.5631)" class="st2" width="3.4" height="1"/>
		<rect x="129" y="454" transform="matrix(6.123234e-17 -1 1 6.123234e-17 -323.7806 585.32)" class="st2" width="3.4" height="1"/>
		
			<rect x="129" y="459.8" transform="matrix(6.123234e-17 -1 1 6.123234e-17 -329.5202 591.0596)" class="st2" width="3.4" height="1"/>
		<rect x="115.6" y="435.9" class="st2" width="7.1" height="1.5"/>
		<rect x="126.7" y="435.9" class="st2" width="7.1" height="1.5"/>
		<rect x="115.6" y="440.3" class="st2" width="7.1" height="1.5"/>
		<rect x="126.7" y="440.3" class="st2" width="7.1" height="1.5"/>
		<rect x="137.8" y="435.9" class="st2" width="7.1" height="1.5"/>
		<rect x="168.2" y="386.8" class="st2" width="1.1" height="9.3"/>
		<rect x="172.5" y="386.8" class="st2" width="1.1" height="9.3"/>
		<rect x="176.8" y="386.8" class="st2" width="1.1" height="9.3"/>
		<rect x="181" y="386.8" class="st2" width="1.1" height="9.3"/>
		<rect x="185.3" y="386.8" class="st2" width="1.1" height="9.3"/>
		<rect x="189.6" y="386.8" class="st2" width="1.1" height="9.3"/>
		<rect x="193.9" y="390.4" class="st2" width="1.1" height="5.7"/>
		<rect x="198.1" y="390.4" class="st2" width="1.1" height="5.7"/>
		<rect x="168.2" y="400" class="st2" width="1.1" height="49.2"/>
		<rect x="172.5" y="400" class="st2" width="1.1" height="49.2"/>
		<rect x="176.8" y="400" class="st2" width="1.1" height="49.2"/>
		<rect x="181" y="400" class="st2" width="1.1" height="49.2"/>
		<rect x="185.3" y="400" class="st2" width="1.1" height="49.2"/>
		<rect x="189.6" y="400" class="st2" width="1.1" height="49.2"/>
		<rect x="193.9" y="400" class="st2" width="1.1" height="49.2"/>
		<rect x="198.1" y="400" class="st2" width="1.1" height="49.2"/>
		<rect x="219.5" y="443.6" class="st2" width="1.4" height="2.3"/>
		<rect x="219.5" y="447.7" class="st2" width="1.4" height="2.3"/>
		<rect x="228.3" y="447.7" class="st2" width="1.4" height="2.3"/>
		<rect x="231.3" y="447.7" class="st2" width="1.4" height="2.3"/>
		<rect x="234.2" y="447.7" class="st2" width="1.4" height="2.3"/>
		<rect x="237.2" y="447.7" class="st2" width="1.4" height="2.3"/>
		<rect x="208.2" y="447.7" class="st2" width="1.4" height="2.3"/>
		<rect x="211.2" y="447.7" class="st2" width="1.4" height="2.3"/>
		<rect x="214.1" y="447.7" class="st2" width="1.4" height="2.3"/>
		<rect x="240.1" y="447.7" class="st2" width="1.4" height="2.3"/>
		<rect x="209.4" y="414.1" class="st2" width="1" height="2.8"/>
		<rect x="212.1" y="414.1" class="st2" width="1" height="2.8"/>
		<rect x="214.9" y="414.1" class="st2" width="1" height="2.8"/>
		<rect x="217.6" y="414.1" class="st2" width="1" height="2.8"/>
		<rect x="220.4" y="414.1" class="st2" width="1" height="2.8"/>
		<rect x="223.1" y="414.1" class="st2" width="1" height="2.8"/>
		<rect x="183.1" y="458.9" class="st2" width="1.1" height="2.5"/>
		<rect x="153" y="456.7" class="st2" width="2" height="4.1"/>
		<rect x="156.8" y="456.7" class="st2" width="2" height="4.1"/>
		
			<rect x="163.5" y="455.6" transform="matrix(6.123234e-17 -1 1 6.123234e-17 -293.4269 621.8445)" class="st2" width="1.4" height="4.1"/>
		
			<rect x="163.5" y="458.4" transform="matrix(6.123234e-17 -1 1 6.123234e-17 -296.2054 624.623)" class="st2" width="1.4" height="4.1"/>
		<rect x="186" y="458.9" class="st2" width="1.1" height="2.5"/>
		<rect x="188.9" y="458.9" class="st2" width="1.1" height="2.5"/>
		<rect x="191.8" y="458.9" class="st2" width="1.1" height="2.5"/>
		<rect x="194.7" y="458.9" class="st2" width="1.1" height="2.5"/>
		<rect x="197.6" y="458.9" class="st2" width="1.1" height="2.5"/>
		<rect x="225.9" y="414.1" class="st2" width="1" height="2.8"/>
		<rect x="228.6" y="414.1" class="st2" width="1" height="2.8"/>
		<rect x="251.9" y="389.2" class="st2" width="1.3" height="4.7"/>
		<rect x="255.5" y="389.2" class="st2" width="1.3" height="4.7"/>
		<rect x="259.1" y="389.2" class="st2" width="1.3" height="4.7"/>
		<rect x="262.7" y="389.2" class="st2" width="1.3" height="4.7"/>
		
			<rect x="268.5" y="391" transform="matrix(6.123234e-17 -1 1 6.123234e-17 -124.4152 662.3542)" class="st2" width="1" height="4.7"/>
		
			<rect x="268.5" y="388.3" transform="matrix(6.123234e-17 -1 1 6.123234e-17 -121.6848 659.6238)" class="st2" width="1" height="4.7"/>
		<rect x="274.6" y="389.2" class="st2" width="1.3" height="4.7"/>
		<rect x="278.2" y="389.2" class="st2" width="1.3" height="4.7"/>
		<rect x="281.8" y="389.2" class="st2" width="1.3" height="4.7"/>
		<rect x="285.4" y="389.2" class="st2" width="1.3" height="4.7"/>
		<rect x="251.9" y="397" class="st2" width="1.3" height="3"/>
		<rect x="255.5" y="397" class="st2" width="1.3" height="3"/>
		<rect x="259.1" y="397" class="st2" width="1.3" height="3"/>
		<rect x="262.7" y="397" class="st2" width="1.3" height="3"/>
		
			<rect x="268.4" y="396.5" transform="matrix(-1.836970e-16 1 -1 -1.836970e-16 667.7868 129.8478)" class="st2" width="1.1" height="4.7"/>
		<rect x="274.6" y="397" class="st2" width="1.3" height="3"/>
		<rect x="278.2" y="397" class="st2" width="1.3" height="3"/>
		<rect x="281.8" y="397" class="st2" width="1.3" height="3"/>
		<rect x="285.4" y="397" class="st2" width="1.3" height="3"/>
		<rect x="251.9" y="403.2" class="st2" width="1.3" height="3"/>
		<rect x="255.5" y="403.2" class="st2" width="1.3" height="3"/>
		<rect x="259.1" y="403.2" class="st2" width="1.3" height="3"/>
		<rect x="262.7" y="403.2" class="st2" width="1.3" height="3"/>
		
			<rect x="268.4" y="402.6" transform="matrix(-1.836970e-16 1 -1 -1.836970e-16 673.9347 135.9957)" class="st2" width="1.1" height="4.7"/>
		<rect x="274.6" y="403.2" class="st2" width="1.3" height="3"/>
		<rect x="278.2" y="403.2" class="st2" width="1.3" height="3"/>
		<rect x="281.8" y="403.2" class="st2" width="1.3" height="3"/>
		<rect x="285.4" y="403.2" class="st2" width="1.3" height="3"/>
		<rect x="251.9" y="409.3" class="st2" width="1.3" height="3"/>
		<rect x="255.5" y="409.3" class="st2" width="1.3" height="3"/>
		<rect x="259.1" y="409.3" class="st2" width="1.3" height="3"/>
		<rect x="262.7" y="409.3" class="st2" width="1.3" height="3"/>
		
			<rect x="268.4" y="408.8" transform="matrix(-1.836970e-16 1 -1 -1.836970e-16 680.0826 142.1436)" class="st2" width="1.1" height="4.7"/>
		<rect x="274.6" y="409.3" class="st2" width="1.3" height="3"/>
		<rect x="278.2" y="409.3" class="st2" width="1.3" height="3"/>
		<rect x="281.8" y="409.3" class="st2" width="1.3" height="3"/>
		<rect x="285.4" y="409.3" class="st2" width="1.3" height="3"/>
		<rect x="251.9" y="415.5" class="st2" width="1.3" height="3"/>
		<rect x="255.5" y="415.5" class="st2" width="1.3" height="3"/>
		<rect x="259.1" y="415.5" class="st2" width="1.3" height="3"/>
		<rect x="262.7" y="415.5" class="st2" width="1.3" height="3"/>
		
			<rect x="268.4" y="414.9" transform="matrix(-1.836970e-16 1 -1 -1.836970e-16 686.2305 148.2915)" class="st2" width="1.1" height="4.7"/>
		<rect x="274.6" y="415.5" class="st2" width="1.3" height="3"/>
		<rect x="278.2" y="415.5" class="st2" width="1.3" height="3"/>
		<rect x="281.8" y="415.5" class="st2" width="1.3" height="3"/>
		<rect x="285.4" y="415.5" class="st2" width="1.3" height="3"/>
		<rect x="251.9" y="421.6" class="st2" width="1.3" height="3"/>
		<rect x="255.5" y="421.6" class="st2" width="1.3" height="3"/>
		<rect x="259.1" y="421.6" class="st2" width="1.3" height="3"/>
		<rect x="262.7" y="421.6" class="st2" width="1.3" height="3"/>
		
			<rect x="268.4" y="421.1" transform="matrix(-1.836970e-16 1 -1 -1.836970e-16 692.3784 154.4394)" class="st2" width="1.1" height="4.7"/>
		<rect x="274.6" y="421.6" class="st2" width="1.3" height="3"/>
		<rect x="278.2" y="421.6" class="st2" width="1.3" height="3"/>
		<rect x="281.8" y="421.6" class="st2" width="1.3" height="3"/>
		<rect x="285.4" y="421.6" class="st2" width="1.3" height="3"/>
		<rect x="251.9" y="427.8" class="st2" width="1.3" height="3"/>
		<rect x="255.5" y="427.8" class="st2" width="1.3" height="3"/>
		<rect x="259.1" y="427.8" class="st2" width="1.3" height="3"/>
		<rect x="262.7" y="427.8" class="st2" width="1.3" height="3"/>
		
			<rect x="268.4" y="427.2" transform="matrix(-1.836970e-16 1 -1 -1.836970e-16 698.5262 160.5872)" class="st2" width="1.1" height="4.7"/>
		<rect x="274.6" y="427.8" class="st2" width="1.3" height="3"/>
		<rect x="278.2" y="427.8" class="st2" width="1.3" height="3"/>
		<rect x="281.8" y="427.8" class="st2" width="1.3" height="3"/>
		<rect x="285.4" y="427.8" class="st2" width="1.3" height="3"/>
		<rect x="251.9" y="433.9" class="st2" width="1.3" height="3"/>
		<rect x="255.5" y="433.9" class="st2" width="1.3" height="3"/>
		<rect x="259.1" y="433.9" class="st2" width="1.3" height="3"/>
		<rect x="262.7" y="433.9" class="st2" width="1.3" height="3"/>
		
			<rect x="268.4" y="433.4" transform="matrix(-1.836970e-16 1 -1 -1.836970e-16 704.6741 166.7351)" class="st2" width="1.1" height="4.7"/>
		<rect x="274.6" y="433.9" class="st2" width="1.3" height="3"/>
		<rect x="278.2" y="433.9" class="st2" width="1.3" height="3"/>
		<rect x="281.8" y="433.9" class="st2" width="1.3" height="3"/>
		<rect x="285.4" y="433.9" class="st2" width="1.3" height="3"/>
		<rect x="251.9" y="440.1" class="st2" width="1.3" height="3"/>
		<rect x="255.5" y="440.1" class="st2" width="1.3" height="3"/>
		<rect x="259.1" y="440.1" class="st2" width="1.3" height="3"/>
		<rect x="262.7" y="440.1" class="st2" width="1.3" height="3"/>
		
			<rect x="268.4" y="439.5" transform="matrix(-1.836970e-16 1 -1 -1.836970e-16 710.822 172.883)" class="st2" width="1.1" height="4.7"/>
		<rect x="274.6" y="440.1" class="st2" width="1.3" height="3"/>
		<rect x="278.2" y="440.1" class="st2" width="1.3" height="3"/>
		<rect x="281.8" y="440.1" class="st2" width="1.3" height="3"/>
		<rect x="285.4" y="440.1" class="st2" width="1.3" height="3"/>
		<rect x="251.9" y="446.2" class="st2" width="1.3" height="3"/>
		<rect x="255.5" y="446.2" class="st2" width="1.3" height="3"/>
		<rect x="259.1" y="446.2" class="st2" width="1.3" height="3"/>
		<rect x="262.7" y="446.2" class="st2" width="1.3" height="3"/>
		
			<rect x="268.4" y="445.7" transform="matrix(-1.836970e-16 1 -1 -1.836970e-16 716.9699 179.0309)" class="st2" width="1.1" height="4.7"/>
		<rect x="274.6" y="446.2" class="st2" width="1.3" height="3"/>
		<rect x="278.2" y="446.2" class="st2" width="1.3" height="3"/>
		<rect x="281.8" y="446.2" class="st2" width="1.3" height="3"/>
		<rect x="285.4" y="446.2" class="st2" width="1.3" height="3"/>
		<rect x="251.9" y="452.4" class="st2" width="1.3" height="3"/>
		<rect x="255.5" y="452.4" class="st2" width="1.3" height="3"/>
		<rect x="259.1" y="452.4" class="st2" width="1.3" height="3"/>
		<rect x="262.7" y="452.4" class="st2" width="1.3" height="3"/>
		
			<rect x="268.4" y="451.8" transform="matrix(-1.836970e-16 1 -1 -1.836970e-16 723.1178 185.1788)" class="st2" width="1.1" height="4.7"/>
		<rect x="274.6" y="452.4" class="st2" width="1.3" height="3"/>
		<rect x="278.2" y="452.4" class="st2" width="1.3" height="3"/>
		<rect x="281.8" y="452.4" class="st2" width="1.3" height="3"/>
		<rect x="285.4" y="452.4" class="st2" width="1.3" height="3"/>
		<rect x="251.9" y="458.5" class="st2" width="1.3" height="3"/>
		<rect x="255.5" y="458.5" class="st2" width="1.3" height="3"/>
		<rect x="259.1" y="458.5" class="st2" width="1.3" height="3"/>
		<rect x="262.7" y="458.5" class="st2" width="1.3" height="3"/>
		
			<rect x="268.4" y="458" transform="matrix(-1.836970e-16 1 -1 -1.836970e-16 729.2657 191.3267)" class="st2" width="1.1" height="4.7"/>
		<rect x="274.6" y="458.5" class="st2" width="1.3" height="3"/>
		<rect x="278.2" y="458.5" class="st2" width="1.3" height="3"/>
		<rect x="281.8" y="458.5" class="st2" width="1.3" height="3"/>
		<rect x="285.4" y="458.5" class="st2" width="1.3" height="3"/>
		<rect x="297" y="383.1" class="st2" width="2.8" height="4"/>
		<rect x="297" y="391.4" class="st2" width="2.8" height="4"/>
		<rect x="297" y="399.7" class="st2" width="2.8" height="4"/>
		<rect x="297" y="408" class="st2" width="2.8" height="4"/>
		<rect x="297" y="416.3" class="st2" width="2.8" height="4"/>
		<rect x="297" y="424.6" class="st2" width="2.8" height="4"/>
		<rect x="297" y="433" class="st2" width="2.8" height="4"/>
		<rect x="297" y="441.3" class="st2" width="2.8" height="4"/>
		<rect x="297" y="449.6" class="st2" width="2.8" height="4"/>
		<rect x="310.3" y="414.3" class="st2" width="1.7" height="2.6"/>
		<rect x="313.3" y="414.3" class="st2" width="1.7" height="2.6"/>
		<rect x="316.3" y="414.3" class="st2" width="1.7" height="2.6"/>
		<rect x="319.2" y="414.3" class="st2" width="1.7" height="2.6"/>
		<rect x="322.2" y="414.3" class="st2" width="1.7" height="2.6"/>
		<rect x="318" y="418.8" class="st2" width="1.1" height="9.9"/>
		<rect x="322.5" y="418.8" class="st2" width="1.1" height="9.9"/>
		<rect x="324.6" y="451.8" class="st2" width="1.9" height="10.9"/>
		<rect x="347.6" y="369" class="st2" width="1" height="4.8"/>
		<rect x="351.4" y="369" class="st2" width="1" height="4.8"/>
		<rect x="355.2" y="369" class="st2" width="1" height="4.8"/>
		<rect x="359.1" y="369" class="st2" width="1" height="4.8"/>
		<rect x="364.9" y="369" class="st2" width="1" height="4.8"/>
		<rect x="368.7" y="369" class="st2" width="1" height="4.8"/>
		<rect x="372.6" y="369" class="st2" width="1" height="4.8"/>
		<rect x="376.4" y="369" class="st2" width="1" height="4.8"/>
		<rect x="382.2" y="369" class="st2" width="1" height="4.8"/>
		<rect x="386.1" y="369" class="st2" width="1" height="4.8"/>
		<rect x="389.9" y="369" class="st2" width="1" height="4.8"/>
		<rect x="393.7" y="369" class="st2" width="1" height="4.8"/>
		<rect x="347.6" y="377.8" class="st2" width="1" height="4.8"/>
		<rect x="351.4" y="377.8" class="st2" width="1" height="4.8"/>
		<rect x="355.2" y="377.8" class="st2" width="1" height="4.8"/>
		<rect x="359.1" y="377.8" class="st2" width="1" height="4.8"/>
		<rect x="347.6" y="386.6" class="st2" width="1" height="4.8"/>
		<rect x="351.4" y="386.6" class="st2" width="1" height="4.8"/>
		<rect x="355.2" y="386.6" class="st2" width="1" height="4.8"/>
		<rect x="359.1" y="386.6" class="st2" width="1" height="4.8"/>
		<rect x="347.6" y="395.4" class="st2" width="1" height="4.8"/>
		<rect x="351.4" y="395.4" class="st2" width="1" height="4.8"/>
		<rect x="355.2" y="395.4" class="st2" width="1" height="4.8"/>
		<rect x="359.1" y="395.4" class="st2" width="1" height="4.8"/>
		<rect x="347.6" y="404.1" class="st2" width="1" height="4.8"/>
		<rect x="351.4" y="404.1" class="st2" width="1" height="4.8"/>
		<rect x="355.2" y="404.1" class="st2" width="1" height="4.8"/>
		<rect x="359.1" y="404.1" class="st2" width="1" height="4.8"/>
		<rect x="347.6" y="412.9" class="st2" width="1" height="4.8"/>
		<rect x="351.4" y="412.9" class="st2" width="1" height="4.8"/>
		<rect x="355.2" y="412.9" class="st2" width="1" height="4.8"/>
		<rect x="359.1" y="412.9" class="st2" width="1" height="4.8"/>
		<rect x="347.6" y="421.7" class="st2" width="1" height="4.8"/>
		<rect x="351.4" y="421.7" class="st2" width="1" height="4.8"/>
		<rect x="355.2" y="421.7" class="st2" width="1" height="4.8"/>
		<rect x="359.1" y="421.7" class="st2" width="1" height="4.8"/>
		<rect x="347.6" y="430.5" class="st2" width="1" height="4.8"/>
		<rect x="351.4" y="430.5" class="st2" width="1" height="4.8"/>
		<rect x="355.2" y="430.5" class="st2" width="1" height="4.8"/>
		<rect x="359.1" y="430.5" class="st2" width="1" height="4.8"/>
		<rect x="347.6" y="439.2" class="st2" width="1" height="4.8"/>
		<rect x="351.4" y="439.2" class="st2" width="1" height="4.8"/>
		<rect x="355.2" y="439.2" class="st2" width="1" height="4.8"/>
		<rect x="359.1" y="439.2" class="st2" width="1" height="4.8"/>
		<rect x="367.5" y="389" class="st2" width="1.3" height="2.4"/>
		<rect x="367.5" y="394.2" class="st2" width="1.3" height="2.4"/>
		<rect x="367.5" y="399.3" class="st2" width="1.3" height="2.4"/>
		<rect x="367.5" y="404.5" class="st2" width="1.3" height="2.4"/>
		<rect x="367.5" y="409.7" class="st2" width="1.3" height="2.4"/>
		<rect x="370.4" y="389" class="st2" width="1.3" height="2.4"/>
		<rect x="370.4" y="394.2" class="st2" width="1.3" height="2.4"/>
		<rect x="370.4" y="399.3" class="st2" width="1.3" height="2.4"/>
		<rect x="370.4" y="404.5" class="st2" width="1.3" height="2.4"/>
		<rect x="370.4" y="409.7" class="st2" width="1.3" height="2.4"/>
		<rect x="367.5" y="423.4" class="st2" width="1.3" height="2.4"/>
		<rect x="367.5" y="428.6" class="st2" width="1.3" height="2.4"/>
		<rect x="367.5" y="433.8" class="st2" width="1.3" height="2.4"/>
		<rect x="348.6" y="454.9" class="st2" width="1.3" height="2.4"/>
		<rect x="351.8" y="457.8" class="st2" width="1.3" height="2.4"/>
		<rect x="355.2" y="454.9" class="st2" width="1.3" height="2.4"/>
		<rect x="358.4" y="457.8" class="st2" width="1.3" height="2.4"/>
		<rect x="361.9" y="454.9" class="st2" width="1.3" height="2.4"/>
		<rect x="365.1" y="457.8" class="st2" width="1.3" height="2.4"/>
		<rect x="368.5" y="454.9" class="st2" width="1.3" height="2.4"/>
		<rect x="371.7" y="457.8" class="st2" width="1.3" height="2.4"/>
		<rect x="375.1" y="454.9" class="st2" width="1.3" height="2.4"/>
		<rect x="378.3" y="457.8" class="st2" width="1.3" height="2.4"/>
		<rect x="381.8" y="454.9" class="st2" width="1.3" height="2.4"/>
		<rect x="385" y="457.8" class="st2" width="1.3" height="2.4"/>
		<rect x="367.5" y="438.9" class="st2" width="1.3" height="2.4"/>
		<rect x="370.4" y="423.4" class="st2" width="1.3" height="2.4"/>
		<rect x="370.4" y="428.6" class="st2" width="1.3" height="2.4"/>
		<rect x="370.4" y="433.8" class="st2" width="1.3" height="2.4"/>
		<rect x="370.4" y="438.9" class="st2" width="1.3" height="2.4"/>
		<rect x="364.2" y="414.7" class="st2" width="6.9" height="1.9"/>
		<rect x="368" y="419" class="st2" width="6.9" height="1.9"/>
		<rect x="390" y="380.2" class="st2" width="1.9" height="63.8"/>
		<rect x="435.4" y="423.2" class="st2" width="2.4" height="5.7"/>
		<rect x="416" y="388" class="st2" width="1.5" height="3.2"/>
		<rect x="420.3" y="388" class="st2" width="1.5" height="3.2"/>
		<rect x="424.6" y="388" class="st2" width="1.5" height="3.2"/>
		<rect x="429" y="388" class="st2" width="1.5" height="3.2"/>
		<rect x="433.3" y="388" class="st2" width="1.5" height="3.2"/>
		<rect x="442" y="388" class="st2" width="1.5" height="3.2"/>
		<rect x="446.3" y="388" class="st2" width="1.5" height="3.2"/>
		<rect x="424.6" y="383.1" class="st2" width="1.5" height="2.5"/>
		<rect x="433.3" y="383.1" class="st2" width="1.5" height="2.5"/>
		<rect x="437.6" y="383.1" class="st2" width="1.5" height="2.5"/>
		<rect x="442" y="383.1" class="st2" width="1.5" height="2.5"/>
		<rect x="446.3" y="383.1" class="st2" width="1.5" height="2.5"/>
		<rect x="450.6" y="388" class="st2" width="1.5" height="3.2"/>
		<rect x="455" y="388" class="st2" width="1.5" height="3.2"/>
		<rect x="420.3" y="393.3" class="st2" width="1.5" height="3.2"/>
		<rect x="424.6" y="393.3" class="st2" width="1.5" height="3.2"/>
		<rect x="429" y="393.3" class="st2" width="1.5" height="3.2"/>
		<rect x="433.3" y="393.3" class="st2" width="1.5" height="3.2"/>
		<rect x="437.6" y="393.3" class="st2" width="1.5" height="3.2"/>
		<rect x="442" y="393.3" class="st2" width="1.5" height="3.2"/>
		<rect x="450.6" y="393.3" class="st2" width="1.5" height="3.2"/>
		<rect x="455" y="393.3" class="st2" width="1.5" height="3.2"/>
		<rect x="416" y="398.7" class="st2" width="1.5" height="3.2"/>
		<rect x="420.3" y="398.7" class="st2" width="1.5" height="3.2"/>
		<rect x="424.6" y="398.7" class="st2" width="1.5" height="3.2"/>
		<rect x="433.3" y="398.7" class="st2" width="1.5" height="3.2"/>
		<rect x="437.6" y="398.7" class="st2" width="1.5" height="3.2"/>
		<rect x="442" y="398.7" class="st2" width="1.5" height="3.2"/>
		<rect x="446.3" y="398.7" class="st2" width="1.5" height="3.2"/>
		<rect x="450.6" y="398.7" class="st2" width="1.5" height="3.2"/>
		<rect x="455" y="398.7" class="st2" width="1.5" height="3.2"/>
		<rect x="416" y="404" class="st2" width="1.5" height="3.2"/>
		<rect x="420.3" y="404" class="st2" width="1.5" height="3.2"/>
		<rect x="424.6" y="404" class="st2" width="1.5" height="3.2"/>
		<rect x="429" y="404" class="st2" width="1.5" height="3.2"/>
		<rect x="433.3" y="404" class="st2" width="1.5" height="3.2"/>
		<rect x="437.6" y="404" class="st2" width="1.5" height="3.2"/>
		<rect x="446.3" y="404" class="st2" width="1.5" height="3.2"/>
		<rect x="450.6" y="404" class="st2" width="1.5" height="3.2"/>
		<rect x="455" y="404" class="st2" width="1.5" height="3.2"/>
		<rect x="416" y="409.4" class="st2" width="1.5" height="3.2"/>
		<rect x="424.6" y="409.4" class="st2" width="1.5" height="3.2"/>
		<rect x="429" y="409.4" class="st2" width="1.5" height="3.2"/>
		<rect x="433.3" y="409.4" class="st2" width="1.5" height="3.2"/>
		<rect x="437.6" y="409.4" class="st2" width="1.5" height="3.2"/>
		<rect x="442" y="409.4" class="st2" width="1.5" height="3.2"/>
		<rect x="446.3" y="409.4" class="st2" width="1.5" height="3.2"/>
		<rect x="455" y="409.4" class="st2" width="1.5" height="3.2"/>
		<rect x="420.3" y="421.5" class="st2" width="1.5" height="3.2"/>
		<rect x="424.6" y="421.5" class="st2" width="1.5" height="3.2"/>
		<rect x="446.3" y="421.5" class="st2" width="1.5" height="3.2"/>
		<rect x="450.6" y="421.5" class="st2" width="1.5" height="3.2"/>
		<rect x="416" y="426.8" class="st2" width="1.5" height="3.2"/>
		<rect x="420.3" y="426.8" class="st2" width="1.5" height="3.2"/>
		<rect x="424.6" y="426.8" class="st2" width="1.5" height="3.2"/>
		<rect x="416" y="432.2" class="st2" width="1.5" height="3.2"/>
		<rect x="420.3" y="432.2" class="st2" width="1.5" height="3.2"/>
		<rect x="424.6" y="432.2" class="st2" width="1.5" height="3.2"/>
		<rect x="416" y="437.5" class="st2" width="1.5" height="3.2"/>
		<rect x="420.3" y="437.5" class="st2" width="1.5" height="3.2"/>
		<rect x="416" y="442.8" class="st2" width="1.5" height="3.2"/>
		<rect x="420.3" y="442.8" class="st2" width="1.5" height="3.2"/>
		<rect x="427.9" y="456.3" class="st2" width="1.2" height="2"/>
		<rect x="430.3" y="456.3" class="st2" width="1.2" height="2"/>
		<rect x="427.9" y="459.4" class="st2" width="1.2" height="2"/>
		<rect x="430.3" y="459.4" class="st2" width="1.2" height="2"/>
		<rect x="443.3" y="456.3" class="st2" width="1.2" height="2"/>
		<rect x="445.7" y="456.3" class="st2" width="1.2" height="2"/>
		<rect x="443.3" y="459.4" class="st2" width="1.2" height="2"/>
		<rect x="445.7" y="459.4" class="st2" width="1.2" height="2"/>
		<rect x="449.2" y="456.3" class="st2" width="1.2" height="2"/>
		<rect x="451.6" y="456.3" class="st2" width="1.2" height="2"/>
		<rect x="479.4" y="453.1" class="st2" width="1.2" height="2"/>
		<rect x="481.8" y="453.1" class="st2" width="1.2" height="2"/>
		<rect x="485.3" y="453.1" class="st2" width="1.2" height="2"/>
		<rect x="487.7" y="453.1" class="st2" width="1.2" height="2"/>
		<rect x="479.4" y="457.3" class="st2" width="1.2" height="2"/>
		<rect x="481.8" y="457.3" class="st2" width="1.2" height="2"/>
		<rect x="485.3" y="457.3" class="st2" width="1.2" height="2"/>
		<rect x="487.7" y="457.3" class="st2" width="1.2" height="2"/>
		<rect x="461.4" y="457.3" class="st2" width="1.2" height="2"/>
		<rect x="463.7" y="457.3" class="st2" width="1.2" height="2"/>
		<rect x="467.2" y="457.3" class="st2" width="1.2" height="2"/>
		<rect x="469.6" y="457.3" class="st2" width="1.2" height="2"/>
		<rect x="486.5" y="417.1" class="st2" width="1.2" height="2"/>
		<rect x="488.9" y="417.1" class="st2" width="1.2" height="2"/>
		<rect x="492.4" y="417.1" class="st2" width="1.2" height="2"/>
		<rect x="472.4" y="417.1" class="st2" width="1.2" height="2"/>
		<rect x="474.7" y="417.1" class="st2" width="1.2" height="2"/>
		<rect x="478.2" y="417.1" class="st2" width="1.2" height="2"/>
		<rect x="486.5" y="420.7" class="st2" width="1.2" height="2"/>
		<rect x="488.9" y="420.7" class="st2" width="1.2" height="2"/>
		<rect x="492.4" y="420.7" class="st2" width="1.2" height="2"/>
		<rect x="472.4" y="420.7" class="st2" width="1.2" height="2"/>
		<rect x="474.7" y="420.7" class="st2" width="1.2" height="2"/>
		<rect x="478.2" y="420.7" class="st2" width="1.2" height="2"/>
		<rect x="486.5" y="424.3" class="st2" width="1.2" height="2"/>
		<rect x="488.9" y="424.3" class="st2" width="1.2" height="2"/>
		<rect x="492.4" y="424.3" class="st2" width="1.2" height="2"/>
		<rect x="474.7" y="424.3" class="st2" width="1.2" height="2"/>
		<rect x="478.2" y="424.3" class="st2" width="1.2" height="2"/>
		<rect x="449.2" y="459.4" class="st2" width="1.2" height="2"/>
		<rect x="451.6" y="459.4" class="st2" width="1.2" height="2"/>
		<rect x="550.4" y="452.9" class="st2" width="1.2" height="5.4"/>
		<rect x="553.2" y="452.9" class="st2" width="1.2" height="5.4"/>
		<rect x="556" y="452.9" class="st2" width="1.2" height="5.4"/>
		<rect x="558.9" y="452.9" class="st2" width="1.2" height="5.4"/>
		<rect x="535.8" y="456.3" class="st2" width="1.4" height="2"/>
		<rect x="539.1" y="456.3" class="st2" width="1.4" height="2"/>
		<rect x="542.3" y="456.3" class="st2" width="1.4" height="2"/>
		<rect x="545.6" y="456.3" class="st2" width="1.4" height="2"/>
		<rect x="520" y="456.3" class="st2" width="1.4" height="2"/>
		<rect x="523.3" y="456.3" class="st2" width="1.4" height="2"/>
		<rect x="526.5" y="456.3" class="st2" width="1.4" height="2"/>
		<rect x="529.8" y="456.3" class="st2" width="1.4" height="2"/>
		<rect x="504.2" y="456.3" class="st2" width="1.4" height="2"/>
		<rect x="507.4" y="456.3" class="st2" width="1.4" height="2"/>
		<rect x="510.7" y="456.3" class="st2" width="1.4" height="2"/>
		<rect x="514" y="456.3" class="st2" width="1.4" height="2"/>
		<rect x="580.6" y="436.7" class="st2" width="1.3" height="2.5"/>
		<rect x="580.6" y="442.3" class="st2" width="1.3" height="2.5"/>
		<rect x="580.6" y="448" class="st2" width="1.3" height="2.5"/>
		<rect x="580.6" y="453.6" class="st2" width="1.3" height="2.5"/>
		<rect x="584.8" y="431" class="st2" width="1.3" height="2.5"/>
		<rect x="584.8" y="436.7" class="st2" width="1.3" height="2.5"/>
		<rect x="584.8" y="442.3" class="st2" width="1.3" height="2.5"/>
		<rect x="584.8" y="453.6" class="st2" width="1.3" height="2.5"/>
		<rect x="584.8" y="459.3" class="st2" width="1.3" height="2.5"/>
		<rect x="588.9" y="431" class="st2" width="1.3" height="2.5"/>
		<rect x="588.9" y="436.7" class="st2" width="1.3" height="2.5"/>
		<rect x="588.9" y="442.3" class="st2" width="1.3" height="2.5"/>
		<rect x="588.9" y="448" class="st2" width="1.3" height="2.5"/>
		<rect x="588.9" y="459.3" class="st2" width="1.3" height="2.5"/>
		<rect x="593.1" y="431" class="st2" width="1.3" height="2.5"/>
		<rect x="593.1" y="442.3" class="st2" width="1.3" height="2.5"/>
		<rect x="593.1" y="448" class="st2" width="1.3" height="2.5"/>
		<rect x="597.2" y="431" class="st2" width="1.3" height="2.5"/>
		<rect x="597.2" y="436.7" class="st2" width="1.3" height="2.5"/>
		<rect x="597.2" y="442.3" class="st2" width="1.3" height="2.5"/>
		<rect x="601.4" y="431" class="st2" width="1.3" height="2.5"/>
		<rect x="601.4" y="436.7" class="st2" width="1.3" height="2.5"/>
		<rect x="601.4" y="442.3" class="st2" width="1.3" height="2.5"/>
		<rect x="605.5" y="436.7" class="st2" width="1.3" height="2.5"/>
		<rect x="605.5" y="442.3" class="st2" width="1.3" height="2.5"/>
		<rect x="609.6" y="431" class="st2" width="1.3" height="2.5"/>
		<rect x="609.6" y="436.7" class="st2" width="1.3" height="2.5"/>
		<rect x="609.6" y="442.3" class="st2" width="1.3" height="2.5"/>
		<rect x="613.8" y="431" class="st2" width="1.3" height="2.5"/>
		<rect x="613.8" y="436.7" class="st2" width="1.3" height="2.5"/>
		<rect x="613.8" y="442.3" class="st2" width="1.3" height="2.5"/>
		<rect x="617.9" y="431" class="st2" width="1.3" height="2.5"/>
		<rect x="617.9" y="436.7" class="st2" width="1.3" height="2.5"/>
		<rect x="622.1" y="431" class="st2" width="1.3" height="2.5"/>
		<rect x="622.1" y="436.7" class="st2" width="1.3" height="2.5"/>
		<rect x="622.1" y="442.3" class="st2" width="1.3" height="2.5"/>
		<rect x="626.2" y="431" class="st2" width="1.3" height="2.5"/>
		<rect x="626.2" y="442.3" class="st2" width="1.3" height="2.5"/>
		<rect x="630.4" y="431" class="st2" width="1.3" height="2.5"/>
		<rect x="630.4" y="436.7" class="st2" width="1.3" height="2.5"/>
		<rect x="630.4" y="442.3" class="st2" width="1.3" height="2.5"/>
		<rect x="634.5" y="431" class="st2" width="1.3" height="2.5"/>
		<rect x="634.5" y="436.7" class="st2" width="1.3" height="2.5"/>
		<rect x="579.7" y="380.7" class="st2" width="1.9" height="40"/>
		<rect x="605.2" y="380.7" class="st2" width="1.9" height="40"/>
		<rect x="612.8" y="380.7" class="st2" width="1.9" height="40"/>
		<rect x="616.9" y="380.7" class="st2" width="1.9" height="40"/>
		<rect x="580.6" y="382.9" class="st2" width="20.7" height="1.9"/>
		<rect x="580.6" y="387.8" class="st2" width="20.7" height="1.9"/>
		<rect x="580.6" y="392.7" class="st2" width="20.7" height="1.9"/>
		<rect x="580.6" y="397.6" class="st2" width="20.7" height="1.9"/>
		<rect x="580.6" y="402.5" class="st2" width="20.7" height="1.9"/>
		<rect x="580.6" y="407.4" class="st2" width="20.7" height="1.9"/>
		<rect x="580.6" y="412.3" class="st2" width="20.7" height="1.9"/>
		<rect x="580.6" y="417.3" class="st2" width="20.7" height="1.9"/>
		<rect x="633" y="403.5" class="st2" width="4.7" height="1.4"/>
		<rect x="633" y="407.5" class="st2" width="4.7" height="1.4"/>
		<rect x="633" y="411.4" class="st2" width="4.7" height="1.4"/>
		<rect x="633" y="415.4" class="st2" width="4.7" height="1.4"/>
		<rect x="633" y="419.3" class="st2" width="4.7" height="1.4"/>
		<rect x="641.3" y="403.5" class="st2" width="4.7" height="1.4"/>
		<rect x="641.3" y="407.5" class="st2" width="4.7" height="1.4"/>
		<rect x="641.3" y="411.4" class="st2" width="4.7" height="1.4"/>
		<rect x="641.3" y="415.4" class="st2" width="4.7" height="1.4"/>
		<rect x="641.3" y="419.3" class="st2" width="4.7" height="1.4"/>
		<rect x="649.5" y="403.5" class="st2" width="4.7" height="1.4"/>
		<rect x="649.5" y="407.5" class="st2" width="4.7" height="1.4"/>
		<rect x="649.5" y="411.4" class="st2" width="4.7" height="1.4"/>
		<rect x="649.5" y="415.4" class="st2" width="4.7" height="1.4"/>
		<rect x="649.5" y="419.3" class="st2" width="4.7" height="1.4"/>
		<rect x="666.2" y="403.5" class="st2" width="4.7" height="1.4"/>
		<rect x="666.2" y="407.5" class="st2" width="4.7" height="1.4"/>
		<rect x="666.2" y="411.4" class="st2" width="4.7" height="1.4"/>
		<rect x="666.2" y="415.4" class="st2" width="4.7" height="1.4"/>
		<rect x="666.2" y="419.3" class="st2" width="4.7" height="1.4"/>
		<rect x="674.4" y="403.5" class="st2" width="4.7" height="1.4"/>
		<rect x="674.4" y="407.5" class="st2" width="4.7" height="1.4"/>
		<rect x="674.4" y="411.4" class="st2" width="4.7" height="1.4"/>
		<rect x="674.4" y="415.4" class="st2" width="4.7" height="1.4"/>
		<rect x="674.4" y="419.3" class="st2" width="4.7" height="1.4"/>
		<rect x="666.2" y="424" class="st2" width="4.7" height="1.4"/>
		<rect x="666.2" y="427.9" class="st2" width="4.7" height="1.4"/>
		<rect x="674.4" y="424" class="st2" width="4.7" height="1.4"/>
		<rect x="674.4" y="427.9" class="st2" width="4.7" height="1.4"/>
		<rect x="606.8" y="453.6" class="st2" width="1.5" height="3.5"/>
		<rect x="610.2" y="453.6" class="st2" width="1.5" height="3.5"/>
		<rect x="613.7" y="453.6" class="st2" width="1.5" height="3.5"/>
		<rect x="617.1" y="453.6" class="st2" width="1.5" height="3.5"/>
		<rect x="620.5" y="453.6" class="st2" width="1.5" height="3.5"/>
		<rect x="606.8" y="460.5" class="st2" width="1.5" height="1.7"/>
		<rect x="610.2" y="460.5" class="st2" width="1.5" height="1.7"/>
		<rect x="613.7" y="460.5" class="st2" width="1.5" height="1.7"/>
		<rect x="617.1" y="460.5" class="st2" width="1.5" height="1.7"/>
		<rect x="620.5" y="460.5" class="st2" width="1.5" height="1.7"/>
		<polygon class="st2" points="703.7,456.4 701.7,456.4 701.7,451.5 698.8,448.6 662.7,448.6 662.7,446.7 699.6,446.7 703.7,450.7 
					"/>
		<rect x="715.6" y="401" class="st2" width="6.8" height="2.1"/>
		<rect x="715.6" y="405.8" class="st2" width="6.8" height="2.1"/>
		<rect x="715.6" y="410.6" class="st2" width="6.8" height="2.1"/>
		<rect x="715.6" y="415.3" class="st2" width="6.8" height="2.1"/>
		<rect x="715.6" y="420.1" class="st2" width="6.8" height="2.1"/>
		<rect x="715.6" y="424.9" class="st2" width="6.8" height="2.1"/>
		<rect x="715.6" y="429.7" class="st2" width="6.8" height="2.1"/>
		<rect x="726.4" y="401" class="st2" width="6.8" height="2.1"/>
		<rect x="726.4" y="405.8" class="st2" width="6.8" height="2.1"/>
		<rect x="726.4" y="410.6" class="st2" width="6.8" height="2.1"/>
		<rect x="726.4" y="415.3" class="st2" width="6.8" height="2.1"/>
		<rect x="726.4" y="420.1" class="st2" width="6.8" height="2.1"/>
		<rect x="726.4" y="424.9" class="st2" width="6.8" height="2.1"/>
		<rect x="726.4" y="429.7" class="st2" width="6.8" height="2.1"/>
		<rect x="737.2" y="401" class="st2" width="6.8" height="2.1"/>
		<rect x="737.2" y="405.8" class="st2" width="6.8" height="2.1"/>
		<rect x="737.2" y="410.6" class="st2" width="6.8" height="2.1"/>
		<rect x="737.2" y="415.3" class="st2" width="6.8" height="2.1"/>
		<rect x="737.2" y="420.1" class="st2" width="6.8" height="2.1"/>
		<rect x="737.2" y="424.9" class="st2" width="6.8" height="2.1"/>
		<rect x="737.2" y="429.7" class="st2" width="6.8" height="2.1"/>
		<rect x="748" y="401" class="st2" width="6.8" height="2.1"/>
		<rect x="748" y="405.8" class="st2" width="6.8" height="2.1"/>
		<rect x="748" y="410.6" class="st2" width="6.8" height="2.1"/>
		<rect x="748" y="415.3" class="st2" width="6.8" height="2.1"/>
		<rect x="748" y="420.1" class="st2" width="6.8" height="2.1"/>
		<rect x="748" y="424.9" class="st2" width="6.8" height="2.1"/>
		<rect x="748" y="429.7" class="st2" width="6.8" height="2.1"/>
		<rect x="731.3" y="452" class="st2" width="4.1" height="2.1"/>
		<rect x="731.3" y="456.1" class="st2" width="4.1" height="2.1"/>
		<rect x="738.1" y="452" class="st2" width="4.1" height="2.1"/>
		<rect x="738.1" y="456.1" class="st2" width="4.1" height="2.1"/>
		<rect x="744.8" y="452" class="st2" width="4.1" height="2.1"/>
		<rect x="744.8" y="456.1" class="st2" width="4.1" height="2.1"/>
		<rect x="751.6" y="452" class="st2" width="4.1" height="2.1"/>
		<rect x="751.6" y="456.1" class="st2" width="4.1" height="2.1"/>
		<rect x="761.2" y="452" class="st2" width="4.1" height="2.1"/>
		<rect x="761.2" y="456.1" class="st2" width="4.1" height="2.1"/>
		<rect x="783.5" y="455.1" class="st2" width="22.6" height="1.9"/>
		<rect x="783.5" y="458.9" class="st2" width="22.6" height="1.9"/>
		<rect x="808.5" y="326.9" class="st2" width="1.8" height="3.2"/>
		<rect x="808.5" y="334.4" class="st2" width="1.8" height="3.2"/>
		<rect x="808.5" y="341.9" class="st2" width="1.8" height="3.2"/>
		<rect x="808.5" y="349.4" class="st2" width="1.8" height="3.2"/>
		<rect x="808.5" y="356.9" class="st2" width="1.8" height="3.2"/>
		<rect x="808.5" y="364.4" class="st2" width="1.8" height="3.2"/>
		<rect x="808.5" y="371.8" class="st2" width="1.8" height="3.2"/>
		<rect x="808.5" y="379.3" class="st2" width="1.8" height="3.2"/>
		<rect x="808.5" y="386.8" class="st2" width="1.8" height="3.2"/>
		<rect x="808.5" y="394.3" class="st2" width="1.8" height="3.2"/>
		<rect x="808.5" y="401.8" class="st2" width="1.8" height="3.2"/>
		<rect x="808.5" y="409.3" class="st2" width="1.8" height="3.2"/>
		<rect x="808.5" y="416.7" class="st2" width="1.8" height="3.2"/>
		<rect x="808.5" y="424.2" class="st2" width="1.8" height="3.2"/>
		<rect x="808.5" y="431.7" class="st2" width="1.8" height="3.2"/>
		<rect x="774.8" y="330.4" class="st2" width="28" height="1.9"/>
		<rect x="774.8" y="340.9" class="st2" width="28" height="1.9"/>
		<rect x="774.8" y="351.5" class="st2" width="28" height="1.9"/>
		<rect x="774.8" y="362" class="st2" width="28" height="1.9"/>
		<rect x="774.8" y="372.5" class="st2" width="28" height="1.9"/>
		<rect x="774.8" y="388.3" class="st2" width="28" height="1.9"/>
		<rect x="774.8" y="398.8" class="st2" width="28" height="1.9"/>
		<rect x="774.8" y="409.3" class="st2" width="28" height="1.9"/>
		<rect x="774.8" y="419.8" class="st2" width="28" height="1.9"/>
		<rect x="826.3" y="454.2" class="st2" width="30.7" height="1.9"/>
		<rect x="831.1" y="443.5" class="st2" width="4.3" height="2.1"/>
		
			<rect x="840.9" y="459" transform="matrix(6.123234e-17 -1 1 6.123234e-17 382.1225 1301.7761)" class="st2" width="2.1" height="1.7"/>
		
			<rect x="845.2" y="459" transform="matrix(6.123234e-17 -1 1 6.123234e-17 386.4724 1306.126)" class="st2" width="2.1" height="1.7"/>
		
			<rect x="849.6" y="459" transform="matrix(6.123234e-17 -1 1 6.123234e-17 390.8228 1310.4763)" class="st2" width="2.1" height="1.7"/>
		
			<rect x="853.9" y="459" transform="matrix(6.123234e-17 -1 1 6.123234e-17 395.1727 1314.8263)" class="st2" width="2.1" height="1.7"/>
		<rect x="839.5" y="443.5" class="st2" width="4.3" height="2.1"/>
		<rect x="847.9" y="443.5" class="st2" width="4.3" height="2.1"/>
		<rect x="856.2" y="443.5" class="st2" width="4.3" height="2.1"/>
		<rect x="816.8" y="449.8" class="st2" width="3" height="2"/>
		<rect x="816.8" y="455.1" class="st2" width="3" height="2"/>
		<rect x="816.8" y="460.3" class="st2" width="3" height="2"/>
		<rect x="811.8" y="444.5" class="st2" width="3" height="2"/>
		<rect x="811.8" y="449.8" class="st2" width="3" height="2"/>
		<rect x="811.8" y="455.1" class="st2" width="3" height="2"/>
	</g>
</g>
<path class="st3" d="M677.2,265.6h-0.1c0.1-0.7,0.2-1.1,0.2-1.5c0-2.7-2.2-5-4.9-5c-0.5,0-1,0-1.5,0.2c-1-4-4.6-6.9-8.9-6.9
	c-4.3,0-7.9,2.9-8.9,6.9c-0.5-0.2-1-0.3-1.6-0.3c-1.7,0-3.1,0.8-4,2.1c-1-1.5-2.7-2.5-4.7-2.5c-3.1,0-5.7,2.8-5.7,5.9
	c0,0.3,0,1.2,0.1,1.2h-1.5c-1.7,0-3,1.4-3,3c0,1.6,1.3,3,3,3h41.5c1.7,0,3-1.4,3-3C680.2,267,678.9,265.6,677.2,265.6z"/>
<path class="st3" d="M126.1,179.5h-6.1c0.1-0.7,0.2-1.2,0.2-1.8c0-3.6-2.9-6.6-6.6-6.6c-0.6,0-1.2,0.1-1.7,0.2
	c-0.8-7-6.7-12.5-14-12.5c-7.3,0-13.4,5.6-14,12.8c-0.8-0.3-1.6-0.5-2.5-0.5c-3.6,0-6.6,3-6.6,6.7c0,0.6,0.1,1,0.2,1.8h-4.6
	c-2.2,0-4,1.9-4,4.1c0,2.1,1.8,4.1,4,4.1h55.6c2.2,0,4-1.9,4-4.1C130.2,181.5,128.4,179.5,126.1,179.5z"/>
<path class="st3" d="M278.2,82.6h-4.9c0.1,0,0.2-0.9,0.2-1.3c0-2.9-2.4-5.3-5.3-5.3c-0.5,0-0.9,0.1-1.4,0.2c-0.6-5.7-5.4-10-11.2-10
	c-5.9,0-10.7,4.5-11.2,10.3c-0.6-0.3-1.3-0.4-2-0.4c-2.9,0-5.3,2.3-5.3,5.2c0,0.5,0.1,1.3,0.2,1.3h-3.7c-1.8,0-3.2,1.6-3.2,3.3
	c0,1.7,1.4,3.3,3.2,3.3h44.6c1.8,0,3.2-1.6,3.2-3.3C281.5,84.2,280,82.6,278.2,82.6z"/>
<path class="st3" d="M579.6,130.3h-0.1c0.1-0.7,0.2-1.1,0.2-1.5c0-2.7-2.2-5-4.9-5c-0.5,0-1,0-1.5,0.2c-1-4-4.6-6.9-8.9-6.9
	c-4.3,0-7.9,2.9-8.9,6.9c-0.5-0.2-1-0.3-1.6-0.3c-1.7,0-3.1,0.8-4,2.1c-1-1.5-2.7-2.5-4.7-2.5c-3.1,0-5.7,2.8-5.7,5.9
	c0,0.3,0,1.2,0.1,1.2h-1.5c-1.7,0-3,1.4-3,3s1.3,3,3,3h41.5c1.7,0,3-1.4,3-3S581.2,130.3,579.6,130.3z"/>
</svg>
