<?xml version="1.0" encoding="utf-8"?>
<!-- Generator: Adobe Illustrator 22.0.1, SVG Export Plug-In . SVG Version: 6.00 Build 0)  -->
<svg version="1.1" id="图层_1" xmlns="http://www.w3.org/2000/svg" xmlns:xlink="http://www.w3.org/1999/xlink" x="0px" y="0px"
	 viewBox="0 0 20 20" style="enable-background:new 0 0 20 20;" xml:space="preserve">
<style type="text/css">
	.st0{fill:#999999;}
</style>
<path class="st0" d="M17,13.9l-0.1-0.1c-1-1.5-1.5-3.3-1.5-5.1l0-0.1c0,0,0-0.1,0-0.1l0-0.2c0,0,0-0.1,0-0.1c-0.1-1.6-0.7-3-1.9-4.1
	C12.3,3,10.8,2.4,9.1,2.4C7.5,2.4,6,3,4.8,4.2C3.6,5.3,3,6.7,2.9,8.3c0,0,0,0.1,0,0.1l0,0.2v0l0,0c0,0,0,0,0,0l0,0.1
	c0,1.8-0.5,3.6-1.5,5.1l-0.1,0.1c-0.5,0.8-0.5,1.7-0.1,2.5c0.4,0.8,1.3,1.3,2.2,1.3h11.5c0.9,0,1.8-0.5,2.2-1.3
	C17.5,15.6,17.5,14.7,17,13.9L17,13.9z M16.1,15.8c-0.2,0.4-0.7,0.7-1.2,0.7H3.4c-0.5,0-0.9-0.3-1.2-0.7c-0.2-0.4-0.2-0.9,0-1.3
	l0.1-0.1c1.1-1.7,1.7-3.7,1.7-5.7c0-0.1,0-0.2,0-0.2c0.1-2.7,2.3-4.8,5.1-4.8c2.7,0,5,2.2,5.1,4.8c0,0.1,0,0.1,0,0.2
	c0,2,0.6,4,1.7,5.7l0.1,0.1C16.3,14.9,16.3,15.4,16.1,15.8z M13.1,18.8H5.2c-0.3,0-0.6,0.3-0.6,0.6S4.9,20,5.2,20h7.9
	c0.3,0,0.6-0.3,0.6-0.6S13.4,18.8,13.1,18.8z M9.1,2c0.3,0,0.6-0.3,0.6-0.6V0.6C9.7,0.3,9.5,0,9.1,0C8.8,0,8.6,0.3,8.6,0.6v0.8
	C8.6,1.7,8.8,2,9.1,2z"/>
</svg>
