<?xml version="1.0" encoding="utf-8"?>
<!-- Generator: Adobe Illustrator 22.1.0, SVG Export Plug-In . SVG Version: 6.00 Build 0)  -->
<svg version="1.1" id="图层_1" xmlns="http://www.w3.org/2000/svg" xmlns:xlink="http://www.w3.org/1999/xlink" x="0px" y="0px"
	 viewBox="0 0 200 200" style="enable-background:new 0 0 200 200;" xml:space="preserve">
<style type="text/css">
	.st0{fill:#EDEEEF;}
	.st1{fill:#687082;}
	.st2{fill:#FCD8B6;}
	.st3{fill:#4E9EF8;}
	.st4{fill:#FFFFFF;}
	.st5{fill:#424C4C;}
	.st6{fill:#3B4444;}
	.st7{fill:#38454F;}
	.st8{fill:#546A79;}
</style>
<path class="st0" d="M100,10.8c-49.3,0-89.2,40-89.2,89.2c0,29.2,14.3,56.6,38.3,73.3c4.4-15.5,16.1-27.8,31.4-33l2-0.6l0.3-0.1
	c1.6-0.5,3.1-0.9,4.7-1.2l0.5-0.1c0.9-0.2,1.7-0.3,2.6-0.5l1.8-0.2l0.7-0.1c0.8-0.1,1.6-0.2,2.5-0.2h9c0.8,0,1.6,0.1,2.5,0.2
	l0.7,0.1c0.8,0.1,1.7,0.2,2.5,0.4l1.8,0.3l0.6,0.1c1.6,0.3,3.1,0.7,4.6,1.2l0.6,0.2l1.7,0.6c15.3,5.1,27.1,17.4,31.5,33
	c40.5-28.1,50.5-83.7,22.4-124.2C156.7,25.1,129.3,10.8,100,10.8z"/>
<path class="st1" d="M100,137.2c-22.7,0-41.2-18-42-40.6c-0.9-16.3,7.7-28.8,18.5-36.1l0.2-0.1l1.2-0.8l0.5-0.3
	c6.1-3.9,13.1-5.9,20.4-6h2.7c5.4,0,10.6,1.2,15.5,3.5c3.9,1.7,7.5,4,10.8,6.9c9.7,8.1,15,20.3,14.3,33
	C141.3,119.3,122.7,137.2,100,137.2z"/>
<path class="st2" d="M76.4,60.5l0.2-0.1L76.4,60.5z M101.3,53.2h-2.7H101.3z M93.1,78.2C85,92.4,71.3,104.9,58,96.7
	c0.8,23.2,20.2,41.4,43.4,40.6c22.1-0.7,39.9-18.5,40.6-40.6C130.9,103.6,101.7,93.6,93.1,78.2L93.1,78.2z M77.8,59.6l0.5-0.3
	L77.8,59.6z M116.9,56.8c3.9,1.8,7.5,4.1,10.8,6.9C124.5,60.8,120.8,58.5,116.9,56.8z"/>
<path class="st3" d="M117.2,139.6l0.6,0.2L117.2,139.6z M87.5,138.4l0.5-0.1L87.5,138.4z M82.5,139.7l0.3-0.1L82.5,139.7z
	 M119.4,140.3l0.4,0.1c-0.5,1.3-1.1,2.6-1.8,3.9c3,4.6,2.2,24.6-2.2,21.5l-7.9-5.5l-7.8-5.5l0.5-0.4h-1l0.5,0.4l-7.8,5.5l-7.9,5.5
	c-4.5,3.2-5.3-16.9-2.2-21.5c-0.7-1.2-1.3-2.5-1.8-3.8l0.3-0.1c-15.3,5.1-27.1,17.4-31.4,33c30.6,21.3,71.2,21.3,101.8,0
	C146.5,157.7,134.7,145.4,119.4,140.3L119.4,140.3z M112,138.2l0.6,0.1L112,138.2z M92.4,137.6l0.7-0.1L92.4,137.6z M107,137.5
	l0.7,0.1L107,137.5z"/>
<path class="st2" d="M82,144.2c0.6-0.9,1.4-1.2,2.2-0.6l7.9,5.6l7.3,5.2h1l7.3-5.2l7.9-5.5c0.9-0.6,1.6-0.3,2.2,0.6
	c0.7-1.2,1.4-2.5,1.8-3.9l-0.4-0.1l-1.7-0.6l-0.6-0.2c-1.5-0.5-3.1-0.8-4.6-1.2l-0.6-0.1c-1.4-0.3-2.8-0.5-4.3-0.7l-0.7-0.1
	c-0.8-0.1-1.6-0.2-2.5-0.2h-9c-0.8,0.1-1.6,0.1-2.5,0.2l-0.7,0.1c-1.5,0.2-2.9,0.4-4.4,0.7l-0.5,0.1c-1.6,0.3-3.2,0.7-4.7,1.2
	l-0.3,0.1l-2,0.6l-0.3,0.1C80.7,141.7,81.3,143,82,144.2L82,144.2z"/>
<path class="st4" d="M115.7,143.7l-7.9,5.6l-7.3,5.2l-0.5,0.4l7.8,5.5l7.9,5.5c4.5,3.2,5.2-16.9,2.2-21.5
	C117.4,143.4,116.6,143,115.7,143.7L115.7,143.7z M84.3,143.7c-0.9-0.6-1.6-0.3-2.2,0.6c-3.1,4.6-2.3,24.7,2.2,21.5l7.9-5.5l7.8-5.5
	l-0.5-0.4l-7.3-5.1L84.3,143.7z"/>
<path class="st5" d="M93.1,78.2c8.7,15.3,37.8,25.3,48.9,18.5c0.8-12.7-4.5-24.9-14.3-33c-3.2-2.8-6.9-5.1-10.8-6.9
	c-4.9-2.3-10.2-3.5-15.6-3.5h-1.4C101.4,58.4,98.5,68.6,93.1,78.2L93.1,78.2z"/>
<path class="st6" d="M93.1,78.2c5.4-9.5,8.3-19.7,6.9-24.9h-1.3c-7.2,0.1-14.3,2.2-20.4,6l-0.5,0.3l-1.2,0.8l-0.2,0.1
	C65.6,67.8,57.1,80.4,58,96.6C71.2,104.9,84.9,92.4,93.1,78.2L93.1,78.2z"/>
<path class="st7" d="M95.2,155.4h9.3v9.3h-9.3L95.2,155.4z"/>
<path class="st8" d="M93.6,185.8c4.1,0.6,8.4,0.6,12.5,0l-3.2-21.2h-6.2L93.6,185.8z"/>
</svg>
