<?xml version="1.0" encoding="utf-8"?>
<!-- Generator: Adobe Illustrator 22.0.1, SVG Export Plug-In . SVG Version: 6.00 Build 0)  -->
<svg version="1.1" id="图层_1" xmlns="http://www.w3.org/2000/svg" xmlns:xlink="http://www.w3.org/1999/xlink" x="0px" y="0px"
	 viewBox="0 0 20 20" style="enable-background:new 0 0 20 20;" xml:space="preserve">
<style type="text/css">
	.st0{fill:#999999;}
</style>
<g>
	<path class="st0" d="M15.7,0H3.4C2.2,0,1.2,1,1.2,2.2v15.4c0,1.2,1,2.2,2.2,2.2h12.2c1.2,0,2.2-1,2.2-2.2V2.2C17.9,1,16.9,0,15.7,0
		z M2.4,2.2c0-0.5,0.4-1,1-1h12.2c0.5,0,1,0.4,1,1v15.4c0,0.5-0.4,1-1,1H3.4c-0.5,0-1-0.4-1-1V2.2z"/>
	<path class="st0" d="M6.9,8.3c0.4,0,0.7-0.2,0.7-0.7c0-0.6,0.2-1,0.8-1.3C8.8,6.1,9.2,6,9.7,6c0.5,0,1.3,0.2,1.6,0.6
		c0.3,0.4,0.4,0.6,0.4,0.9c0,0.7-0.6,1.1-1.2,1.5c-0.3,0.2-0.5,0.4-0.7,0.5c-0.5,0.5-0.9,1.1-1,1.4c-0.1,0.3-0.1,0.5-0.1,0.7l0,0.3
		c0,0.3,0.3,0.6,0.7,0.6c0.2,0,0.4-0.1,0.5-0.2c0.1-0.1,0.2-0.3,0.2-0.4h0c0,0,0-0.1,0-0.3l0-0.1c0-0.3,0.1-0.5,0.1-0.6
		c0.1-0.2,0.3-0.4,0.7-0.7c0.8-0.6,1.3-1.1,1.5-1.5C12.8,8.4,13,8,13,7.5c0-1.5-1.5-2.7-3.3-2.7c-0.6,0-1,0-1.7,0.4
		C7,5.6,6.4,6.5,6.3,7.4c0,0.2,0,0.5,0.2,0.7C6.6,8.2,6.8,8.3,6.9,8.3z"/>
	<circle class="st0" cx="9.6" cy="14.3" r="0.9"/>
</g>
</svg>
