<?xml version="1.0" encoding="utf-8"?>
<!-- Generator: Adobe Illustrator 22.1.0, SVG Export Plug-In . SVG Version: 6.00 Build 0)  -->
<svg version="1.1" id="图层_1" xmlns="http://www.w3.org/2000/svg" xmlns:xlink="http://www.w3.org/1999/xlink" x="0px" y="0px"
	 viewBox="0 0 20 20" style="enable-background:new 0 0 20 20;" xml:space="preserve">
<style type="text/css">
	.st0{fill:#999999;}
</style>
<g>
	<path class="st0" d="M16.4,15.5l0-0.1h0c-0.1-0.3-0.3-0.5-0.6-0.5c-0.3,0-0.6,0.3-0.6,0.6v2.6c0,0.2-0.1,0.4-0.4,0.4h-12
		c-0.2,0-0.4-0.1-0.4-0.4V1.7c0-0.2,0.1-0.4,0.4-0.4h12.1c0.2,0,0.4,0.1,0.4,0.4V4c0,0.3,0.3,0.6,0.6,0.6s0.6-0.3,0.6-0.6V1.7
		c0-0.9-0.8-1.6-1.7-1.6h-12c-0.9,0-1.6,0.8-1.6,1.6v16.5c0,0.9,0.8,1.6,1.6,1.6h12.1c0.4,0,0.9-0.2,1.1-0.5
		c0.3-0.3,0.4-0.8,0.4-1.2V15.5z"/>
	<path class="st0" d="M15,14.3c0.2,0,0.3-0.1,0.5-0.2l4.2-4.1l-4.2-4.1l-0.1-0.1l0,0c-0.1-0.1-0.2-0.1-0.3-0.1
		c-0.3,0-0.6,0.3-0.6,0.6c0,0.1,0,0.2,0.1,0.3l0,0l2.7,2.7L7.2,9.4l-0.1,0v0C6.8,9.5,6.6,9.7,6.6,10c0,0.3,0.2,0.6,0.5,0.6v0l10-0.1
		l-2.6,2.6l-0.1,0.1l0,0c-0.1,0.1-0.1,0.2-0.1,0.3C14.4,14,14.6,14.3,15,14.3z"/>
</g>
</svg>
