<?xml version="1.0" encoding="utf-8"?>
<!-- Generator: Adobe Illustrator 22.1.0, SVG Export Plug-In . SVG Version: 6.00 Build 0)  -->
<svg version="1.1" id="图层_1" xmlns="http://www.w3.org/2000/svg" xmlns:xlink="http://www.w3.org/1999/xlink" x="0px" y="0px"
	 viewBox="0 0 140 40" style="enable-background:new 0 0 140 40;" xml:space="preserve">
<style type="text/css">
	.st0{fill:#FFFFFF;}
</style>
<g>
	<g>
		<path class="st0" d="M12.5,8.1c-0.1,4.1-3,7.2-6.9,7.9l0,0c-2,0.3-3.4,2-3.4,4.1c0,2.3,1.9,4.2,4.2,4.2s4.2-1.9,4.2-4.2
			c0-0.2,0-0.4,0-0.5c0.1-3.9,2.9-7,6.6-7.8c2.2-0.2,3.9-2,3.9-4.2c0-2.3-1.9-4.2-4.2-4.2s-4.2,1.9-4.2,4.2L12.5,8.1z"/>
		<path class="st0" d="M48,15.9c-2.3,0-4.2,1.9-4.2,4.2l0,0.5c-0.1,2.9-1.6,5.4-3.9,6.8c0.1,0,0.1-0.1,0.2-0.1
			c-0.7,0.3-1.6,0.5-2.4,0.5c-0.9,0-1.8-0.2-2.6-0.6c-2.2-1.4-3.6-3.8-3.8-6.5c0-0.3,0-0.9,0-1.2c0.1-3.9,2.9-7,6.6-7.8
			c2.2-0.2,3.9-2,3.9-4.2c0-2.3-1.9-4.2-4.2-4.2s-4.2,1.9-4.2,4.2l0,0.5c-0.1,3.9-2.8,7-6.5,7.8c-1.9,0.1-3.5,1.5-3.8,3.4
			c0,0.2-0.1,0.4-0.1,0.6c0,0.1,0,0.1,0,0.2l0,0.5c-0.1,4.1-3,7.2-6.9,7.9c-2,0.3-3.4,2-3.4,4.1c0,2.3,1.9,4.2,4.2,4.2
			c2.3,0,4.2-1.9,4.2-4.2c0-0.2,0-0.4,0-0.5c0.1-2.8,1.6-5.3,3.9-6.7c0.8-0.3,1.6-0.5,2.5-0.5c0.8,0,1.6,0.2,2.3,0.5
			c2.3,1.5,3.7,4,3.8,6.8c-0.1,1.3,0.4,2.6,1.3,3.4c0,0,0,0,0,0c0,0,0,0,0,0c0.7,0.7,1.8,1.2,2.9,1.2c2.3,0,4.2-1.9,4.2-4.2
			c0-0.2,0-0.4,0-0.5c0.1-3.9,2.9-7,6.6-7.8c2.2-0.2,3.9-2,3.9-4.2C52.1,17.8,50.3,15.9,48,15.9z"/>
	</g>
	<g>
		<polygon class="st0" points="70.9,7.5 69.1,7.5 69.1,8.6 65.2,8.6 65.2,10.9 74.9,10.9 74.9,8.6 70.9,8.6 		"/>
		<polygon class="st0" points="73.8,11.7 71.9,11.7 71.9,13.7 68.1,13.7 68.1,11.7 66.3,11.7 66.3,13.7 65.2,13.7 65.2,16 69.1,16 
			69.1,17.5 65.2,17.5 65.2,19.8 69.1,19.8 69.1,25.5 69.1,29.8 70.9,29.8 70.9,26.5 70.9,19.8 74.9,19.8 74.9,17.5 70.9,17.5 
			70.9,16 74.9,16 74.9,13.7 73.8,13.7 		"/>
		<path class="st0" d="M78.7,10.2c0.2-0.2,0.4-0.3,0.7-0.3h5.4V7.5h-5.3c-0.8,0-1.4,0.2-1.8,0.5c-0.8,0.6-1.1,1.5-1.1,2.7v15.1v4
			h1.8v-4.3v-9.8h3.1v14.1h1.8V15.7h1.4v-2.3h-6.4v-2.4C78.4,10.7,78.5,10.4,78.7,10.2z"/>
		<rect x="65.2" y="21.6" class="st0" width="1.5" height="8.3"/>
		<rect x="73.3" y="21.6" class="st0" width="1.5" height="8.3"/>
	</g>
	<g>
		<path class="st0" d="M137.5,10.5v-2h-8.4V7.4h-1.9v1.1h-8.5v2h8.5v1h-8v2h8v1.1h-8.5v2h1.7h0.7L120,18l0,0.1
			c0,0.1-0.3,0.7,0.1,1.3c0.2,0.3,0.5,0.5,1,0.6l-1.6,1.8l0,0.1c-0.1,0.3-0.2,0.8,0.1,1.3c0.3,0.5,0.9,0.7,1.7,0.7h5.9v5.9h1.8v-5.9
			h6.6l0,0c0.4,0,0.8-0.2,1-0.7c0.1-0.3,0.2-0.8-0.2-1.3c-0.3-0.4-0.8-1.1-1.3-1.8c0.3-0.1,0.7-0.3,0.8-0.6c0.1-0.3,0.2-0.8-0.1-1.4
			c-0.2-0.3-0.6-0.9-0.9-1.5h2.6v-2h-8.4v-1.1h8v-2h-8v-1H137.5z M121.3,22.3l1.9-2.1h9.9c0.2,0.3,1,1.4,1.6,2.1H121.3z M132.9,16.6
			c0.4,0.6,0.9,1.4,1.2,1.9h-12.4l1.4-1.9H132.9z"/>
		<rect x="119.4" y="25.2" class="st0" width="1.7" height="4.7"/>
		<rect x="135" y="25.2" class="st0" width="1.7" height="4.7"/>
	</g>
	<g>
		<path class="st0" d="M96.1,18.3h2.5h0.1v3.6c0,0.4-0.1,1.4-0.2,1.5c-0.1,0.2-0.4,0.3-0.7,0.3h-1.7v1.8h2.8c0.4,0,0.9-0.3,1.2-0.7
			c0.3-0.4,0.3-1,0.3-1.7v-4.8h0.1h2.3h0.1v4.8c0,0.7-0.1,1.3,0.3,1.7c0.3,0.4,0.9,0.7,1.3,0.7h2.8v-1.8h-1.7
			c-0.3,0-0.6-0.1-0.7-0.3c-0.1-0.1-0.2-0.4-0.2-0.9v-4.2h0.1h2.5v-2.4H96.1V18.3z"/>
		<rect x="96.2" y="12.4" class="st0" width="11" height="1.9"/>
		<path class="st0" d="M107.8,7.6H95.5c-1.8,0-3.3,1.5-3.3,3.3v15.6c0,1.8,1.5,3.3,3.3,3.3l12.3,0c1.8,0,3.3-1.5,3.3-3.3V10.9
			C111.1,9.1,109.6,7.6,107.8,7.6z M109.1,26.5c0,0.7-0.6,1.3-1.3,1.3l-12.3,0c-0.7,0-1.3-0.6-1.3-1.3V10.9c0-0.7,0.6-1.3,1.3-1.3
			h12.3c0.7,0,1.3,0.6,1.3,1.3V26.5z"/>
	</g>
</g>
</svg>
