<?xml version="1.0" encoding="utf-8"?>
<!-- Generator: Adobe Illustrator 24.0.0, SVG Export Plug-In . SVG Version: 6.00 Build 0)  -->
<svg version="1.1" id="图层_1" xmlns="http://www.w3.org/2000/svg" xmlns:xlink="http://www.w3.org/1999/xlink" x="0px"
     y="0px"
     viewBox="0 0 276 19" style="enable-background:new 0 0 276 19;" xml:space="preserve">
<style type="text/css">
	.st0{fill:#FFFFFF;}
</style>
  <g>
	<path class="st0" d="M6.9,11.3l1.7-8.2H12c0.6,0,1,0.1,1.3,0.2c0.3,0.1,0.5,0.4,0.7,0.7c0.2,0.3,0.3,0.7,0.3,1.1
		c0,0.3-0.1,0.7-0.2,1c-0.1,0.3-0.3,0.6-0.5,0.9c-0.2,0.2-0.4,0.4-0.6,0.5c-0.2,0.1-0.5,0.2-0.7,0.3c-0.5,0.1-1.1,0.2-1.6,0.2H8.7
		L8,11.3H6.9z M8.9,7h1.8c0.7,0,1.2-0.1,1.6-0.2s0.6-0.4,0.8-0.7s0.3-0.6,0.3-1c0-0.3-0.1-0.5-0.2-0.7s-0.3-0.3-0.4-0.4
		C12.5,4,12.2,4,11.6,4H9.5L8.9,7z"/>
    <path class="st0" d="M18.5,10.5c-0.4,0.3-0.7,0.5-1,0.7c-0.3,0.1-0.7,0.2-1,0.2c-0.6,0-1-0.2-1.3-0.5c-0.3-0.3-0.5-0.7-0.5-1.2
		c0-0.3,0.1-0.6,0.2-0.9s0.4-0.5,0.6-0.6C15.7,8,16,7.9,16.3,7.9c0.2,0,0.7-0.1,1.3-0.1c0.6,0,1.1-0.1,1.4-0.2
		c0.1-0.3,0.1-0.5,0.1-0.7c0-0.2-0.1-0.4-0.3-0.6c-0.2-0.2-0.6-0.3-1-0.3c-0.4,0-0.8,0.1-1,0.3c-0.3,0.2-0.5,0.5-0.6,0.8l-1-0.1
		c0.2-0.6,0.5-1,1-1.3c0.5-0.3,1-0.5,1.7-0.5c0.7,0,1.3,0.2,1.8,0.5c0.3,0.3,0.5,0.6,0.5,1c0,0.3,0,0.7-0.1,1.1l-0.3,1.5
		c-0.1,0.5-0.2,0.8-0.2,1.1c0,0.2,0,0.5,0.1,0.8h-1C18.5,11.1,18.5,10.8,18.5,10.5z M18.8,8.3c-0.1,0.1-0.3,0.1-0.5,0.1
		S18,8.5,17.6,8.5c-0.6,0.1-1,0.1-1.3,0.2c-0.2,0.1-0.4,0.2-0.6,0.4c-0.1,0.2-0.2,0.4-0.2,0.6c0,0.3,0.1,0.5,0.3,0.7
		s0.5,0.3,0.8,0.3c0.3,0,0.7-0.1,1-0.3c0.3-0.2,0.6-0.4,0.7-0.7C18.6,9.3,18.7,8.8,18.8,8.3z"/>
    <path class="st0" d="M20.9,11.3l1.2-5.9H23l-0.2,1c0.4-0.4,0.8-0.7,1.1-0.9s0.7-0.3,1.1-0.3c0.5,0,0.9,0.1,1.1,0.4
		c0.3,0.3,0.4,0.6,0.4,1c0,0.2,0,0.6-0.1,1l-0.8,3.6h-1l0.8-3.7c0.1-0.4,0.1-0.6,0.1-0.8c0-0.2-0.1-0.4-0.2-0.5
		C25.2,6.1,25,6,24.7,6c-0.5,0-1,0.2-1.4,0.6c-0.4,0.4-0.7,1-0.9,1.9l-0.6,2.8H20.9z"/>
    <path class="st0" d="M31.3,10.5c-0.4,0.3-0.7,0.5-1,0.7c-0.3,0.1-0.7,0.2-1,0.2c-0.6,0-1-0.2-1.3-0.5c-0.3-0.3-0.5-0.7-0.5-1.2
		c0-0.3,0.1-0.6,0.2-0.9s0.4-0.5,0.6-0.6c0.3-0.2,0.6-0.3,0.9-0.3c0.2,0,0.7-0.1,1.3-0.1c0.6,0,1.1-0.1,1.4-0.2
		c0.1-0.3,0.1-0.5,0.1-0.7c0-0.2-0.1-0.4-0.3-0.6c-0.2-0.2-0.6-0.3-1-0.3c-0.4,0-0.8,0.1-1,0.3c-0.3,0.2-0.5,0.5-0.6,0.8L28,7
		c0.2-0.6,0.5-1,1-1.3c0.5-0.3,1-0.5,1.7-0.5c0.7,0,1.3,0.2,1.8,0.5c0.3,0.3,0.5,0.6,0.5,1c0,0.3,0,0.7-0.1,1.1l-0.3,1.5
		c-0.1,0.5-0.2,0.8-0.2,1.1c0,0.2,0,0.5,0.1,0.8h-1C31.3,11.1,31.3,10.8,31.3,10.5z M31.7,8.3c-0.1,0.1-0.3,0.1-0.5,0.1
		s-0.4,0.1-0.8,0.1c-0.6,0.1-1,0.1-1.3,0.2c-0.2,0.1-0.4,0.2-0.6,0.4c-0.1,0.2-0.2,0.4-0.2,0.6c0,0.3,0.1,0.5,0.3,0.7
		s0.5,0.3,0.8,0.3c0.3,0,0.7-0.1,1-0.3c0.3-0.2,0.6-0.4,0.7-0.7C31.4,9.3,31.6,8.8,31.7,8.3z"/>
    <path class="st0" d="M33.8,9.2l1-0.1c0,0.3,0,0.5,0.1,0.7c0.1,0.2,0.3,0.4,0.5,0.5c0.2,0.1,0.5,0.2,0.8,0.2c0.5,0,0.8-0.1,1-0.3
		c0.2-0.2,0.3-0.4,0.3-0.6c0-0.2-0.1-0.3-0.2-0.5c-0.1-0.2-0.5-0.3-1-0.6c-0.5-0.2-0.9-0.4-1-0.5c-0.3-0.2-0.4-0.3-0.6-0.5
		c-0.1-0.2-0.2-0.4-0.2-0.7c0-0.5,0.2-0.9,0.6-1.2s0.9-0.5,1.6-0.5c0.8,0,1.3,0.2,1.7,0.5s0.6,0.8,0.6,1.4l-1,0.1
		c0-0.4-0.1-0.6-0.4-0.8c-0.2-0.2-0.6-0.3-1-0.3c-0.4,0-0.6,0.1-0.8,0.2c-0.2,0.2-0.3,0.3-0.3,0.5s0.1,0.3,0.3,0.5
		c0.1,0.1,0.4,0.2,0.9,0.4c0.8,0.3,1.3,0.6,1.5,0.8c0.3,0.3,0.5,0.7,0.5,1.1c0,0.3-0.1,0.6-0.3,0.9c-0.2,0.3-0.5,0.5-0.8,0.7
		s-0.8,0.3-1.3,0.3c-0.7,0-1.3-0.2-1.8-0.5C34,10.5,33.7,10,33.8,9.2z"/>
    <path class="st0" d="M39.6,9c0-1.2,0.3-2.1,1-2.9c0.6-0.6,1.3-0.9,2.2-0.9c0.7,0,1.3,0.2,1.7,0.7c0.4,0.4,0.7,1,0.7,1.8
		c0,0.7-0.1,1.3-0.4,1.9c-0.3,0.6-0.7,1-1.2,1.3c-0.5,0.3-1.1,0.5-1.6,0.5c-0.5,0-0.9-0.1-1.3-0.3c-0.4-0.2-0.7-0.5-0.9-0.8
		C39.7,9.9,39.6,9.5,39.6,9z M40.6,8.9c0,0.6,0.1,1,0.4,1.3s0.6,0.4,1,0.4c0.2,0,0.4,0,0.6-0.1c0.2-0.1,0.4-0.2,0.6-0.4
		c0.2-0.2,0.3-0.4,0.5-0.6C43.9,9.2,44,9,44.1,8.7c0.1-0.4,0.2-0.7,0.2-1.1c0-0.5-0.1-0.9-0.4-1.2S43.2,6,42.8,6
		c-0.3,0-0.6,0.1-0.9,0.2c-0.3,0.2-0.5,0.4-0.7,0.7c-0.2,0.3-0.4,0.6-0.5,1C40.7,8.3,40.6,8.6,40.6,8.9z"/>
    <path class="st0" d="M45.8,11.3l1.2-5.9H48l-0.2,1c0.4-0.4,0.8-0.7,1.1-0.9s0.7-0.3,1.1-0.3c0.5,0,0.9,0.1,1.1,0.4
		c0.3,0.3,0.4,0.6,0.4,1c0,0.2,0,0.6-0.1,1l-0.8,3.6h-1l0.8-3.7c0.1-0.4,0.1-0.6,0.1-0.8c0-0.2-0.1-0.4-0.2-0.5
		C50.2,6.1,50,6,49.7,6c-0.5,0-1,0.2-1.4,0.6c-0.4,0.4-0.7,1-0.9,1.9l-0.6,2.8H45.8z"/>
    <path class="st0" d="M52.2,11.3l1.2-5.9h1l-1.2,5.9H52.2z M53.7,4.2l0.2-1.1h1l-0.2,1.1H53.7z"/>
    <path class="st0" d="M58.9,9.1l1,0.1c-0.3,0.7-0.6,1.3-1.1,1.6c-0.5,0.4-1,0.5-1.6,0.5c-0.6,0-1.2-0.2-1.6-0.6
		c-0.4-0.4-0.6-1-0.6-1.7c0-0.6,0.1-1.3,0.4-1.9s0.6-1.1,1.1-1.4s1-0.5,1.7-0.5c0.6,0,1.1,0.2,1.5,0.5c0.4,0.4,0.6,0.8,0.6,1.4
		l-1,0.1c0-0.4-0.1-0.7-0.3-0.9C58.8,6.1,58.5,6,58.1,6c-0.4,0-0.8,0.1-1.1,0.4c-0.3,0.3-0.5,0.6-0.7,1.2s-0.3,1-0.3,1.5
		c0,0.5,0.1,0.9,0.3,1.1c0.2,0.3,0.5,0.4,0.8,0.4s0.6-0.1,0.9-0.4S58.7,9.6,58.9,9.1z"/>
    <path class="st0" d="M67.1,11.3l1.7-8.2h5.4L74,4h-4.3l-0.5,2.6h4.3l-0.2,0.9H69l-0.8,3.7H67.1z"/>
    <path class="st0" d="M78.1,10.2c-0.7,0.8-1.4,1.2-2.2,1.2c-0.5,0-0.8-0.1-1.1-0.4s-0.4-0.6-0.4-1c0-0.2,0.1-0.7,0.2-1.3l0.7-3.4h1
		l-0.8,3.8c-0.1,0.3-0.1,0.6-0.1,0.7c0,0.2,0.1,0.4,0.2,0.5c0.1,0.1,0.3,0.2,0.6,0.2c0.3,0,0.6-0.1,0.8-0.2s0.5-0.3,0.7-0.6
		c0.2-0.2,0.4-0.5,0.5-0.8c0.1-0.2,0.2-0.6,0.3-1.1L79,5.3h1l-1.2,5.9h-0.9L78.1,10.2z"/>
    <path class="st0" d="M80.5,9.2l1-0.1c0,0.3,0,0.5,0.1,0.7c0.1,0.2,0.3,0.4,0.5,0.5c0.2,0.1,0.5,0.2,0.8,0.2c0.5,0,0.8-0.1,1-0.3
		c0.2-0.2,0.3-0.4,0.3-0.6c0-0.2-0.1-0.3-0.2-0.5c-0.1-0.2-0.5-0.3-1-0.6c-0.5-0.2-0.9-0.4-1-0.5c-0.3-0.2-0.4-0.3-0.6-0.5
		c-0.1-0.2-0.2-0.4-0.2-0.7c0-0.5,0.2-0.9,0.6-1.2s0.9-0.5,1.6-0.5c0.8,0,1.3,0.2,1.7,0.5s0.6,0.8,0.6,1.4l-1,0.1
		c0-0.4-0.1-0.6-0.4-0.8c-0.2-0.2-0.6-0.3-1-0.3c-0.4,0-0.6,0.1-0.8,0.2c-0.2,0.2-0.3,0.3-0.3,0.5s0.1,0.3,0.3,0.5
		c0.1,0.1,0.4,0.2,0.9,0.4c0.8,0.3,1.3,0.6,1.5,0.8c0.3,0.3,0.5,0.7,0.5,1.1c0,0.3-0.1,0.6-0.3,0.9c-0.2,0.3-0.5,0.5-0.8,0.7
		s-0.8,0.3-1.3,0.3c-0.7,0-1.3-0.2-1.8-0.5C80.7,10.5,80.5,10,80.5,9.2z"/>
    <path class="st0" d="M86.1,11.3l1.2-5.9h1l-1.2,5.9H86.1z M87.6,4.2l0.2-1.1h1l-0.2,1.1H87.6z"/>
    <path class="st0" d="M88.9,9c0-1.2,0.3-2.1,1-2.9c0.6-0.6,1.3-0.9,2.2-0.9c0.7,0,1.3,0.2,1.7,0.7c0.4,0.4,0.7,1,0.7,1.8
		c0,0.7-0.1,1.3-0.4,1.9s-0.7,1-1.2,1.3s-1.1,0.5-1.6,0.5c-0.5,0-0.9-0.1-1.3-0.3c-0.4-0.2-0.7-0.5-0.9-0.8C89,9.9,88.9,9.5,88.9,9z
		 M89.9,8.9c0,0.6,0.1,1,0.4,1.3s0.6,0.4,1,0.4c0.2,0,0.4,0,0.6-0.1c0.2-0.1,0.4-0.2,0.6-0.4c0.2-0.2,0.3-0.4,0.5-0.6
		c0.1-0.2,0.2-0.5,0.3-0.7c0.1-0.4,0.2-0.7,0.2-1.1c0-0.5-0.1-0.9-0.4-1.2c-0.3-0.3-0.6-0.4-1-0.4c-0.3,0-0.6,0.1-0.9,0.2
		c-0.3,0.2-0.5,0.4-0.7,0.7c-0.2,0.3-0.4,0.6-0.5,1C90,8.3,89.9,8.6,89.9,8.9z"/>
    <path class="st0" d="M95.1,11.3l1.2-5.9h0.9l-0.2,1c0.4-0.4,0.8-0.7,1.1-0.9c0.3-0.2,0.7-0.3,1.1-0.3c0.5,0,0.9,0.1,1.1,0.4
		s0.4,0.6,0.4,1c0,0.2,0,0.6-0.1,1l-0.8,3.6h-1l0.8-3.7c0.1-0.4,0.1-0.6,0.1-0.8c0-0.2-0.1-0.4-0.2-0.5C99.5,6.1,99.3,6,99,6
		c-0.5,0-1,0.2-1.4,0.6c-0.4,0.4-0.7,1-0.9,1.9l-0.6,2.8H95.1z"/>
    <path class="st0" d="M106.9,11.3l4.7-8.2h1.3l1.4,8.2h-1.1l-0.4-2.3h-3.3l-1.3,2.3H106.9z M109.9,8.1h2.7l-0.3-2
		c-0.1-0.8-0.2-1.5-0.2-2c-0.2,0.5-0.5,1-0.8,1.7L109.9,8.1z"/>
    <path class="st0" d="M119.3,9.1l1,0.1c-0.3,0.7-0.6,1.3-1.1,1.6c-0.5,0.4-1,0.5-1.6,0.5c-0.6,0-1.2-0.2-1.6-0.6
		c-0.4-0.4-0.6-1-0.6-1.7c0-0.6,0.1-1.3,0.4-1.9s0.6-1.1,1.1-1.4c0.5-0.3,1-0.5,1.7-0.5c0.6,0,1.1,0.2,1.5,0.5
		c0.4,0.4,0.6,0.8,0.6,1.4l-1,0.1c0-0.4-0.1-0.7-0.3-0.9c-0.2-0.2-0.5-0.3-0.9-0.3c-0.4,0-0.8,0.1-1.1,0.4c-0.3,0.3-0.5,0.6-0.7,1.2
		c-0.2,0.5-0.3,1-0.3,1.5c0,0.5,0.1,0.9,0.3,1.1c0.2,0.3,0.5,0.4,0.8,0.4c0.3,0,0.6-0.1,0.9-0.4S119.1,9.6,119.3,9.1z"/>
    <path class="st0" d="M123.3,10.4l-0.2,0.8c-0.2,0.1-0.5,0.1-0.7,0.1c-0.4,0-0.7-0.1-1-0.3c-0.2-0.1-0.3-0.4-0.3-0.6
		c0-0.1,0-0.4,0.1-0.9l0.7-3.4h-0.8l0.2-0.8h0.8l0.3-1.5l1.2-0.7l-0.5,2.1h1l-0.2,0.8h-1l-0.7,3.3c-0.1,0.4-0.1,0.7-0.1,0.7
		c0,0.1,0,0.2,0.1,0.3c0.1,0.1,0.2,0.1,0.3,0.1C123,10.5,123.2,10.5,123.3,10.4z"/>
    <path class="st0" d="M124.1,11.3l1.2-5.9h1l-1.2,5.9H124.1z M125.6,4.2l0.2-1.1h1l-0.2,1.1H125.6z"/>
    <path class="st0" d="M126.9,9c0-1.2,0.3-2.1,1-2.9c0.6-0.6,1.3-0.9,2.2-0.9c0.7,0,1.3,0.2,1.7,0.7c0.4,0.4,0.7,1,0.7,1.8
		c0,0.7-0.1,1.3-0.4,1.9s-0.7,1-1.2,1.3s-1.1,0.5-1.6,0.5c-0.5,0-0.9-0.1-1.3-0.3c-0.4-0.2-0.7-0.5-0.9-0.8
		C127,9.9,126.9,9.5,126.9,9z M127.9,8.9c0,0.6,0.1,1,0.4,1.3c0.3,0.3,0.6,0.4,1,0.4c0.2,0,0.4,0,0.6-0.1c0.2-0.1,0.4-0.2,0.6-0.4
		c0.2-0.2,0.3-0.4,0.5-0.6c0.1-0.2,0.2-0.5,0.3-0.7c0.1-0.4,0.2-0.7,0.2-1.1c0-0.5-0.1-0.9-0.4-1.2c-0.3-0.3-0.6-0.4-1-0.4
		c-0.3,0-0.6,0.1-0.9,0.2c-0.3,0.2-0.5,0.4-0.7,0.7s-0.4,0.6-0.5,1C128,8.3,127.9,8.6,127.9,8.9z"/>
    <path class="st0" d="M133.3,11.3l1.7-8.2h1.1l1.4,3.1c0.4,0.9,0.8,1.7,1,2.4c0.1,0.4,0.3,0.9,0.5,1.5c0.1-0.7,0.2-1.4,0.4-2.1
		l1-4.8h1.1l-1.7,8.2h-1.1l-2-4.7c-0.4-0.8-0.6-1.6-0.8-2.2c-0.1,0.5-0.2,1.2-0.3,2l-1,5H133.3z"/>
    <path class="st0" d="M147.8,11.3l1.2-5.9h1l-0.2,1c0.4-0.4,0.7-0.7,1-0.9c0.3-0.2,0.6-0.2,1-0.2c0.4,0,0.7,0.1,0.9,0.3
		c0.2,0.2,0.4,0.5,0.5,0.8c0.3-0.4,0.6-0.6,1-0.8c0.3-0.2,0.7-0.3,1.1-0.3c0.5,0,0.9,0.1,1.1,0.4c0.2,0.2,0.4,0.6,0.4,1
		c0,0.2,0,0.5-0.1,0.9l-0.8,3.8h-1l0.8-3.9c0.1-0.3,0.1-0.5,0.1-0.7c0-0.2-0.1-0.3-0.2-0.5c-0.1-0.1-0.3-0.2-0.5-0.2
		c-0.3,0-0.6,0.1-0.9,0.3c-0.3,0.2-0.6,0.4-0.7,0.7c-0.2,0.3-0.3,0.7-0.5,1.4l-0.6,2.9h-1l0.8-4c0.1-0.3,0.1-0.5,0.1-0.6
		c0-0.2-0.1-0.3-0.2-0.5C152,6.1,151.8,6,151.6,6c-0.3,0-0.6,0.1-0.9,0.3c-0.3,0.2-0.6,0.4-0.8,0.8c-0.2,0.3-0.4,0.8-0.5,1.4
		l-0.6,2.8H147.8z"/>
    <path class="st0" d="M161.5,10.5c-0.4,0.3-0.7,0.5-1,0.7s-0.7,0.2-1,0.2c-0.6,0-1-0.2-1.3-0.5c-0.3-0.3-0.5-0.7-0.5-1.2
		c0-0.3,0.1-0.6,0.2-0.9c0.2-0.3,0.4-0.5,0.6-0.6s0.6-0.3,0.9-0.3c0.2,0,0.7-0.1,1.3-0.1s1.1-0.1,1.4-0.2c0.1-0.3,0.1-0.5,0.1-0.7
		c0-0.2-0.1-0.4-0.3-0.6c-0.2-0.2-0.6-0.3-1-0.3c-0.4,0-0.8,0.1-1,0.3c-0.3,0.2-0.5,0.5-0.6,0.8l-1-0.1c0.2-0.6,0.5-1,1-1.3
		c0.5-0.3,1-0.5,1.7-0.5c0.7,0,1.3,0.2,1.8,0.5c0.3,0.3,0.5,0.6,0.5,1c0,0.3,0,0.7-0.1,1.1l-0.3,1.5c-0.1,0.5-0.2,0.8-0.2,1.1
		c0,0.2,0,0.5,0.1,0.8h-1C161.5,11.1,161.5,10.8,161.5,10.5z M161.8,8.3c-0.1,0.1-0.3,0.1-0.5,0.1s-0.4,0.1-0.8,0.1
		c-0.6,0.1-1,0.1-1.3,0.2c-0.2,0.1-0.4,0.2-0.6,0.4c-0.1,0.2-0.2,0.4-0.2,0.6c0,0.3,0.1,0.5,0.3,0.7c0.2,0.2,0.5,0.3,0.8,0.3
		c0.3,0,0.7-0.1,1-0.3s0.6-0.4,0.7-0.7C161.6,9.3,161.7,8.8,161.8,8.3z"/>
    <path class="st0" d="M163.8,11.3l1.2-5.9h0.9l-0.2,1c0.4-0.4,0.8-0.7,1.1-0.9c0.3-0.2,0.7-0.3,1.1-0.3c0.5,0,0.9,0.1,1.1,0.4
		s0.4,0.6,0.4,1c0,0.2,0,0.6-0.1,1l-0.8,3.6h-1l0.8-3.7c0.1-0.4,0.1-0.6,0.1-0.8c0-0.2-0.1-0.4-0.2-0.5C168.2,6.1,168,6,167.7,6
		c-0.5,0-1,0.2-1.4,0.6c-0.4,0.4-0.7,1-0.9,1.9l-0.6,2.8H163.8z"/>
    <path class="st0" d="M174.3,10.5c-0.4,0.3-0.7,0.5-1,0.7s-0.7,0.2-1,0.2c-0.6,0-1-0.2-1.3-0.5c-0.3-0.3-0.5-0.7-0.5-1.2
		c0-0.3,0.1-0.6,0.2-0.9c0.2-0.3,0.4-0.5,0.6-0.6s0.6-0.3,0.9-0.3c0.2,0,0.7-0.1,1.3-0.1s1.1-0.1,1.4-0.2c0.1-0.3,0.1-0.5,0.1-0.7
		c0-0.2-0.1-0.4-0.3-0.6c-0.2-0.2-0.6-0.3-1-0.3c-0.4,0-0.8,0.1-1,0.3c-0.3,0.2-0.5,0.5-0.6,0.8L171,7c0.2-0.6,0.5-1,1-1.3
		c0.5-0.3,1-0.5,1.7-0.5c0.7,0,1.3,0.2,1.8,0.5c0.3,0.3,0.5,0.6,0.5,1c0,0.3,0,0.7-0.1,1.1l-0.3,1.5c-0.1,0.5-0.2,0.8-0.2,1.1
		c0,0.2,0,0.5,0.1,0.8h-1C174.3,11.1,174.3,10.8,174.3,10.5z M174.7,8.3c-0.1,0.1-0.3,0.1-0.5,0.1s-0.4,0.1-0.8,0.1
		c-0.6,0.1-1,0.1-1.3,0.2c-0.2,0.1-0.4,0.2-0.6,0.4c-0.1,0.2-0.2,0.4-0.2,0.6c0,0.3,0.1,0.5,0.3,0.7c0.2,0.2,0.5,0.3,0.8,0.3
		c0.3,0,0.7-0.1,1-0.3s0.6-0.4,0.7-0.7C174.4,9.3,174.6,8.8,174.7,8.3z"/>
    <path class="st0" d="M176.6,11.8l1,0.1c0,0.2,0,0.4,0.1,0.5c0.1,0.1,0.2,0.2,0.3,0.3c0.2,0.1,0.4,0.1,0.7,0.1
		c0.6,0,1.1-0.2,1.3-0.5c0.2-0.2,0.3-0.7,0.5-1.4l0.1-0.5c-0.5,0.5-1.1,0.8-1.7,0.8c-0.6,0-1.1-0.2-1.5-0.7s-0.6-1.1-0.6-1.9
		c0-0.7,0.2-1.3,0.5-1.8c0.3-0.6,0.7-1,1.1-1.3c0.4-0.3,0.9-0.4,1.4-0.4c0.8,0,1.4,0.4,1.8,1.1l0.2-1h0.9l-1.2,5.7
		c-0.1,0.6-0.3,1.1-0.5,1.5s-0.5,0.6-0.9,0.8s-0.8,0.3-1.3,0.3c-0.5,0-0.9-0.1-1.2-0.2s-0.6-0.3-0.8-0.5c-0.2-0.2-0.3-0.5-0.3-0.8
		C176.6,12,176.6,11.9,176.6,11.8z M177.9,8.6c0,0.4,0,0.7,0.1,0.9c0.1,0.3,0.3,0.5,0.5,0.7s0.4,0.2,0.7,0.2c0.3,0,0.7-0.1,1-0.3
		s0.6-0.6,0.8-1.1c0.2-0.5,0.3-0.9,0.3-1.4c0-0.5-0.1-0.9-0.4-1.2c-0.3-0.3-0.6-0.4-1-0.4c-0.2,0-0.5,0.1-0.7,0.2s-0.4,0.3-0.6,0.6
		c-0.2,0.3-0.4,0.6-0.5,1C177.9,8.2,177.9,8.4,177.9,8.6z"/>
    <path class="st0" d="M187.5,9.2l1,0.1c-0.1,0.5-0.5,0.9-1,1.4c-0.5,0.4-1.1,0.7-1.8,0.7c-0.4,0-0.8-0.1-1.2-0.3s-0.7-0.5-0.8-0.9
		c-0.2-0.4-0.3-0.8-0.3-1.3c0-0.6,0.2-1.3,0.5-1.9c0.3-0.6,0.7-1.1,1.2-1.4c0.5-0.3,1-0.4,1.6-0.4c0.7,0,1.3,0.2,1.7,0.7
		s0.6,1,0.6,1.8c0,0.3,0,0.6-0.1,0.9h-4.4c0,0.1,0,0.2,0,0.3c0,0.6,0.1,1,0.4,1.3c0.3,0.3,0.6,0.4,0.9,0.4c0.3,0,0.7-0.1,1-0.3
		C187,10,187.3,9.7,187.5,9.2z M184.5,7.8h3.4c0-0.1,0-0.2,0-0.2c0-0.5-0.1-0.9-0.4-1.2s-0.6-0.4-1-0.4c-0.4,0-0.8,0.1-1.2,0.4
		C184.9,6.7,184.7,7.2,184.5,7.8z"/>
    <path class="st0" d="M189.5,11.3l1.2-5.9h1l-0.2,1c0.4-0.4,0.7-0.7,1-0.9c0.3-0.2,0.6-0.2,1-0.2c0.4,0,0.7,0.1,0.9,0.3
		c0.2,0.2,0.4,0.5,0.5,0.8c0.3-0.4,0.6-0.6,1-0.8c0.3-0.2,0.7-0.3,1.1-0.3c0.5,0,0.9,0.1,1.1,0.4c0.2,0.2,0.4,0.6,0.4,1
		c0,0.2,0,0.5-0.1,0.9l-0.8,3.8h-1l0.8-3.9c0.1-0.3,0.1-0.5,0.1-0.7c0-0.2-0.1-0.3-0.2-0.5c-0.1-0.1-0.3-0.2-0.5-0.2
		c-0.3,0-0.6,0.1-0.9,0.3c-0.3,0.2-0.6,0.4-0.7,0.7c-0.2,0.3-0.3,0.7-0.5,1.4l-0.6,2.9h-1l0.8-4c0.1-0.3,0.1-0.5,0.1-0.6
		c0-0.2-0.1-0.3-0.2-0.5c-0.1-0.1-0.3-0.2-0.5-0.2c-0.3,0-0.6,0.1-0.9,0.3c-0.3,0.2-0.6,0.4-0.8,0.8c-0.2,0.3-0.4,0.8-0.5,1.4
		l-0.6,2.8H189.5z"/>
    <path class="st0" d="M203.5,9.2l1,0.1c-0.1,0.5-0.5,0.9-1,1.4c-0.5,0.4-1.1,0.7-1.8,0.7c-0.4,0-0.8-0.1-1.2-0.3s-0.7-0.5-0.8-0.9
		c-0.2-0.4-0.3-0.8-0.3-1.3c0-0.6,0.2-1.3,0.5-1.9c0.3-0.6,0.7-1.1,1.2-1.4c0.5-0.3,1-0.4,1.6-0.4c0.7,0,1.3,0.2,1.7,0.7
		s0.6,1,0.6,1.8c0,0.3,0,0.6-0.1,0.9h-4.4c0,0.1,0,0.2,0,0.3c0,0.6,0.1,1,0.4,1.3c0.3,0.3,0.6,0.4,0.9,0.4c0.3,0,0.7-0.1,1-0.3
		C203,10,203.3,9.7,203.5,9.2z M200.5,7.8h3.4c0-0.1,0-0.2,0-0.2c0-0.5-0.1-0.9-0.4-1.2s-0.6-0.4-1-0.4c-0.4,0-0.8,0.1-1.2,0.4
		C200.9,6.7,200.7,7.2,200.5,7.8z"/>
    <path class="st0" d="M205.5,11.3l1.2-5.9h0.9l-0.2,1c0.4-0.4,0.8-0.7,1.1-0.9c0.3-0.2,0.7-0.3,1.1-0.3c0.5,0,0.9,0.1,1.1,0.4
		s0.4,0.6,0.4,1c0,0.2,0,0.6-0.1,1l-0.8,3.6h-1l0.8-3.7c0.1-0.4,0.1-0.6,0.1-0.8c0-0.2-0.1-0.4-0.2-0.5c-0.1-0.1-0.3-0.2-0.6-0.2
		c-0.5,0-1,0.2-1.4,0.6c-0.4,0.4-0.7,1-0.9,1.9l-0.6,2.8H205.5z"/>
    <path class="st0" d="M214.3,10.4l-0.2,0.8c-0.2,0.1-0.5,0.1-0.7,0.1c-0.4,0-0.7-0.1-1-0.3c-0.2-0.1-0.3-0.4-0.3-0.6
		c0-0.1,0-0.4,0.1-0.9l0.7-3.4h-0.8l0.2-0.8h0.8l0.3-1.5l1.2-0.7l-0.5,2.1h1L215,6.1h-1l-0.7,3.3c-0.1,0.4-0.1,0.7-0.1,0.7
		c0,0.1,0,0.2,0.1,0.3c0.1,0.1,0.2,0.1,0.3,0.1C213.9,10.5,214.1,10.5,214.3,10.4z"/>
    <path class="st0" d="M221.9,8.6l1.1-0.1l0,0.3c0,0.3,0.1,0.6,0.2,0.9c0.1,0.3,0.4,0.5,0.7,0.6c0.3,0.1,0.7,0.2,1.2,0.2
		c0.7,0,1.2-0.1,1.5-0.4c0.3-0.3,0.5-0.6,0.5-1c0-0.3-0.1-0.5-0.3-0.7c-0.2-0.2-0.7-0.5-1.5-0.8c-0.6-0.3-1.1-0.5-1.3-0.6
		c-0.4-0.2-0.6-0.5-0.8-0.8c-0.2-0.3-0.3-0.6-0.3-1c0-0.4,0.1-0.8,0.3-1.1c0.2-0.3,0.6-0.6,1-0.8s1-0.3,1.5-0.3
		c0.7,0,1.2,0.1,1.7,0.3s0.8,0.5,1,0.9s0.3,0.7,0.3,1.1c0,0,0,0.1,0,0.2l-1.1,0.1c0-0.2,0-0.4-0.1-0.5c-0.1-0.2-0.2-0.4-0.3-0.6
		S227,4.1,226.7,4c-0.3-0.1-0.6-0.1-0.9-0.1c-0.6,0-1.1,0.1-1.4,0.4c-0.3,0.2-0.4,0.5-0.4,0.8c0,0.2,0.1,0.4,0.2,0.5
		c0.1,0.2,0.3,0.3,0.6,0.5c0.2,0.1,0.7,0.3,1.4,0.6c0.6,0.3,1,0.5,1.2,0.6c0.3,0.2,0.5,0.4,0.7,0.7s0.2,0.6,0.2,1
		c0,0.4-0.1,0.8-0.4,1.2c-0.3,0.4-0.6,0.7-1.1,0.9c-0.5,0.2-1,0.3-1.6,0.3c-0.9,0-1.7-0.2-2.3-0.6C222.2,10.4,221.9,9.7,221.9,8.6z"
    />
    <path class="st0" d="M228.8,13.5l0.1-0.9c0.2,0.1,0.4,0.1,0.6,0.1c0.2,0,0.4,0,0.5-0.1c0.2-0.1,0.3-0.4,0.5-0.7l0.3-0.6l-1-5.9h1
		l0.4,3c0.1,0.6,0.2,1.2,0.2,1.8l2.7-4.8h1.1l-3.8,6.7c-0.4,0.7-0.7,1.1-1,1.3c-0.3,0.2-0.6,0.3-1,0.3
		C229.2,13.7,229,13.6,228.8,13.5z"/>
    <path class="st0" d="M235,9.2l1-0.1c0,0.3,0,0.5,0.1,0.7c0.1,0.2,0.3,0.4,0.5,0.5s0.5,0.2,0.8,0.2c0.5,0,0.8-0.1,1-0.3
		c0.2-0.2,0.3-0.4,0.3-0.6c0-0.2-0.1-0.3-0.2-0.5c-0.1-0.2-0.5-0.3-1-0.6c-0.5-0.2-0.9-0.4-1-0.5c-0.3-0.2-0.4-0.3-0.6-0.5
		c-0.1-0.2-0.2-0.4-0.2-0.7c0-0.5,0.2-0.9,0.6-1.2s0.9-0.5,1.6-0.5c0.8,0,1.3,0.2,1.7,0.5c0.4,0.3,0.6,0.8,0.6,1.4l-1,0.1
		c0-0.4-0.1-0.6-0.4-0.8c-0.2-0.2-0.6-0.3-1-0.3c-0.4,0-0.6,0.1-0.8,0.2c-0.2,0.2-0.3,0.3-0.3,0.5s0.1,0.3,0.3,0.5
		c0.1,0.1,0.4,0.2,0.9,0.4c0.8,0.3,1.3,0.6,1.5,0.8c0.3,0.3,0.5,0.7,0.5,1.1c0,0.3-0.1,0.6-0.3,0.9c-0.2,0.3-0.5,0.5-0.8,0.7
		s-0.8,0.3-1.3,0.3c-0.7,0-1.3-0.2-1.8-0.5C235.2,10.5,235,10,235,9.2z"/>
    <path class="st0" d="M243.1,10.4l-0.2,0.8c-0.2,0.1-0.5,0.1-0.7,0.1c-0.4,0-0.7-0.1-1-0.3c-0.2-0.1-0.3-0.4-0.3-0.6
		c0-0.1,0-0.4,0.1-0.9l0.7-3.4H241l0.2-0.8h0.8l0.3-1.5l1.2-0.7L243,5.3h1l-0.2,0.8h-1l-0.7,3.3c-0.1,0.4-0.1,0.7-0.1,0.7
		c0,0.1,0,0.2,0.1,0.3c0.1,0.1,0.2,0.1,0.3,0.1C242.7,10.5,242.9,10.5,243.1,10.4z"/>
    <path class="st0" d="M248.3,9.2l1,0.1c-0.1,0.5-0.5,0.9-1,1.4c-0.5,0.4-1.1,0.7-1.8,0.7c-0.4,0-0.8-0.1-1.2-0.3s-0.7-0.5-0.8-0.9
		c-0.2-0.4-0.3-0.8-0.3-1.3c0-0.6,0.2-1.3,0.5-1.9c0.3-0.6,0.7-1.1,1.2-1.4c0.5-0.3,1-0.4,1.6-0.4c0.7,0,1.3,0.2,1.7,0.7
		s0.6,1,0.6,1.8c0,0.3,0,0.6-0.1,0.9h-4.4c0,0.1,0,0.2,0,0.3c0,0.6,0.1,1,0.4,1.3c0.3,0.3,0.6,0.4,0.9,0.4c0.3,0,0.7-0.1,1-0.3
		C247.8,10,248.1,9.7,248.3,9.2z M245.3,7.8h3.4c0-0.1,0-0.2,0-0.2c0-0.5-0.1-0.9-0.4-1.2s-0.6-0.4-1-0.4c-0.4,0-0.8,0.1-1.2,0.4
		C245.8,6.7,245.5,7.2,245.3,7.8z"/>
    <path class="st0" d="M250.3,11.3l1.2-5.9h1l-0.2,1c0.4-0.4,0.7-0.7,1-0.9c0.3-0.2,0.6-0.2,1-0.2c0.4,0,0.7,0.1,0.9,0.3
		c0.2,0.2,0.4,0.5,0.5,0.8c0.3-0.4,0.6-0.6,1-0.8c0.3-0.2,0.7-0.3,1.1-0.3c0.5,0,0.9,0.1,1.1,0.4c0.2,0.2,0.4,0.6,0.4,1
		c0,0.2,0,0.5-0.1,0.9l-0.8,3.8h-1l0.8-3.9c0.1-0.3,0.1-0.5,0.1-0.7c0-0.2-0.1-0.3-0.2-0.5c-0.1-0.1-0.3-0.2-0.5-0.2
		c-0.3,0-0.6,0.1-0.9,0.3c-0.3,0.2-0.6,0.4-0.7,0.7c-0.2,0.3-0.3,0.7-0.5,1.4l-0.6,2.9h-1l0.8-4c0.1-0.3,0.1-0.5,0.1-0.6
		c0-0.2-0.1-0.3-0.2-0.5c-0.1-0.1-0.3-0.2-0.5-0.2c-0.3,0-0.6,0.1-0.9,0.3c-0.3,0.2-0.6,0.4-0.8,0.8c-0.2,0.3-0.4,0.8-0.5,1.4
		l-0.6,2.8H250.3z"/>
</g>
  <g>
	<rect x="6" y="16" class="st0" width="7" height="1"/>
</g>
  <g>
	<rect x="66" y="16" class="st0" width="7" height="1"/>
</g>
  <g>
	<rect x="107" y="16" class="st0" width="7" height="1"/>
</g>
  <g>
	<rect x="133" y="16" class="st0" width="7" height="1"/>
</g>
  <g>
	<rect x="221" y="16" class="st0" width="7" height="1"/>
</g>
</svg>
