<?xml version="1.0" encoding="utf-8"?>
<!-- Generator: Adobe Illustrator 24.0.0, SVG Export Plug-In . SVG Version: 6.00 Build 0)  -->
<svg version="1.1" id="图层_1" xmlns="http://www.w3.org/2000/svg" xmlns:xlink="http://www.w3.org/1999/xlink" x="0px" y="0px"
	 viewBox="0 0 200 200" style="enable-background:new 0 0 200 200;" xml:space="preserve">
<style type="text/css">
	.st0{fill:#FFFFFF;}
</style>
<path class="st0" d="M8.6,187.3v12h52.7V14L140,40.6v-8L53.3,0l-26,22.7v164.7H8.6z M168,118l-40.7-10.7v21.3l40.7,8V118z
	 M168,180.7l-40.7-3.3v22H168V180.7z M168,150l-40.7-6.7V164l40.7,4V150z M168,85.3l-40.7-14v22l40.7,11.3V85.3z"/>
<path class="st0" d="M81.3,200h34V53.3l65.3,21.3V200H192V68l-87.3-31.3l-23.3,14V200z"/>
</svg>
