<?xml version="1.0" encoding="utf-8"?>
<!-- Generator: Adobe Illustrator 24.0.0, SVG Export Plug-In . SVG Version: 6.00 Build 0)  -->
<svg version="1.1" id="图层_1" xmlns="http://www.w3.org/2000/svg" xmlns:xlink="http://www.w3.org/1999/xlink" x="0px" y="0px"
	 viewBox="0 0 200 200" style="enable-background:new 0 0 200 200;" xml:space="preserve">
<style type="text/css">
	.st0{fill:#FFFFFF;}
</style>
<path class="st0" d="M199.1,160.1c-4,0.8-8.2-0.8-10.4-4.5c-2.1-3.7-1.4-8.1,1.3-11.1c-3.7-3.5-8.3-6.2-13.4-7.7
	c-1.2,3.8-4.9,6.6-9.2,6.6c-4.3,0-7.9-2.8-9.1-6.7c-5.1,1.4-9.7,4.1-13.4,7.6c2.7,3,3.4,7.5,1.2,11.1c-2.2,3.7-6.4,5.3-10.4,4.4
	c-0.6,2.4-1,5-1,7.6s0.3,5.2,0.9,7.6c4-0.8,8.2,0.8,10.4,4.5c2.1,3.7,1.4,8.1-1.3,11.1c3.7,3.5,8.3,6.2,13.4,7.7
	c1.2-3.8,4.9-6.6,9.2-6.6c4.3,0,7.9,2.8,9.1,6.7c5.1-1.4,9.7-4.1,13.4-7.6c-2.7-3-3.4-7.5-1.2-11.1c2.2-3.7,6.4-5.3,10.4-4.4
	c0.6-2.4,1-5,1-7.6C200,165.1,199.7,162.5,199.1,160.1z M167.4,179.9c-6.9,0-12.5-5.6-12.5-12.4c0-6.8,5.7-12.4,12.6-12.3
	c6.9,0,12.5,5.6,12.5,12.4C179.9,174.5,174.3,180,167.4,179.9z M105.9,128.5c-1.3-1.4-2.4-2.8-3.5-4.4c-4.2-1.8-8.4-3.4-12.6-4.8
	c-1-0.3-7-2.4-3.1-14.8h0c0.6-0.6,1.2-1.3,1.8-2c0.8-0.5,1.5-1.1,2.2-1.7c-1-1.6-1.8-3.4-2.4-5.2c-2.4-7.7-0.6-15.3,3.9-20.1
	c1.1-13.4,9.2-24.8,20.7-30.7c-0.3-0.2-0.6-0.3-0.9-0.4c-0.6-0.2-1.2-0.2-1.8-0.2c-0.1-3.4-0.3-5.5-0.3-5.5
	c0-20.1-16.6-36.5-37-36.5H61.8c-20.3,0-37,16.4-37,36.5c0,0-0.2,2.1-0.3,5.5c-0.6,0-1.2,0-1.8,0.2c-4.1,1.2-5.9,7.1-4,13.1
	c1.4,4.4,4.3,7.6,7.3,8.5C28.5,80.2,34.4,96,48,103.6c0.5,0.6,1,1.1,1.5,1.6c3.9,10.1-3.4,13.7-4.9,14.3C24.4,126.8,0,140,0,153v4.9
	c0,17.7,35.4,21.8,67.6,21.8c4.4,0,8.9-0.1,13.3-0.3c-4.1-3.8-6.7-8.8-6.7-15.3v-3.5C74.2,145.4,91.5,134.8,105.9,128.5z"/>
<path class="st0" d="M136.5,135.4c3.4-3.2,7.4-5.8,11.6-7.8c0.1-0.6,0.2-1.1,0.4-1.8h0c0.5-0.5,1-1,1.4-1.5
	c8.9-5.7,12.8-16.5,14.4-26.1c2.2-0.7,4.3-3,5.3-6.1c1.3-4.3,0-8.5-2.9-9.4c-0.4-0.1-0.8,0-1.3,0c0-2.5-0.2-4-0.2-4
	c0-14.4-11.9-26.2-26.5-26.2h-8c-14.6,0-26.5,11.8-26.5,26.2c0,0-0.1,1.6-0.2,4c-0.4,0-0.9-0.1-1.3,0c-2.9,0.9-4.2,5.1-2.9,9.4
	c1,3.1,3.1,5.4,5.3,6.1c1.7,10,5.8,21.1,15.4,26.7c0.4,0.5,0.9,1,1.4,1.5c2.8,7.3-2.4,9.8-3.5,10.2c-14.5,5.2-32,14.6-32,24v3.5
	c0,10.8,18.3,14.5,37.9,15.4c-0.2-0.5-0.5-1-0.6-1.5c-0.9-3.5-1.3-7.1-1.3-10.6c0-3.5,0.5-7,1.4-10.5c1.2-4.7,4.9-8,9.4-8.9
	C131.9,143.5,133.1,138.6,136.5,135.4L136.5,135.4z"/>
</svg>
