<?xml version="1.0" standalone="no"?><!DOCTYPE svg PUBLIC "-//W3C//DTD SVG 1.1//EN"
  "http://www.w3.org/Graphics/SVG/1.1/DTD/svg11.dtd">
<svg t="1592963045199" class="icon" viewBox="0 0 1092 1024" version="1.1" xmlns="http://www.w3.org/2000/svg"
     p-id="12482" width="213.28125" height="200">
  <defs>
    <style type="text/css"></style>
  </defs>
  <path
    d="M709.973333 1013.896533a65.1264 65.1264 0 0 1-64.512-65.467733v-201.386667c0-36.932267 29.764267-65.536 64.512-65.536h316.074667c36.4544 0 64.580267 30.242133 64.580267 65.536v201.386667a65.058133 65.058133 0 0 1-64.580267 65.536H709.973333z m-13.243733-271.906133v219.886933h334.301867l11.605333-11.741866v-208.213334l-11.605333-11.6736h-324.334934l-9.966933 11.741867z m-622.250667 271.906133a65.1264 65.1264 0 0 1-64.580266-65.467733v-201.386667c0-36.932267 29.832533-65.536 64.580266-65.536h316.074667c36.4544 0 64.580267 30.242133 64.580267 65.536v201.386667a65.058133 65.058133 0 0 1-64.580267 65.536h-316.074667zM61.2352 742.058667v219.886933h334.301867l11.605333-11.741867v-208.213333l-11.605333-11.6736H71.133867l-9.898667 11.741867z m330.9568-413.013334a65.1264 65.1264 0 0 1-64.512-65.399466V67.1744c0-36.932267 29.764267-65.536 64.512-65.536h316.074667c36.4544 0 64.580267 30.242133 64.580266 65.536V263.509333a65.058133 65.058133 0 0 1-64.512 65.467734h-316.074666zM379.016533 63.829333v214.903467h332.5952l11.605334-11.741867V63.761067l-11.605334-11.741867H387.2768l-8.260267 11.741867z"
    fill="#ffffff" p-id="12483"></path>
  <path
    d="M842.410667 688.264533V532.138667l-9.966934-8.3968H254.839467l-9.898667 8.3968V684.919467h-47.991467v-146.090667c0-35.2256 28.125867-65.467733 64.512-65.467733h564.360534c34.816 0 64.512 28.535467 64.512 65.536v149.367466h-47.991467z"
    fill="#ffffff" p-id="12484"></path>
  <path d="M519.645867 303.854933h68.266666v179.6096h-68.266666z" fill="#ffffff" p-id="12485"></path>
</svg>
