<?xml version="1.0" standalone="no"?><!DOCTYPE svg PUBLIC "-//W3C//DTD SVG 1.1//EN"
  "http://www.w3.org/Graphics/SVG/1.1/DTD/svg11.dtd">
<svg t="1592962778361" class="icon" viewBox="0 0 1024 1024" version="1.1" xmlns="http://www.w3.org/2000/svg" p-id="8630"
     width="200" height="200">
  <defs>
    <style type="text/css"></style>
  </defs>
  <path
    d="M844.05 170.048h-56.508v56.506h56.507c30.292 0 58.837 11.651 80.39 33.205 21.555 21.554 33.206 50.099 33.206 80.391s-11.651 58.837-33.205 80.39c-21.554 21.555-50.099 33.206-80.39 33.206v-56.507l-85.052 85.051 85.051 85.052v-56.507c93.79 0 170.102-76.313 170.102-170.102-0.582-94.955-76.313-170.685-170.102-170.685z"
    fill="#ffffff" p-id="8631"></path>
  <path
    d="M758.998 198.01a27.962 27.962 0 1 0 55.924 0 27.962 27.962 0 1 0-55.924 0zM24.995 650.645c0 93.79 76.313 170.102 170.102 170.102v56.507l85.051-85.051-85.051-85.051v56.506c-30.292 0-58.837-11.65-80.39-33.205C93.151 708.9 81.5 680.355 81.5 650.063s11.651-58.837 33.205-80.391c21.554-21.554 50.099-33.205 80.391-33.205h56.507V479.96h-56.507c-93.79 0.583-170.102 76.896-170.102 170.685z"
    fill="#ffffff" p-id="8632"></path>
  <path
    d="M223.642 508.505a27.962 27.962 0 1 0 55.924 0 27.962 27.962 0 1 0-55.924 0z m385.06-202.725H438.017c-69.905 0-126.994-57.09-126.994-126.994s57.09-126.994 126.994-126.994h170.685c69.905 0 126.994 57.089 126.994 126.994S679.19 305.78 608.702 305.78zM438.6 110.046c-37.866 0-68.74 30.875-68.74 68.74s30.874 68.74 68.74 68.74h170.685c37.865 0 68.74-30.875 68.74-68.74s-30.875-68.74-68.74-68.74H438.6z m170.102 508.56H438.017c-69.905 0-126.994-57.09-126.994-126.995s57.09-126.994 126.994-126.994h170.685c69.905 0 126.994 57.089 126.994 126.994S679.19 618.605 608.702 618.605zM438.6 422.87c-37.866 0-68.74 30.875-68.74 68.74s30.874 68.74 68.74 68.74h170.685c37.865 0 68.74-30.875 68.74-68.74s-30.875-68.74-68.74-68.74H438.6z m170.102 516.132H438.017c-69.905 0-126.994-57.089-126.994-126.994s57.09-126.994 126.994-126.994h170.685c69.905 0 126.994 57.09 126.994 126.994S679.19 939.003 608.702 939.003zM438.6 743.27c-37.866 0-68.74 30.875-68.74 68.74s30.874 68.74 68.74 68.74h170.685c37.865 0 68.74-30.875 68.74-68.74s-30.875-68.74-68.74-68.74H438.6z"
    fill="#ffffff" p-id="8633"></path>
</svg>
