<?xml version="1.0" encoding="UTF-8" standalone="no"?>
<svg
   xmlns:dc="http://purl.org/dc/elements/1.1/"
   xmlns:cc="http://creativecommons.org/ns#"
   xmlns:rdf="http://www.w3.org/1999/02/22-rdf-syntax-ns#"
   xmlns:svg="http://www.w3.org/2000/svg"
   xmlns="http://www.w3.org/2000/svg"
   xml:space="preserve"
   style="enable-background:new 0 0 1920 1080;"
   viewBox="0 0 1920 1080"
   y="0px"
   x="0px"
   id="图层_1"
   version="1.1"><metadata
   id="metadata907"><rdf:RDF><cc:Work
       rdf:about=""><dc:format>image/svg+xml</dc:format><dc:type
         rdf:resource="http://purl.org/dc/dcmitype/StillImage" /></cc:Work></rdf:RDF></metadata><defs
   id="defs905" />
<style
   id="style2"
   type="text/css">
	.st0{fill:#E8E8E8;}
	.st1{fill:#FFFFFF;}
	.st2{fill:#D6D6D6;}
	.st3{fill:#F2F2F3;}
	.st4{fill:#CDCECE;}
	.st5{fill:#DEDFDF;}
	.st6{fill:#EFEFEF;}
	.st7{fill:#BBBABA;}
	.st8{fill:#999899;}
</style>
<g
   id="g100">
	<g
   id="g6">
		<path
   id="path4"
   d="M1408.2,384.1l0-24.7l311.1-0.3l0,24.7L1408.2,384.1z M1413.2,364.4l0,14.7l301.1-0.3l0-14.7L1413.2,364.4z"
   class="st0" />
	</g>
	<g
   id="g10">
		<path
   id="path8"
   d="M1408.2,610.8l0-24.7l311.1-0.3l0,24.7L1408.2,610.8z M1413.2,591.1l0,14.7l301.1-0.3l0-14.7L1413.2,591.1z"
   class="st0" />
	</g>
	<g
   id="g14">
		<path
   id="path12"
   d="M1454.2,413.2l0-18.6l217.4-0.2l0,18.6L1454.2,413.2z M1459.2,399.5l0,8.6l207.4-0.2l0-8.6L1459.2,399.5z"
   class="st0" />
	</g>
	<g
   id="g18">
		<path
   id="path16"
   d="M1454.2,445l0-18.6l217.4-0.2l0,18.6L1454.2,445z M1459.2,431.4l0,8.6l207.4-0.2l0-8.6L1459.2,431.4z"
   class="st0" />
	</g>
	<g
   id="g28">
		<g
   id="g22">
			<path
   id="path20"
   d="M1477.9,573.3l-0.1-114.4l39.8,0l0.1,114.4L1477.9,573.3z M1482.8,463.9l0.1,104.4l29.8,0l-0.1-104.4     L1482.8,463.9z"
   class="st0" />
		</g>
		<g
   id="g26">
			<path
   id="path24"
   d="M1477.9,573.3l0-25.7l39.8,0l0,25.7L1477.9,573.3z M1482.9,552.6l0,15.7l29.8,0l0-15.7L1482.9,552.6z"
   class="st0" />
		</g>
	</g>
	<g
   id="g38">
		<g
   id="g32">
			<path
   id="path30"
   d="M1547.4,573.3l-0.1-114.4l39.8,0l0.1,114.4L1547.4,573.3z M1552.4,463.9l0.1,104.4l29.8,0l-0.1-104.4     L1552.4,463.9z"
   class="st0" />
		</g>
		<g
   id="g36">
			<path
   id="path34"
   d="M1547.4,573.3l0-25.7l39.8,0l0,25.7L1547.4,573.3z M1552.4,552.6l0,15.7l29.8,0l0-15.7L1552.4,552.6z"
   class="st0" />
		</g>
	</g>
	<g
   id="g48">
		<g
   id="g42">
			<path
   id="path40"
   d="M1616.9,573.3l-0.1-114.4l39.8,0l0.1,114.4L1616.9,573.3z M1621.9,463.9l0.1,104.4l29.8,0l-0.1-104.4     L1621.9,463.9z"
   class="st0" />
		</g>
		<g
   id="g46">
			<path
   id="path44"
   d="M1616.9,573.3l0-25.7l39.8,0l0,25.7L1616.9,573.3z M1621.9,552.6l0,15.7l29.8,0l0-15.7L1621.9,552.6z"
   class="st0" />
		</g>
	</g>
	<g
   id="g52">
		<path
   id="path50"
   d="M1432.9,590.8l-0.1-211.8l261.9-0.2l0.1,211.8L1432.9,590.8z M1437.8,384.1l0.1,201.8l251.9-0.2l-0.1-201.8    L1437.8,384.1z"
   class="st0" />
	</g>
	<g
   id="g62">
		<g
   id="g56">
			<path
   id="path54"
   d="M1477.9,747.9l0-114.4l74.5-0.1l0,114.4L1477.9,747.9z M1482.9,638.5l0,104.4l64.5-0.1l0-104.4L1482.9,638.5     z"
   class="st0" />
		</g>
		<g
   id="g60">
			<path
   id="path58"
   d="M1477.9,747.9l0-25.7l74.5-0.1l0,25.7L1477.9,747.9z M1482.9,727.2l0,15.7l64.5,0l0-15.7L1482.9,727.2z"
   class="st0" />
		</g>
	</g>
	<g
   id="g66">
		<path
   id="path64"
   d="M1582.2,820.2l-0.1-186.7l86.4-0.1l0.1,186.7L1582.2,820.2z M1587.2,638.5l0.1,176.7l76.4-0.1l-0.1-176.7    L1587.2,638.5z"
   class="st0" />
	</g>
	<g
   id="g70">
		<path
   id="path68"
   d="M1614.3,780.4l-0.1-107.1l22.4,0l0.1,107.1L1614.3,780.4z M1619.2,678.3l0.1,97.1l12.4,0l-0.1-97.1    L1619.2,678.3z"
   class="st0" />
	</g>
	<g
   id="g74">
		<path
   id="path72"
   d="M1432.9,820.2l-0.1-211.8l261.9-0.2l0.1,211.8L1432.9,820.2z M1437.8,613.4l0.1,201.8l251.9-0.2l-0.1-201.8    L1437.8,613.4z"
   class="st0" />
	</g>
	<g
   id="g78">
		<rect
   id="rect76"
   height="18.2"
   width="5"
   class="st0"
   y="410.7"
   x="1477.8" />
	</g>
	<g
   id="g82">
		<rect
   id="rect80"
   height="18.2"
   width="5"
   class="st0"
   y="410.7"
   x="1561.3" />
	</g>
	<g
   id="g86">
		<rect
   id="rect84"
   height="18.2"
   width="5"
   class="st0"
   y="410.7"
   x="1636.9" />
	</g>
	<g
   id="g90">
		<rect
   id="rect88"
   height="5"
   width="16.7"
   class="st0"
   y="502.1"
   x="1673.9" />
	</g>
	<g
   id="g94">
		<rect
   id="rect92"
   height="5"
   width="10"
   class="st0"
   y="529.6"
   x="1680.6" />
	</g>
	<g
   id="g98">
		<rect
   id="rect96"
   height="5"
   width="10"
   class="st0"
   y="529.6"
   x="1661.2" />
	</g>
</g>
<g
   id="g212">
	<g
   id="g114">
		<g
   id="g106">
			<path
   id="path102"
   d="M514.4,506.8c0-10.8-8.8-19.6-19.6-19.6c-7.1,0-13.3,3.8-16.8,9.5c-2.2-1.1-4.7-1.8-7.4-1.8     c-8,0-14.7,5.8-15.8,13.4c-1.6-0.9-3.4-1.5-5.4-1.5c-5.9,0-10.7,4.8-10.7,10.7c0,5.9,4.8,10.7,10.7,10.7h65     c5.9,0,10.7-4.8,10.7-10.7C525,511.6,520.3,506.8,514.4,506.8z"
   class="st1" />
			<path
   id="path104"
   d="M514.4,530.6h-65c-7.3,0-13.2-5.9-13.2-13.2c0-7.3,5.9-13.2,13.2-13.2c1.3,0,2.5,0.2,3.7,0.5     c2.5-7.3,9.5-12.4,17.5-12.4c2.2,0,4.4,0.4,6.5,1.2c4.2-5.6,10.6-8.9,17.7-8.9c11.4,0,20.8,8.7,22,19.8c6.1,1.1,10.8,6.5,10.8,13     C527.5,524.7,521.6,530.6,514.4,530.6z M449.4,509.3c-4.5,0-8.2,3.7-8.2,8.2c0,4.5,3.7,8.2,8.2,8.2h65c4.5,0,8.2-3.7,8.2-8.2     c0-4.5-3.7-8.2-8.2-8.2h-2.5v-2.5c0-9.4-7.7-17.1-17.1-17.1c-6,0-11.5,3.1-14.6,8.3l-1.2,2l-2.1-1.1c-1.9-1-4-1.5-6.2-1.5     c-6.6,0-12.4,4.8-13.3,11.3l-0.6,3.7l-3.2-1.9C452.3,509.7,450.8,509.3,449.4,509.3z"
   class="st0" />
		</g>
		<g
   id="g112">
			<path
   id="path108"
   d="M496,498.5c0,0,7-1,9.4,9.1"
   class="st1" />
			<path
   id="path110"
   d="M505.4,510.2c-1.1,0-2.2-0.8-2.4-1.9c-1.8-7.8-6.6-7.2-6.6-7.2c-1.4,0.2-2.6-0.8-2.8-2.1s0.8-2.6,2.1-2.8     c3.2-0.4,9.9,1.3,12.2,11c0.3,1.3-0.5,2.7-1.9,3C505.8,510.1,505.6,510.2,505.4,510.2z"
   class="st0" />
		</g>
	</g>
	<g
   id="g120">
		<path
   id="path116"
   d="M231.5,618.5c0-10.4,8.4-18.8,18.8-18.8c6.8,0,12.8,3.7,16.1,9.1c2.1-1.1,4.5-1.7,7.1-1.7    c7.7,0,14.1,5.6,15.2,12.9c1.5-0.9,3.3-1.4,5.2-1.4c5.7,0,10.3,4.6,10.3,10.3S299.7,639,294,639h-62.5c-5.7,0-10.3-4.6-10.3-10.3    S225.8,618.5,231.5,618.5z"
   class="st1" />
		<path
   id="path118"
   d="M294,641.5h-62.5c-7,0-12.8-5.7-12.8-12.8c0-6.2,4.5-11.4,10.4-12.5c1.1-10.7,10.2-19.1,21.2-19.1    c6.8,0,13,3.1,17,8.5c2-0.7,4.1-1.1,6.2-1.1c7.7,0,14.5,5,16.9,11.9c1.1-0.3,2.3-0.5,3.5-0.5c7,0,12.8,5.7,12.8,12.8    S301.1,641.5,294,641.5z M231.5,621c-4.3,0-7.8,3.5-7.8,7.8s3.5,7.8,7.8,7.8H294c4.3,0,7.8-3.5,7.8-7.8s-3.5-7.8-7.8-7.8    c-1.4,0-2.7,0.4-4,1.1l-3.2,1.9l-0.6-3.7c-0.9-6.1-6.4-10.8-12.7-10.8c-2.1,0-4.1,0.5-6,1.4l-2.1,1.1l-1.2-2c-3-5-8.2-7.9-14-7.9    c-9,0-16.3,7.3-16.3,16.3v2.5H231.5z"
   class="st0" />
	</g>
	<g
   id="g126">
		<polygon
   id="polygon122"
   points="392.5,327.2 385.5,327.2 378.8,344.3 378.8,344.3 378.8,450.1 399.2,450.1 399.2,344.3 399.2,344.3       "
   class="st1" />
		<path
   id="path124"
   d="M399.2,452.6h-20.3c-1.4,0-2.5-1.1-2.5-2.5V344.3c0-0.3,0.1-0.6,0.2-0.9l6.7-17.1c0.4-1,1.3-1.6,2.3-1.6h7    c1,0,2,0.6,2.3,1.6l6.7,17.1c0.1,0.3,0.2,0.6,0.2,0.9v105.8C401.7,451.5,400.5,452.6,399.2,452.6z M381.3,447.6h15.3V344.7    l-5.9-15h-3.6l-5.9,15V447.6z"
   class="st0" />
	</g>
	<g
   id="g132">
		<polygon
   id="polygon128"
   points="399.9,353.3 378.1,353.3 357.5,373.9 357.5,373.9 357.5,501.7 420.5,501.7 420.5,373.9 420.5,373.9       "
   class="st1" />
		<path
   id="path130"
   d="M423,504.2h-68V372.8l22.1-22.1h23.9l22.1,22.1L423,504.2z M360,499.2h58V374.9l-19.1-19.1h-19.7L360,374.9    L360,499.2z"
   class="st0" />
	</g>
	<g
   id="g138">
		<polygon
   id="polygon134"
   points="431,407.5 389,365.5 347,407.5 347,407.5 347,577.9 431,577.9 431,407.5   "
   class="st1" />
		<path
   id="path136"
   d="M433.5,580.4h-89V406.5L389,362l44.5,44.5L433.5,580.4z M349.5,575.4h79V408.5L389,369l-39.5,39.5    L349.5,575.4z"
   class="st0" />
	</g>
	<g
   id="g144">
		<polygon
   id="polygon140"
   points="447,446.7 389,388.7 331,446.7 331,446.7 331,682 447,682 447,446.7   "
   class="st1" />
		<path
   id="path142"
   d="M449.5,684.5h-121V445.6l60.5-60.5l60.5,60.5L449.5,684.5z M333.5,679.5h111V447.7L389,392.2l-55.5,55.5    L333.5,679.5z"
   class="st0" />
	</g>
	<g
   id="g150">
		<polygon
   id="polygon146"
   points="496.9,545 389,437.2 281.1,545 281.1,540.3 281.1,812.4 496.9,817.2 496.9,545   "
   class="st1" />
		<path
   id="path148"
   d="M499.4,819.8l-220.8-4.9V540.3v0v0l3.8,0L389,433.6L499.4,544L499.4,819.8z M283.6,810l210.8,4.7V546.1    L389,440.7L283.6,546.1V810z"
   class="st0" />
	</g>
	<g
   id="g156">
		<polygon
   id="polygon152"
   points="467,495.2 389,417.2 311,495.2 311,495.2 311,811.7 467,811.7 467,495.2   "
   class="st1" />
		<path
   id="path154"
   d="M469.5,814.2h-161V492.7h1.5l79-79l80.5,80.5L469.5,814.2z M313.5,809.2h151V496.2L389,420.7l-75.5,75.5    V809.2z"
   class="st0" />
	</g>
	<g
   id="g162">
		<polygon
   id="polygon158"
   points="421,516.1 389,484.1 357,516.1 357,516.1 357,811.7 421,811.7 421,516.1   "
   class="st1" />
		<path
   id="path160"
   d="M423.5,814.2h-69V515l34.5-34.5l34.5,34.5L423.5,814.2z M359.5,809.2h59V517.1L389,487.6l-29.5,29.5    L359.5,809.2z"
   class="st0" />
	</g>
	<g
   id="g168">
		<polygon
   id="polygon164"
   points="421,635.6 389,603.6 357,635.6 357,635.6 357,811.7 421,811.7 421,635.6   "
   class="st1" />
		<path
   id="path166"
   d="M423.5,814.2h-69V634.6l34.5-34.5l34.5,34.5L423.5,814.2z M359.5,809.2h59V636.7L389,607.2l-29.5,29.5    L359.5,809.2z"
   class="st0" />
	</g>
	<g
   id="g172">
		<path
   id="path170"
   d="M389,329.7c-1.4,0-2.5-1.1-2.5-2.5v-38c0-1.4,1.1-2.5,2.5-2.5s2.5,1.1,2.5,2.5v38    C391.5,328.6,390.4,329.7,389,329.7z"
   class="st0" />
	</g>
	<g
   id="g176">
		<rect
   id="rect174"
   height="5"
   width="17"
   class="st0"
   y="685.7"
   x="359.8" />
	</g>
	<g
   id="g180">
		<rect
   id="rect178"
   height="5"
   width="9.8"
   class="st0"
   y="685.7"
   x="384.9" />
	</g>
	<g
   id="g184">
		<rect
   id="rect182"
   height="5"
   width="13.4"
   class="st0"
   y="707.2"
   x="359.8" />
	</g>
	<g
   id="g188">
		<rect
   id="rect186"
   height="5"
   width="7.7"
   class="st0"
   y="707.2"
   x="379.6" />
	</g>
	<g
   id="g192">
		<rect
   id="rect190"
   height="5"
   width="9.6"
   class="st0"
   y="723.2"
   x="369.9" />
	</g>
	<g
   id="g196">
		<rect
   id="rect194"
   height="5"
   width="5.6"
   class="st0"
   y="723.2"
   x="359.8" />
	</g>
	<g
   id="g210">
		<g
   id="g202">
			<path
   id="path198"
   d="M368,387.7c0-12.3-10-22.3-22.3-22.3c-8.1,0-15.2,4.3-19.1,10.8c-2.5-1.3-5.4-2-8.4-2     c-9.1,0-16.7,6.6-18,15.2c-1.8-1.1-3.9-1.7-6.2-1.7c-6.7,0-12.2,5.4-12.2,12.2c0,6.7,5.4,12.2,12.2,12.2h74     c6.7,0,12.2-5.4,12.2-12.2C380.2,393.1,374.7,387.7,368,387.7z"
   class="st1" />
			<path
   id="path200"
   d="M368,414.5h-74c-8.1,0-14.7-6.6-14.7-14.7c0-8.1,6.6-14.7,14.7-14.7c1.5,0,3,0.2,4.5,0.7     c2.7-8.3,10.7-14.2,19.7-14.2c2.6,0,5.1,0.5,7.5,1.4c4.7-6.4,12-10.2,20-10.2c12.9,0,23.6,9.9,24.7,22.5     c6.9,1.1,12.3,7.2,12.3,14.5C382.7,407.9,376.1,414.5,368,414.5z M294,390.2c-5.3,0-9.7,4.3-9.7,9.7c0,5.3,4.3,9.7,9.7,9.7h74     c5.3,0,9.7-4.3,9.7-9.7c0-5.3-4.3-9.7-9.7-9.7h-2.5v-2.5c0-10.9-8.9-19.8-19.8-19.8c-7,0-13.3,3.6-17,9.6l-1.2,2l-2.1-1.1     c-2.3-1.2-4.7-1.8-7.3-1.8c-7.7,0-14.4,5.6-15.5,13.1l-0.6,3.7l-3.2-1.9C297.4,390.6,295.7,390.2,294,390.2z"
   class="st0" />
		</g>
		<g
   id="g208">
			<path
   id="path204"
   d="M347.1,378.2c0,0,8-1.1,10.7,10.4"
   class="st1" />
			<path
   id="path206"
   d="M357.8,391.2c-1.1,0-2.2-0.8-2.4-1.9c-2.2-9.2-7.8-8.5-7.9-8.5c-1.4,0.2-2.6-0.8-2.8-2.1     c-0.2-1.4,0.8-2.6,2.1-2.8c3.5-0.5,10.9,1.4,13.5,12.3c0.3,1.3-0.5,2.7-1.9,3C358.2,391.1,358,391.2,357.8,391.2z"
   class="st0" />
		</g>
	</g>
</g>
<g
   id="g290">
	<g
   id="g216">
		<path
   id="path214"
   d="M650.8,738.7h-69.1V181.4h69.1V738.7z M586.7,733.7h59.1V186.4h-59.1V733.7z"
   class="st0" />
	</g>
	<g
   id="g220">
		
			<rect
   id="rect218"
   height="89.1"
   width="3"
   class="st0"
   transform="matrix(0.7104 -0.7038 0.7038 0.7104 -17.8136 514.5002)"
   y="234.3"
   x="614.7" />
	</g>
	<g
   id="g224">
		
			<rect
   id="rect222"
   height="3"
   width="89.1"
   class="st0"
   transform="matrix(0.7038 -0.7104 0.7104 0.7038 -15.6176 520.3275)"
   y="277.4"
   x="571.7" />
	</g>
	<g
   id="g228">
		
			<rect
   id="rect226"
   height="89.1"
   width="3"
   class="st0"
   transform="matrix(0.7104 -0.7038 0.7038 0.7104 26.7434 496.1642)"
   y="171"
   x="614.7" />
	</g>
	<g
   id="g232">
		
			<rect
   id="rect230"
   height="3"
   width="89.1"
   class="st0"
   transform="matrix(0.7038 -0.7104 0.7104 0.7038 29.3515 501.5793)"
   y="214.1"
   x="571.7" />
	</g>
	<g
   id="g236">
		
			<rect
   id="rect234"
   height="89.1"
   width="3"
   class="st0"
   transform="matrix(0.7104 -0.7038 0.7038 0.7104 -62.3706 532.8364)"
   y="297.6"
   x="614.7" />
	</g>
	<g
   id="g240">
		
			<rect
   id="rect238"
   height="3"
   width="89.1"
   class="st0"
   transform="matrix(0.7038 -0.7104 0.7104 0.7038 -60.5867 539.0757)"
   y="340.7"
   x="571.7" />
	</g>
	<g
   id="g244">
		
			<rect
   id="rect242"
   height="89.1"
   width="3"
   class="st0"
   transform="matrix(0.7104 -0.7038 0.7038 0.7104 -106.9276 551.1725)"
   y="360.9"
   x="614.7" />
	</g>
	<g
   id="g248">
		
			<rect
   id="rect246"
   height="3"
   width="89.1"
   class="st0"
   transform="matrix(0.7038 -0.7104 0.7104 0.7038 -105.5559 557.8239)"
   y="404"
   x="571.7" />
	</g>
	<g
   id="g252">
		
			<rect
   id="rect250"
   height="89.1"
   width="3"
   class="st0"
   transform="matrix(0.7104 -0.7038 0.7038 0.7104 -151.4846 569.5085)"
   y="424.3"
   x="614.7" />
	</g>
	<g
   id="g256">
		
			<rect
   id="rect254"
   height="3"
   width="89.1"
   class="st0"
   transform="matrix(0.7038 -0.7104 0.7104 0.7038 -150.525 576.5721)"
   y="467.3"
   x="571.7" />
	</g>
	<g
   id="g260">
		
			<rect
   id="rect258"
   height="89.1"
   width="3"
   class="st0"
   transform="matrix(0.7104 -0.7038 0.7038 0.7104 -196.0421 587.8416)"
   y="487.6"
   x="614.7" />
	</g>
	<g
   id="g264">
		
			<rect
   id="rect262"
   height="3"
   width="89.1"
   class="st0"
   transform="matrix(0.7038 -0.7104 0.7104 0.7038 -195.4943 595.3204)"
   y="530.6"
   x="571.7" />
	</g>
	<g
   id="g268">
		
			<rect
   id="rect266"
   height="89.1"
   width="3"
   class="st0"
   transform="matrix(0.7104 -0.7038 0.7038 0.7104 -240.5988 606.1841)"
   y="550.9"
   x="614.7" />
	</g>
	<g
   id="g272">
		
			<rect
   id="rect270"
   height="3"
   width="89.1"
   class="st0"
   transform="matrix(0.7038 -0.7104 0.7104 0.7038 -240.4635 614.0687)"
   y="593.9"
   x="571.7" />
	</g>
	<g
   id="g276">
		
			<rect
   id="rect274"
   height="89.1"
   width="3"
   class="st0"
   transform="matrix(0.7104 -0.7038 0.7038 0.7104 -285.1556 624.5203)"
   y="614.2"
   x="614.7" />
	</g>
	<g
   id="g280">
		
			<rect
   id="rect278"
   height="3"
   width="89.1"
   class="st0"
   transform="matrix(0.7038 -0.7104 0.7104 0.7038 -285.4323 632.8168)"
   y="657.2"
   x="571.7" />
	</g>
	<g
   id="g284">
		
			<rect
   id="rect282"
   height="89.1"
   width="3"
   class="st0"
   transform="matrix(0.7104 -0.7038 0.7038 0.7104 -329.7115 642.8489)"
   y="677.5"
   x="614.7" />
	</g>
	<g
   id="g288">
		
			<rect
   id="rect286"
   height="3"
   width="89.1"
   class="st0"
   transform="matrix(0.7038 -0.7104 0.7104 0.7038 -330.4007 651.5647)"
   y="720.5"
   x="571.7" />
	</g>
</g>
<g
   id="g406">
	<g
   id="g296">
		<rect
   id="rect292"
   height="552.3"
   width="21.2"
   class="st1"
   y="183.9"
   x="647.6" />
		<path
   id="path294"
   d="M671.3,738.7h-26.2V181.4h26.2V738.7z M650.1,733.7h16.2V186.4h-16.2V733.7z"
   class="st0" />
	</g>
	<g
   id="g302">
		<line
   id="line298"
   y2="310.5"
   x2="668.5"
   y1="247.2"
   x1="647.8"
   class="st1" />
		
			<rect
   id="rect300"
   height="66.6"
   width="5"
   class="st0"
   transform="matrix(0.9503 -0.3112 0.3112 0.9503 -54.11 218.6714)"
   y="245.6"
   x="655.7" />
	</g>
	<g
   id="g308">
		<line
   id="line304"
   y2="310.5"
   x2="647.8"
   y1="247.2"
   x1="668.5"
   class="st1" />
		
			<rect
   id="rect306"
   height="5"
   width="66.6"
   class="st0"
   transform="matrix(0.3111 -0.9504 0.9504 0.3111 188.3439 817.6262)"
   y="276.4"
   x="624.9" />
	</g>
	<g
   id="g314">
		<line
   id="line310"
   y2="247.2"
   x2="668.5"
   y1="183.9"
   x1="647.8"
   class="st1" />
		
			<rect
   id="rect312"
   height="66.6"
   width="5"
   class="st0"
   transform="matrix(0.9503 -0.3112 0.3112 0.9503 -34.4094 215.528)"
   y="182.3"
   x="655.7" />
	</g>
	<g
   id="g320">
		<line
   id="line316"
   y2="247.2"
   x2="647.8"
   y1="183.9"
   x1="668.5"
   class="st1" />
		
			<rect
   id="rect318"
   height="5"
   width="66.6"
   class="st0"
   transform="matrix(0.3111 -0.9504 0.9504 0.3111 248.5072 774.0169)"
   y="213.1"
   x="624.9" />
	</g>
	<g
   id="g326">
		<line
   id="line322"
   y2="373.9"
   x2="668.5"
   y1="310.5"
   x1="647.8"
   class="st1" />
		
			<rect
   id="rect324"
   height="66.6"
   width="5"
   class="st0"
   transform="matrix(0.9503 -0.3112 0.3112 0.9503 -73.8107 221.8149)"
   y="308.9"
   x="655.7" />
	</g>
	<g
   id="g332">
		<line
   id="line328"
   y2="373.9"
   x2="647.8"
   y1="310.5"
   x1="668.5"
   class="st1" />
		
			<rect
   id="rect330"
   height="5"
   width="66.6"
   class="st0"
   transform="matrix(0.3111 -0.9504 0.9504 0.3111 128.1806 861.2355)"
   y="339.7"
   x="624.9" />
	</g>
	<g
   id="g338">
		<line
   id="line334"
   y2="437.2"
   x2="668.5"
   y1="373.9"
   x1="647.8"
   class="st1" />
		
			<rect
   id="rect336"
   height="66.6"
   width="5"
   class="st0"
   transform="matrix(0.9503 -0.3112 0.3112 0.9503 -93.5113 224.9584)"
   y="372.2"
   x="655.7" />
	</g>
	<g
   id="g344">
		<line
   id="line340"
   y2="437.2"
   x2="647.8"
   y1="373.9"
   x1="668.5"
   class="st1" />
		
			<rect
   id="rect342"
   height="5"
   width="66.6"
   class="st0"
   transform="matrix(0.3111 -0.9504 0.9504 0.3111 68.0174 904.8448)"
   y="403"
   x="624.9" />
	</g>
	<g
   id="g350">
		<line
   id="line346"
   y2="500.5"
   x2="668.5"
   y1="437.2"
   x1="647.8"
   class="st1" />
		
			<rect
   id="rect348"
   height="66.6"
   width="5"
   class="st0"
   transform="matrix(0.9503 -0.3112 0.3112 0.9503 -113.2119 228.1018)"
   y="435.5"
   x="655.7" />
	</g>
	<g
   id="g356">
		<line
   id="line352"
   y2="500.5"
   x2="647.8"
   y1="437.2"
   x1="668.5"
   class="st1" />
		
			<rect
   id="rect354"
   height="5"
   width="66.6"
   class="st0"
   transform="matrix(0.3111 -0.9504 0.9504 0.3111 7.8541 948.4542)"
   y="466.3"
   x="624.9" />
	</g>
	<g
   id="g362">
		<line
   id="line358"
   y2="563.8"
   x2="668.5"
   y1="500.5"
   x1="647.8"
   class="st1" />
		
			<rect
   id="rect360"
   height="66.6"
   width="5"
   class="st0"
   transform="matrix(0.9503 -0.3112 0.3112 0.9503 -132.9112 231.2417)"
   y="498.8"
   x="655.7" />
	</g>
	<g
   id="g368">
		<line
   id="line364"
   y2="563.8"
   x2="647.8"
   y1="500.5"
   x1="668.5"
   class="st1" />
		
			<rect
   id="rect366"
   height="5"
   width="66.6"
   class="st0"
   transform="matrix(0.3113 -0.9503 0.9503 0.3113 -52.3947 991.9318)"
   y="529.6"
   x="624.9" />
	</g>
	<g
   id="g374">
		<line
   id="line370"
   y2="627.1"
   x2="668.5"
   y1="563.8"
   x1="647.8"
   class="st1" />
		
			<rect
   id="rect372"
   height="66.6"
   width="5"
   class="st0"
   transform="matrix(0.9503 -0.3112 0.3112 0.9503 -152.614 234.3906)"
   y="562.1"
   x="655.7" />
	</g>
	<g
   id="g380">
		<line
   id="line376"
   y2="627.1"
   x2="647.8"
   y1="563.8"
   x1="668.5"
   class="st1" />
		
			<rect
   id="rect378"
   height="5"
   width="66.6"
   class="st0"
   transform="matrix(0.3113 -0.9503 0.9503 0.3113 -112.5543 1035.5299)"
   y="592.9"
   x="624.9" />
	</g>
	<g
   id="g386">
		<line
   id="line382"
   y2="690.4"
   x2="668.5"
   y1="627.1"
   x1="647.8"
   class="st1" />
		
			<rect
   id="rect384"
   height="66.6"
   width="5"
   class="st0"
   transform="matrix(0.9503 -0.3112 0.3112 0.9503 -172.3146 237.5341)"
   y="625.4"
   x="655.7" />
	</g>
	<g
   id="g392">
		<line
   id="line388"
   y2="690.4"
   x2="647.8"
   y1="627.1"
   x1="668.5"
   class="st1" />
		
			<rect
   id="rect390"
   height="5"
   width="66.6"
   class="st0"
   transform="matrix(0.3113 -0.9503 0.9503 0.3113 -172.7135 1079.1277)"
   y="656.2"
   x="624.9" />
	</g>
	<g
   id="g398">
		<line
   id="line394"
   y2="753.7"
   x2="668.5"
   y1="690.4"
   x1="647.8"
   class="st1" />
		
			<rect
   id="rect396"
   height="66.6"
   width="5"
   class="st0"
   transform="matrix(0.9503 -0.3112 0.3112 0.9503 -192.0129 240.6737)"
   y="688.7"
   x="655.7" />
	</g>
	<g
   id="g404">
		<line
   id="line400"
   y2="753.7"
   x2="647.8"
   y1="690.4"
   x1="668.5"
   class="st1" />
		
			<rect
   id="rect402"
   height="5"
   width="66.6"
   class="st0"
   transform="matrix(0.3113 -0.9503 0.9503 0.3113 -232.8722 1122.7252)"
   y="719.5"
   x="624.9" />
	</g>
</g>
<g
   id="g410">
	<rect
   id="rect408"
   height="88.4"
   width="167.9"
   class="st2"
   y="722"
   x="534.1" />
</g>
<g
   id="g414">
	<rect
   id="rect412"
   height="13.3"
   width="1619.2"
   class="st2"
   y="810.5"
   x="146.2" />
</g>
<g
   id="g524">
	<g
   id="g514">
		<g
   id="g480">
			<g
   id="g418">
				
					<rect
   id="rect416"
   height="3"
   width="89.9"
   class="st0"
   transform="matrix(0.7165 -0.6976 0.6976 0.7165 14.3511 417.1377)"
   y="189.4"
   x="475.4" />
			</g>
			<g
   id="g422">
				
					<rect
   id="rect420"
   height="89.9"
   width="3"
   class="st0"
   transform="matrix(0.6975 -0.7166 0.7166 0.6975 20.5988 430.6243)"
   y="145.9"
   x="518.9" />
			</g>
			<g
   id="g426">
				
					<rect
   id="rect424"
   height="3"
   width="89.9"
   class="st0"
   transform="matrix(0.7165 -0.6976 0.6976 0.7165 32.6205 462.0902)"
   y="189.4"
   x="539.8" />
			</g>
			<g
   id="g430">
				
					<rect
   id="rect428"
   height="89.9"
   width="3"
   class="st0"
   transform="matrix(0.6975 -0.7166 0.7166 0.6975 40.0922 476.8027)"
   y="145.9"
   x="583.3" />
			</g>
			<g
   id="g434">
				
					<rect
   id="rect432"
   height="3"
   width="89.9"
   class="st0"
   transform="matrix(0.7165 -0.6976 0.6976 0.7165 50.8899 507.0429)"
   y="189.4"
   x="604.3" />
			</g>
			<g
   id="g438">
				
					<rect
   id="rect436"
   height="89.9"
   width="3"
   class="st0"
   transform="matrix(0.6975 -0.7166 0.7166 0.6975 59.5827 522.9752)"
   y="145.9"
   x="647.7" />
			</g>
			<g
   id="g442">
				
					<rect
   id="rect440"
   height="3"
   width="89.9"
   class="st0"
   transform="matrix(0.7165 -0.6976 0.6976 0.7165 69.1593 551.9956)"
   y="189.4"
   x="668.7" />
			</g>
			<g
   id="g446">
				
					<rect
   id="rect444"
   height="89.9"
   width="3"
   class="st0"
   transform="matrix(0.6975 -0.7166 0.7166 0.6975 79.0772 569.1547)"
   y="145.9"
   x="712.2" />
			</g>
			<g
   id="g450">
				
					<rect
   id="rect448"
   height="3"
   width="89.9"
   class="st0"
   transform="matrix(0.7165 -0.6976 0.6976 0.7165 87.4288 596.948)"
   y="189.4"
   x="733.2" />
			</g>
			<g
   id="g454">
				
					<rect
   id="rect452"
   height="89.9"
   width="3"
   class="st0"
   transform="matrix(0.6975 -0.7166 0.7166 0.6975 98.5658 615.3243)"
   y="145.9"
   x="776.6" />
			</g>
			<g
   id="g458">
				
					<rect
   id="rect456"
   height="3"
   width="89.9"
   class="st0"
   transform="matrix(0.7165 -0.6976 0.6976 0.7165 105.6981 641.9005)"
   y="189.4"
   x="797.6" />
			</g>
			<g
   id="g462">
				
					<rect
   id="rect460"
   height="89.9"
   width="3"
   class="st0"
   transform="matrix(0.6975 -0.7166 0.7166 0.6975 118.0608 661.5043)"
   y="145.9"
   x="841.1" />
			</g>
			<g
   id="g466">
				
					<rect
   id="rect464"
   height="3"
   width="89.9"
   class="st0"
   transform="matrix(0.7165 -0.6976 0.6976 0.7165 123.9673 686.8527)"
   y="189.4"
   x="862" />
			</g>
			<g
   id="g470">
				
					<rect
   id="rect468"
   height="89.9"
   width="3"
   class="st0"
   transform="matrix(0.6975 -0.7166 0.7166 0.6975 137.5524 707.6787)"
   y="145.9"
   x="905.5" />
			</g>
			<g
   id="g474">
				
					<rect
   id="rect472"
   height="3"
   width="89.9"
   class="st0"
   transform="matrix(0.7165 -0.6976 0.6976 0.7165 142.2366 731.8051)"
   y="189.4"
   x="926.5" />
			</g>
			<g
   id="g478">
				
					<rect
   id="rect476"
   height="89.9"
   width="3"
   class="st0"
   transform="matrix(0.6975 -0.7166 0.7166 0.6975 157.0484 753.8595)"
   y="145.9"
   x="969.9" />
			</g>
		</g>
		<g
   id="g484">
			
				<rect
   id="rect482"
   height="3"
   width="89.9"
   class="st0"
   transform="matrix(0.7166 -0.6974 0.6974 0.7166 160.3691 776.5534)"
   y="189.4"
   x="990.9" />
		</g>
		<g
   id="g488">
			
				<rect
   id="rect486"
   height="89.9"
   width="3"
   class="st0"
   transform="matrix(0.6975 -0.7166 0.7166 0.6975 176.5265 800.0151)"
   y="146"
   x="1034.4" />
		</g>
		<g
   id="g492">
			
				<rect
   id="rect490"
   height="3"
   width="89.9"
   class="st0"
   transform="matrix(0.7166 -0.6974 0.6974 0.7166 178.6279 821.4951)"
   y="189.4"
   x="1055.4" />
		</g>
		<g
   id="g496">
			
				<rect
   id="rect494"
   height="89.9"
   width="3"
   class="st0"
   transform="matrix(0.6975 -0.7166 0.7166 0.6975 196.0275 846.2029)"
   y="145.9"
   x="1098.8" />
		</g>
		<g
   id="g500">
			
				<rect
   id="rect498"
   height="3"
   width="89.9"
   class="st0"
   transform="matrix(0.7166 -0.6974 0.6974 0.7166 196.8869 866.4372)"
   y="189.4"
   x="1119.8" />
		</g>
		<g
   id="g504">
			
				<rect
   id="rect502"
   height="89.9"
   width="3"
   class="st0"
   transform="matrix(0.6975 -0.7166 0.7166 0.6975 215.5141 892.3708)"
   y="145.9"
   x="1163.3" />
		</g>
		<g
   id="g508">
			
				<rect
   id="rect506"
   height="3"
   width="89.9"
   class="st0"
   transform="matrix(0.7166 -0.6974 0.6974 0.7166 215.1458 911.3789)"
   y="189.4"
   x="1184.2" />
		</g>
		<g
   id="g512">
			
				<rect
   id="rect510"
   height="89.9"
   width="3"
   class="st0"
   transform="matrix(0.6975 -0.7166 0.7166 0.6975 235.0086 938.5491)"
   y="145.9"
   x="1227.7" />
		</g>
	</g>
	<g
   id="g518">
		<rect
   id="rect516"
   height="5"
   width="773.8"
   class="st0"
   y="157.1"
   x="488.1" />
	</g>
	<g
   id="g522">
		<rect
   id="rect520"
   height="5"
   width="773.8"
   class="st0"
   y="220.5"
   x="488.1" />
	</g>
</g>
<g
   id="g530">
	<path
   id="path526"
   d="M671.5,215.8c0,10.5-8.5,18.9-18.9,18.9h-59.7c-10.5,0-18.9-8.5-18.9-18.9v-59.7c0-10.5,8.5-18.9,18.9-18.9   h59.7c10.5,0,18.9,8.5,18.9,18.9V215.8z"
   class="st1" />
	<path
   id="path528"
   d="M652.5,237.2h-59.7c-11.8,0-21.4-9.6-21.4-21.4v-59.7c0-11.8,9.6-21.4,21.4-21.4h59.7   c11.8,0,21.4,9.6,21.4,21.4v59.7C674,227.6,664.4,237.2,652.5,237.2z M592.8,139.7c-9.1,0-16.4,7.4-16.4,16.4v59.7   c0,9.1,7.4,16.4,16.4,16.4h59.7c9.1,0,16.4-7.4,16.4-16.4v-59.7c0-9.1-7.4-16.4-16.4-16.4H592.8z"
   class="st0" />
</g>
<g
   id="g536">
	<path
   id="path532"
   d="M613.6,139.3c0-14.9,12-26.9,26.9-26.9c9.8,0,18.3,5.2,23,13c3-1.6,6.5-2.4,10.1-2.4c11,0,20.1,8,21.7,18.4   c2.2-1.3,4.7-2.1,7.5-2.1c8.1,0,14.6,6.6,14.6,14.6c0,8.1-6.6,14.6-14.6,14.6h-89.2c-8.1,0-14.6-6.6-14.6-14.6   C598.9,145.8,605.5,139.3,613.6,139.3z"
   class="st1" />
	<path
   id="path534"
   d="M702.8,171.1h-89.2c-9.5,0-17.1-7.7-17.1-17.1c0-8.6,6.4-15.8,14.7-17c1.2-15.1,13.9-27.1,29.3-27.1   c9.6,0,18.4,4.6,23.9,12.4c2.9-1.2,6-1.8,9.2-1.8c10.9,0,20.4,7.2,23.4,17.3c1.8-0.7,3.8-1,5.7-1c9.5,0,17.1,7.7,17.1,17.1   S712.2,171.1,702.8,171.1z M613.6,141.8c-6.7,0-12.1,5.4-12.1,12.1c0,6.7,5.4,12.1,12.1,12.1h89.2c6.7,0,12.1-5.4,12.1-12.1   c0-6.7-5.4-12.1-12.1-12.1c-2.2,0-4.3,0.6-6.2,1.7l-3.2,1.9l-0.6-3.7c-1.4-9.3-9.7-16.2-19.2-16.2c-3.2,0-6.2,0.7-9,2.2l-2.1,1.1   l-1.2-2c-4.5-7.4-12.3-11.8-20.9-11.8c-13.4,0-24.4,10.9-24.4,24.4v2.5H613.6z"
   class="st0" />
</g>
<g
   id="g540">
	<path
   id="path538"
   d="M1408.9,694.3h-389.3c-4.8,0-10.9,1.6-13.7,3.6L906,769.6l-11,7.9c-2.8,2-1.1,3.6,3.7,3.6h181.3   c0,0-11.7,6.9-28,12.8c-8,2.8-17.3,5.4-27.1,6.9c12.7,0,20.4,0,25,0c3.8,0,5.6,0,6.4,0c0.7,0,0.7,0,0.7,0c1.9,0,27,0,50,0   c-17.6-4.6-0.3-19.7-0.3-19.7h181.3c4.8,0,10.9-1.6,13.7-3.6l11-7.9l99.9-71.7C1415.3,696,1413.7,694.3,1408.9,694.3z"
   class="st2" />
</g>
<g
   id="g544">
	<path
   id="path542"
   d="M745.9,694.3v29.2c0,7.4,5,13.4,11.2,13.4h501c6.2,0,11.2-6,11.2-13.4v-29.2H745.9z"
   class="st3" />
</g>
<g
   id="g554">
	<g
   id="g548">
		<path
   id="path546"
   d="M1024.8,736.9h-28.7h-1h-4.8c0,0-4.8,55.8-35.7,72.8c29.6,0,38,0,40.4,0c1,0,1,0,1,0c2.4,0,34.7,0,64.4,0    C1029.6,792.7,1024.8,736.9,1024.8,736.9z"
   class="st4" />
	</g>
	<g
   id="g552">
		<path
   id="path550"
   d="M954.7,809.7c0,0,23,0,32.2,0c9.2,0,2.6-62.4,37.9-72.8c-23.2,0-34.4,0-34.4,0S984.5,794.9,954.7,809.7z"
   class="st5" />
	</g>
</g>
<g
   id="g558">
	<path
   id="path556"
   d="M1016.2,715.6c0,4.5-3.8,8.1-8.6,8.1c-4.7,0-8.6-3.6-8.6-8.1c0-4.5,3.8-8.1,8.6-8.1   C1012.3,707.5,1016.2,711.1,1016.2,715.6z"
   class="st4" />
</g>
<g
   id="g564">
	<path
   id="path560"
   d="M1319.6,344.5c-1.5,0-3,0.2-4.4,0.5c-1.7-13.9-13.5-24.7-27.9-24.7c-14.1,0-25.8,10.4-27.8,23.9   c-1.5-0.4-3.1-0.6-4.8-0.6c-10.7,0-19.4,8.7-19.4,19.4c0,10.5,8.4,19.1,18.8,19.4v0h64v-0.1c0.5,0,1,0.1,1.4,0.1   c10.5,0,19-8.5,19-19C1338.6,353,1330.1,344.5,1319.6,344.5z"
   class="st1" />
	<path
   id="path562"
   d="M1319.6,385c-0.3,0-0.5,0-0.8,0l-0.7,0h-66.5v-0.2c-10.7-1.5-18.8-10.6-18.8-21.7c0-12.1,9.8-21.9,21.9-21.9   c0.9,0,1.9,0.1,2.8,0.2c3.3-13.6,15.6-23.5,29.8-23.5c14.6,0,27,10.3,30,24.3c0.8-0.1,1.6-0.1,2.4-0.1c11.9,0,21.5,9.6,21.5,21.5   S1331.4,385,1319.6,385z M1315.6,379.8l2.7,0.1c0.4,0,0.8,0.1,1.2,0.1c9.1,0,16.5-7.4,16.5-16.5s-7.4-16.5-16.5-16.5   c-1.3,0-2.6,0.2-3.8,0.5l-2.7,0.6l-0.3-2.8c-1.6-12.8-12.5-22.5-25.4-22.5c-12.6,0-23.5,9.4-25.3,21.8l-0.4,2.7l-2.7-0.7   c-1.4-0.3-2.7-0.5-4.1-0.5c-9.3,0-16.9,7.6-16.9,16.9c0,9.2,7.2,16.7,16.4,16.9l0.5,0h61V379.8z"
   class="st0" />
</g>
<g
   id="g568">
	<path
   id="path566"
   d="M197.2,220.4c-1.4,0-2.8,0.2-4.1,0.5c-1.6-12.9-12.5-22.9-25.9-22.9c-13.1,0-23.9,9.6-25.8,22.1   c-1.4-0.4-2.9-0.5-4.4-0.5c-10,0-18,8.1-18,18c0,9.8,7.8,17.7,17.5,18v0h59.3v-0.1c0.4,0,0.9,0.1,1.3,0.1c9.7,0,17.6-7.9,17.6-17.6   C214.8,228.3,206.9,220.4,197.2,220.4z"
   class="st2" />
</g>
<g
   id="g588">
	<g
   id="g574">
		<polygon
   id="polygon570"
   points="1064.9,412.9 1016.6,364.1 1016.4,364.2 1016.3,364.1 968,412.9 970.3,415.4 1016.4,368.8     1062.6,415.4   "
   class="st1" />
		<polygon
   id="polygon572"
   points="970.3,418.9 964.5,412.9 1016.4,360.5 1016.5,360.6 1016.5,360.5 1068.4,412.9 1062.6,418.9     1016.4,372.3   "
   class="st0" />
	</g>
	<g
   id="g580">
		<line
   id="line576"
   y2="368.5"
   x2="1016.4"
   y1="251.1"
   x1="1016.4"
   class="st1" />
		<rect
   id="rect578"
   height="117.4"
   width="5"
   class="st0"
   y="251.1"
   x="1013.9" />
	</g>
	<g
   id="g586">
		<path
   id="path582"
   d="M988,223.8c1,15.3,13.3,27.3,28.4,27.3c15.1,0,27.4-12.1,28.4-27.3H988z"
   class="st1" />
		<path
   id="path584"
   d="M1016.4,253.6c-16.3,0-29.9-13-30.9-29.7l-0.2-2.7h62.2l-0.2,2.7C1046.3,240.6,1032.7,253.6,1016.4,253.6z     M990.8,226.3c2.1,12.7,12.9,22.3,25.6,22.3s23.6-9.6,25.6-22.3H990.8z"
   class="st0" />
	</g>
</g>
<g
   id="g602">
	<g
   id="g594">
		<path
   id="path590"
   d="M772.6,158c0-19.6-15.9-35.5-35.5-35.5c-12.9,0-24.2,6.9-30.4,17.2c-4-2-8.5-3.2-13.4-3.2    c-14.5,0-26.6,10.5-28.7,24.3c-2.9-1.7-6.2-2.7-9.9-2.7c-10.7,0-19.3,8.7-19.3,19.3c0,10.7,8.7,19.3,19.3,19.3h117.8    c10.7,0,19.3-8.7,19.3-19.3C791.9,166.6,783.3,158,772.6,158z"
   class="st1" />
		<path
   id="path592"
   d="M772.6,199.2H654.8c-12,0-21.8-9.8-21.8-21.8c0-12,9.8-21.8,21.8-21.8c2.8,0,5.5,0.5,8.1,1.6    c3.6-13.4,16.1-23.1,30.4-23.1c4.3,0,8.5,0.9,12.5,2.5c7.1-10.4,18.7-16.5,31.3-16.5c20.2,0,36.7,15.8,37.9,35.7    c10.9,1.2,19.4,10.5,19.4,21.7C794.4,189.4,784.6,199.2,772.6,199.2z M654.8,160.5c-9.3,0-16.8,7.6-16.8,16.8s7.6,16.8,16.8,16.8    h117.8c9.3,0,16.8-7.6,16.8-16.8s-7.6-16.8-16.8-16.8h-2.5V158c0-18.2-14.8-33-33-33c-11.6,0-22.2,6-28.2,16l-1.2,2l-2.1-1.1    c-3.8-2-7.9-3-12.2-3c-13,0-24.3,9.5-26.2,22.1l-0.6,3.7l-3.2-1.9C660.8,161.3,657.8,160.5,654.8,160.5z"
   class="st0" />
	</g>
	<g
   id="g600">
		<path
   id="path596"
   d="M739.3,143c0,0,12.7-1.8,17,16.6"
   class="st1" />
		<path
   id="path598"
   d="M753.9,160.1c-3.8-15.9-14.1-14.7-14.2-14.7l-0.7-5c0.1,0,15-1.9,19.8,18.5L753.9,160.1z"
   class="st0" />
	</g>
</g>
<g
   id="g616">
	<g
   id="g608">
		<path
   id="path604"
   d="M1422,370c0-19.6-15.9-35.5-35.5-35.5c-12.9,0-24.2,6.9-30.4,17.2c-4-2-8.5-3.2-13.4-3.2    c-14.5,0-26.6,10.5-28.7,24.3c-2.9-1.7-6.2-2.7-9.9-2.7c-10.7,0-19.3,8.7-19.3,19.3c0,10.7,8.7,19.3,19.3,19.3H1422    c10.7,0,19.3-8.7,19.3-19.3C1441.3,378.7,1432.7,370,1422,370z"
   class="st1" />
		<path
   id="path606"
   d="M1422,411.2h-117.8c-12,0-21.8-9.8-21.8-21.8c0-12,9.8-21.8,21.8-21.8c2.8,0,5.5,0.5,8.1,1.6    c3.6-13.4,16.1-23.1,30.4-23.1c4.3,0,8.5,0.9,12.5,2.5c7.1-10.4,18.7-16.5,31.3-16.5c20.2,0,36.7,15.8,37.9,35.7    c10.9,1.2,19.4,10.5,19.4,21.7C1443.8,401.4,1434,411.2,1422,411.2z M1304.2,372.5c-9.3,0-16.8,7.6-16.8,16.8s7.6,16.8,16.8,16.8    H1422c9.3,0,16.8-7.6,16.8-16.8s-7.6-16.8-16.8-16.8h-2.5V370c0-18.2-14.8-33-33-33c-11.6,0-22.2,6-28.2,16l-1.2,2l-2.1-1.1    c-3.8-2-7.9-3-12.2-3c-13,0-24.3,9.5-26.2,22.1l-0.6,3.7l-3.2-1.9C1310.2,373.3,1307.2,372.5,1304.2,372.5z"
   class="st0" />
	</g>
	<g
   id="g614">
		<path
   id="path610"
   d="M1388.8,355.1c0,0,12.7-1.8,17,16.6"
   class="st1" />
		<path
   id="path612"
   d="M1403.3,372.2c-3.7-15.7-13.8-14.7-14.2-14.7l-0.7-5c0.2,0,15-1.9,19.8,18.5L1403.3,372.2z"
   class="st0" />
	</g>
</g>
<g
   id="g622">
	<path
   id="path618"
   d="M638.3,122.4c0,0-8.7-2.1-12.3,11.6"
   class="st1" />
	<path
   id="path620"
   d="M628.4,134.7l-4.8-1.3c4.2-15.8,15.2-13.4,15.3-13.4l-1.1,4.9C637.1,124.8,631.3,123.9,628.4,134.7z"
   class="st0" />
</g>
<g
   id="g628">
	<path
   id="path624"
   d="M1286.9,334.6c0,0-8.7-2.1-12.3,11.6"
   class="st1" />
	<path
   id="path626"
   d="M1277,346.8l-4.8-1.3c4.3-15.8,15.2-13.4,15.3-13.4l-1.1,4.9C1285.7,336.9,1279.9,336.1,1277,346.8z"
   class="st0" />
</g>
<g
   id="g642">
	<g
   id="g634">
		<path
   id="path630"
   d="M1624.6,250.3c-1.2,0-2.3,0.1-3.4,0.4c-1.3-10.8-10.5-19.2-21.6-19.2c-10.9,0-20,8-21.6,18.5    c-1.2-0.3-2.4-0.5-3.7-0.5c-8.3,0-15.1,6.8-15.1,15.1c0,8.2,6.5,14.8,14.6,15.1v0h49.7v0c0.4,0,0.7,0,1.1,0    c8.1,0,14.7-6.6,14.7-14.7C1639.4,256.9,1632.8,250.3,1624.6,250.3z"
   class="st1" />
		<path
   id="path632"
   d="M1624.6,282.3c-0.2,0-0.4,0-0.6,0l-0.6,0h-52.2V282c-8.4-1.4-14.6-8.6-14.6-17.3c0-9.7,7.9-17.6,17.6-17.6    c0.6,0,1.2,0,1.7,0.1c2.8-10.5,12.5-18.2,23.5-18.2c11.4,0,21.2,7.9,23.7,18.8c0.5,0,0.9-0.1,1.4-0.1c9.5,0,17.2,7.7,17.2,17.2    c0,9-7,16.5-15.9,17.2v0l-0.2,0C1625.4,282.3,1625,282.3,1624.6,282.3z M1621,277.1l2.7,0.2c0.3,0,0.6,0,0.9,0    c6.8,0,12.2-5.5,12.2-12.2c0-6.8-5.5-12.2-12.2-12.2c-0.9,0-1.9,0.1-2.8,0.3l-2.7,0.6l-0.3-2.8c-1.2-9.7-9.4-17-19.2-17    c-9.5,0-17.7,7.1-19.1,16.4l-0.4,2.7l-2.7-0.7c-1-0.3-2-0.4-3.1-0.4c-6.9,0-12.6,5.6-12.6,12.6c0,6.8,5.4,12.4,12.2,12.6l0.4,0    h46.7V277.1z"
   class="st0" />
	</g>
	<g
   id="g640">
		<path
   id="path636"
   d="M1599.3,255.8c0,0-6.7-1.6-9.6,9"
   class="st1" />
		<path
   id="path638"
   d="M1592.1,265.4l-4.8-1.3c2.7-10.2,9.4-11.5,12.6-10.8l-0.6,2.4l-0.5,2.4    C1598.3,258.1,1594.2,257.6,1592.1,265.4z"
   class="st0" />
	</g>
</g>
<g
   id="g646">
	<rect
   id="rect644"
   height="17"
   width="1460.7"
   class="st2"
   y="960.1"
   x="221.3" />
</g>
<g
   id="g656">
	<g
   id="g650">
		<path
   id="path648"
   d="M299.1,729c0.5-2,0.9-4,0.9-6.2c0.1-10.1-5.9-18.7-14.4-22c-0.4-13.8-11.8-24.9-26-25    c-14.5-0.1-26.4,11.3-26.5,25.6c0,0.1,0,0.1,0,0.2c-10,1.3-17.8,10.2-17.9,21.1c0,4.1,1,8,2.9,11.3c-6,4.3-9.9,11.2-9.9,19.1    c-0.1,13.3,10.7,24.1,24.2,24.2c3.2,0,6.3-0.6,9.1-1.6c4.4,4.4,10.4,7.1,17.1,7.2c8.4,0.1,15.9-4,20.3-10.4    c2.3,0.8,4.8,1.2,7.4,1.2c13.5,0.1,24.5-10.5,24.6-23.8C311.1,741,306.3,733.2,299.1,729z"
   class="st2" />
	</g>
	<g
   id="g654">
		<rect
   id="rect652"
   height="44.5"
   width="6.3"
   class="st2"
   y="765.1"
   x="256.4" />
	</g>
</g>
<g
   id="g666">
	<g
   id="g660">
		<path
   id="path658"
   d="M1756,740c0.5-2,0.9-4,0.9-6.2c0.1-10.1-5.9-18.7-14.4-22c-0.4-13.8-11.8-24.9-26-25    c-14.5-0.1-26.4,11.3-26.5,25.6c0,0.1,0,0.1,0,0.2c-10,1.3-17.8,10.2-17.9,21.1c0,4.1,1,8,2.9,11.3c-6,4.3-9.9,11.2-9.9,19.1    c-0.1,13.3,10.7,24.1,24.2,24.2c3.2,0,6.3-0.6,9.1-1.6c4.4,4.4,10.4,7.1,17.1,7.2c8.4,0.1,15.9-4,20.3-10.4    c2.3,0.8,4.8,1.2,7.4,1.2c13.5,0.1,24.5-10.5,24.6-23.8C1768.1,752,1763.2,744.2,1756,740z"
   class="st2" />
	</g>
	<g
   id="g664">
		<rect
   id="rect662"
   height="44.5"
   width="6.3"
   class="st2"
   y="776.1"
   x="1713.4" />
	</g>
</g>
<g
   id="g676">
	<g
   id="g670">
		<path
   id="path668"
   d="M1634.7,896.3c0.5-1.8,0.8-3.6,0.8-5.6c0.1-9-5.3-16.8-12.9-19.7c-0.4-12.4-10.6-22.3-23.3-22.5    c-13-0.1-23.7,10.2-23.8,23c0,0.1,0,0.1,0,0.2c-8.9,1.1-15.9,9.2-16,19c0,3.7,0.9,7.1,2.6,10.1c-5.3,3.9-8.9,10.1-8.9,17.1    c-0.1,11.9,9.6,21.6,21.7,21.7c2.9,0,5.6-0.5,8.1-1.5c3.9,3.9,9.4,6.4,15.4,6.4c7.6,0.1,14.3-3.6,18.2-9.3    c2.1,0.7,4.3,1.1,6.7,1.1c12.1,0.1,22-9.4,22.1-21.3C1645.5,907.1,1641.2,900.1,1634.7,896.3z"
   class="st2" />
	</g>
	<g
   id="g674">
		<rect
   id="rect672"
   height="39.9"
   width="5.7"
   class="st2"
   y="928.7"
   x="1596.5" />
	</g>
</g>
<g
   id="g708">
	<g
   id="g682">
		<line
   id="line678"
   y2="190.9"
   x2="1347.6"
   y1="190.9"
   x1="1282.6"
   class="st1" />
		<rect
   id="rect680"
   height="5"
   width="65"
   class="st0"
   y="188.4"
   x="1282.6" />
	</g>
	<g
   id="g688">
		<line
   id="line684"
   y2="190.9"
   x2="1376.8"
   y1="190.9"
   x1="1363.1"
   class="st1" />
		<rect
   id="rect686"
   height="5"
   width="13.7"
   class="st0"
   y="188.4"
   x="1363.1" />
	</g>
	<g
   id="g694">
		<line
   id="line690"
   y2="190.9"
   x2="1463"
   y1="190.9"
   x1="1449.4"
   class="st1" />
		<rect
   id="rect692"
   height="5"
   width="13.7"
   class="st0"
   y="188.4"
   x="1449.4" />
	</g>
	<g
   id="g700">
		<line
   id="line696"
   y2="190.9"
   x2="1438.9"
   y1="190.9"
   x1="1432.1"
   class="st1" />
		<rect
   id="rect698"
   height="5"
   width="6.8"
   class="st0"
   y="188.4"
   x="1432.1" />
	</g>
	<g
   id="g706">
		<line
   id="line702"
   y2="190.9"
   x2="1418"
   y1="190.9"
   x1="1387.3"
   class="st1" />
		<rect
   id="rect704"
   height="5"
   width="30.7"
   class="st0"
   y="188.4"
   x="1387.3" />
	</g>
</g>
<g
   id="g740">
	<g
   id="g714">
		<line
   id="line710"
   y2="342.2"
   x2="221.3"
   y1="342.2"
   x1="286.3"
   class="st1" />
		<rect
   id="rect712"
   height="5"
   width="65"
   class="st0"
   y="339.7"
   x="221.3" />
	</g>
	<g
   id="g720">
		<line
   id="line716"
   y2="342.2"
   x2="192.1"
   y1="342.2"
   x1="205.8"
   class="st1" />
		<rect
   id="rect718"
   height="5"
   width="13.7"
   class="st0"
   y="339.7"
   x="192.1" />
	</g>
	<g
   id="g726">
		<line
   id="line722"
   y2="342.2"
   x2="105.9"
   y1="342.2"
   x1="119.6"
   class="st1" />
		<rect
   id="rect724"
   height="5"
   width="13.7"
   class="st0"
   y="339.7"
   x="105.9" />
	</g>
	<g
   id="g732">
		<line
   id="line728"
   y2="342.2"
   x2="130"
   y1="342.2"
   x1="136.8"
   class="st1" />
		<rect
   id="rect730"
   height="5"
   width="6.8"
   class="st0"
   y="339.7"
   x="130" />
	</g>
	<g
   id="g738">
		<line
   id="line734"
   y2="342.2"
   x2="150.9"
   y1="342.2"
   x1="181.6"
   class="st1" />
		<rect
   id="rect736"
   height="5"
   width="30.7"
   class="st0"
   y="339.7"
   x="150.9" />
	</g>
</g>
<g
   id="g772">
	<g
   id="g746">
		<line
   id="line742"
   y2="560.4"
   x2="1749"
   y1="560.4"
   x1="1700"
   class="st1" />
		<rect
   id="rect744"
   height="5"
   width="49"
   class="st0"
   y="557.9"
   x="1700" />
	</g>
	<g
   id="g752">
		<line
   id="line748"
   y2="560.4"
   x2="1771"
   y1="560.4"
   x1="1760.7"
   class="st1" />
		<rect
   id="rect750"
   height="5"
   width="10.3"
   class="st0"
   y="557.9"
   x="1760.7" />
	</g>
	<g
   id="g758">
		<line
   id="line754"
   y2="560.4"
   x2="1836"
   y1="560.4"
   x1="1825.7"
   class="st1" />
		<rect
   id="rect756"
   height="5"
   width="10.3"
   class="st0"
   y="557.9"
   x="1825.7" />
	</g>
	<g
   id="g764">
		<line
   id="line760"
   y2="560.4"
   x2="1817.8"
   y1="560.4"
   x1="1812.7"
   class="st1" />
		<rect
   id="rect762"
   height="5"
   width="5.1"
   class="st0"
   y="557.9"
   x="1812.7" />
	</g>
	<g
   id="g770">
		<line
   id="line766"
   y2="560.4"
   x2="1802"
   y1="560.4"
   x1="1778.9"
   class="st1" />
		<rect
   id="rect768"
   height="5"
   width="23.1"
   class="st0"
   y="557.9"
   x="1778.9" />
	</g>
</g>
<g
   id="g812">
	<g
   id="g780">
		<g
   id="g778">
			<path
   id="path774"
   d="M554.1,907.7h-67.5l33.8-42.4L554.1,907.7z M497,902.7h46.8l-23.4-29.3L497,902.7z"
   class="st1" />
			<path
   id="path776"
   d="M559.3,910.2h-77.9l38.9-48.9L559.3,910.2z M491.8,905.2h57.1H491.8z M502.2,900.2h36.4l-18.2-22.8     L502.2,900.2z M520.4,869.3l-18.2,22.9L520.4,869.3l16.2,20.4L520.4,869.3z"
   class="st0" />
		</g>
	</g>
	<g
   id="g794">
		<g
   id="g786">
			<polygon
   id="polygon782"
   points="520.4,892.9 485,934.3 555.8,934.3    "
   class="st1" />
			<path
   id="path784"
   d="M561.2,936.8h-81.7l40.8-47.7L561.2,936.8z M490.4,931.8h60l-30-35L490.4,931.8z"
   class="st0" />
		</g>
		<g
   id="g792">
			<path
   id="path788"
   d="M561.2,936.8h-81.7l40.8-47.7L561.2,936.8z M490.4,931.8h60l-30-35L490.4,931.8z"
   class="st1" />
			<path
   id="path790"
   d="M566.6,939.3h-92.5l46.3-54.1L566.6,939.3z M485,934.3h70.8H485l5.9-6.9L485,934.3z M495.8,929.3h49.1     l-24.6-28.7L495.8,929.3z"
   class="st0" />
		</g>
	</g>
	<g
   id="g802">
		<g
   id="g800">
			<rect
   id="rect796"
   height="37.3"
   width="5"
   class="st1"
   y="925"
   x="518.8" />
			<rect
   id="rect798"
   height="42.3"
   width="10"
   class="st0"
   y="922.5"
   x="516.3" />
		</g>
	</g>
	<g
   id="g810">
		<g
   id="g808">
			<rect
   id="rect804"
   height="5"
   width="18.1"
   class="st1"
   y="957.3"
   x="512.3" />
			<path
   id="path806"
   d="M532.9,964.8h-23.1v-10h23.1V964.8z M514.8,959.8h13.1H514.8z"
   class="st0" />
		</g>
	</g>
</g>
<g
   id="g852">
	<g
   id="g820">
		<g
   id="g818">
			<path
   id="path814"
   d="M370.4,913.1h-59.8l29.9-37.6L370.4,913.1z M319.8,908.7h41.4l-20.7-26L319.8,908.7z"
   class="st1" />
			<path
   id="path816"
   d="M375.6,915.6h-70.2l35.1-44.1L375.6,915.6z M325,906.2H356l-15.5-19.5L325,906.2z"
   class="st0" />
		</g>
	</g>
	<g
   id="g834">
		<g
   id="g826">
			<polygon
   id="polygon822"
   points="340.5,900.1 309.1,936.8 371.9,936.8    "
   class="st1" />
			<path
   id="path824"
   d="M377.3,939.3h-73.6l36.8-43L377.3,939.3z M314.5,934.3h51.9l-26-30.4L314.5,934.3z"
   class="st0" />
		</g>
		<g
   id="g832">
			<path
   id="path828"
   d="M376.7,939h-72.4l36.2-42.3L376.7,939z M313.9,934.6h53.2l-26.6-31.1L313.9,934.6z"
   class="st1" />
			<path
   id="path830"
   d="M382.1,941.5h-83.3l41.6-48.7L382.1,941.5z M319.3,932.1h42.3l-21.2-24.7L319.3,932.1z"
   class="st0" />
		</g>
	</g>
	<g
   id="g842">
		<g
   id="g840">
			<rect
   id="rect836"
   height="33.1"
   width="4.4"
   class="st1"
   y="928.5"
   x="339.1" />
			<rect
   id="rect838"
   height="38.1"
   width="9.4"
   class="st0"
   y="926"
   x="336.6" />
		</g>
	</g>
	<g
   id="g850">
		<g
   id="g848">
			<rect
   id="rect844"
   height="4.4"
   width="16.1"
   class="st1"
   y="957.1"
   x="333.3" />
			<rect
   id="rect846"
   height="9.4"
   width="21.1"
   class="st0"
   y="954.6"
   x="330.8" />
		</g>
	</g>
</g>
<g
   id="g864">
	<g
   id="g856">
		<path
   id="path854"
   d="M753.2,687.1V428.7c0-3.5,2.1-6.1,3.9-6.1h501c1.8,0,3.9,2.6,3.9,6.1v258.3H753.2z"
   class="st6" />
	</g>
	<g
   id="g862">
		<g
   id="g860">
			<path
   id="path858"
   d="M1254.7,429.9v249.9H760.4V429.9H1254.7 M1258,415.4h-501c-6.2,0-11.2,6-11.2,13.4v265.6h523.3V428.7     C1269.2,421.3,1264.2,415.4,1258,415.4L1258,415.4z"
   class="st7" />
		</g>
	</g>
</g>
<g
   id="g900">
	<path
   id="path866"
   d="M849.3,540.4c0.7-1.6,1.4-3.4,2.1-5.2c0.7-1.8,1.4-3.6,2-5.4c-0.7-2.1-1.3-4.1-1.9-6.1s-1.1-4-1.6-5.9h2.4   c0.3,1.2,0.7,2.5,1.1,3.9c0.4,1.4,0.8,2.8,1.3,4.2c0.5-1.5,0.9-3,1.3-4.4c0.4-1.4,0.7-2.6,0.9-3.8h2.4c-0.4,1.7-0.9,3.6-1.4,5.6   c-0.6,2-1.2,4.1-1.9,6.2c0.6,1.8,1.2,3.6,1.9,5.4c0.7,1.8,1.3,3.4,1.9,5c0.7-1.6,1.4-3.3,2-5.1c0.7-1.8,1.3-3.5,1.9-5.2   c-0.7-2-1.3-4-1.9-6c-0.6-2-1.1-4-1.6-5.9h2.4c0.6,2.5,1.4,5.2,2.3,8.1c0.5-1.6,0.9-3,1.3-4.4c0.4-1.4,0.7-2.6,0.9-3.7h2.4   c-0.4,1.7-0.9,3.6-1.4,5.6c-0.6,2-1.2,4.1-1.9,6.3c0.6,1.8,1.2,3.5,1.9,5.2c0.7,1.7,1.3,3.4,2,5c0.3-0.7,0.5-1.4,0.6-2.2   s0.2-1.6,0.2-2.4v-19.5h-22v27.5H846v-30h27.6v22c0,1.6-0.2,3-0.6,4.5c-0.4,1.4-0.9,2.6-1.6,3.6h-3.5c0.3-0.4,0.6-0.9,1-1.4   c0.3-0.5,0.6-1.1,0.9-1.6h-2.2c-0.5-1.1-0.9-2.2-1.3-3.3c-0.4-1.2-0.9-2.4-1.3-3.7c-0.5,1.3-0.9,2.5-1.4,3.7   c-0.4,1.2-0.9,2.3-1.4,3.4h-4.9c-0.4-1.1-0.9-2.2-1.3-3.4c-0.4-1.2-0.9-2.4-1.4-3.7c-0.5,1.3-0.9,2.5-1.4,3.7   c-0.4,1.2-0.9,2.3-1.4,3.4H849.3z"
   class="st8" />
	<path
   id="path868"
   d="M891,517.7v2.5h-12.5v-2.5H891z M885.1,538.6c0.3-1.2,0.5-2.5,0.8-3.9c0.3-1.4,0.5-2.8,0.7-4.3   c0.2-1.5,0.4-2.9,0.5-4.3c0.2-1.4,0.3-2.8,0.4-4h2.7c-0.1,1.3-0.2,2.6-0.4,4c-0.2,1.4-0.3,2.8-0.5,4.3c-0.2,1.4-0.4,2.8-0.6,4.2   c-0.2,1.4-0.5,2.6-0.7,3.8l2.8-0.3v2.4l-12.4,1.2v-2.5L885.1,538.6z M880.6,536.4c-0.1-2.2-0.3-4.5-0.5-7c-0.2-2.5-0.5-4.9-0.8-7.3   h2.7c0.3,2.4,0.6,4.7,0.8,7.1c0.2,2.4,0.4,4.8,0.6,7.2H880.6z M883.8,516.5c-0.1-0.6-0.3-1.3-0.5-2.1c-0.2-0.8-0.4-1.4-0.7-1.9h2.8   c0.2,0.5,0.4,1.1,0.7,1.8s0.4,1.5,0.7,2.2H883.8z M897.7,527v-14.4h2.8v5.3h8.9v2.6h-8.9v6.5h8v16.5h-16.3V527H897.7z M895.2,540.9   h10.7v-11.3h-10.7V540.9z"
   class="st8" />
	<path
   id="path870"
   d="M943.1,513.8v2.7h-12.4v8.6h11.9v2.7h-11.9v12.9h13v2.7h-30.9v-2.7h4.3v-19.6h3.1v19.6h7.4v-24.2h-14.2v-2.7   H943.1z"
   class="st8" />
	<path
   id="path872"
   d="M956.3,515.4l1.3-2.9h3.3l-1.3,2.9h17.9v2.7h-19.3c-0.5,1.1-1.1,2.1-1.6,3.2c-0.6,1-1.2,2.1-1.8,3.2v19h-3   v-14.2l-0.7,1.1h-3.6c1.6-2.4,3-4.7,4.1-6.6c1.2-2,2.2-3.9,3.2-5.7h-7.3v-2.7H956.3z M965.7,540.8v-10.8h-8.3v-2.6h8.3v-7h2.9v7   h8.4v2.6h-8.4v10.8h9.3v2.6h-21.2v-2.6H965.7z"
   class="st8" />
	<path
   id="path874"
   d="M981.6,543.5c1.3-2.5,2.5-5.1,3.6-7.8c1-2.7,1.9-5.3,2.6-7.9h-5.3c1.1-2.1,2-4.2,2.7-6.1   c0.7-1.9,1.3-3.7,1.9-5.4h-5.3v-2.5h8.8c-0.5,2-1.2,4.1-1.9,6.1c-0.7,2-1.4,3.9-2.2,5.6h4.6c-0.7,2.8-1.4,5.4-2.3,8s-1.9,5.1-3,7.6   h26.7v2.4H981.6z M1000,529.7v-3h-7.3v-2.2h7.3v-3h-8.2v-2.2h8.2v-3h-7.2v-2.2h7.2v-1.6h2.6v1.6h8.2v5.1h1.5v2.2h-1.5v5.2h-8.2v3h9   v2.2h-9v2.9h9.4v2.3h-9.4v2.8h-2.6v-2.8h-8.5v-2.3h8.5v-2.9h-8v-2.2H1000z M1002.7,516.4v3h5.7v-3H1002.7z M1008.4,524.5v-3h-5.7v3   H1008.4z"
   class="st8" />
	<path
   id="path876"
   d="M1022.5,519.8v21h3.3v2.6h-6.2v-21.1h-3.8v-2.6H1022.5z M1020.1,518.3c-0.2-1.1-0.5-2.1-0.7-3.1   s-0.6-1.9-0.9-2.7h3.1c0.3,0.8,0.6,1.7,0.9,2.7c0.3,1,0.6,2,0.8,3.1H1020.1z M1040.5,524.2v-8.5h-9.5c0,1.8-0.1,3.4-0.3,4.8   c-0.2,1.4-0.7,2.7-1.4,3.8h-3.2c0.8-1.1,1.3-2.2,1.6-3.4c0.3-1.1,0.5-2.3,0.5-3.6v-4.1h15.1v8.5h3.4v2.5H1040.5z M1041.9,543.5   c-1.8-1.2-3.6-2.6-5.5-4.3c-0.9,0.8-1.8,1.5-2.7,2.2c-0.9,0.7-1.9,1.4-2.9,2h-4.7c1.6-1,3.1-2,4.5-3c1.4-1,2.6-2.1,3.8-3.2   c-1.6-1.6-3-3.3-4.4-5.2c-1.4-1.9-2.5-3.9-3.5-6h19.3c-1.7,4.2-4.2,8-7.4,11.3c1.3,1.1,2.6,2.2,3.9,3.2c1.4,1,2.8,2,4.2,2.9H1041.9   z M1030.7,528.4c0.7,1.2,1.6,2.4,2.5,3.6c0.9,1.2,2,2.3,3.1,3.4c1.1-1.2,2.1-2.3,3-3.5c0.8-1.2,1.6-2.3,2.2-3.4H1030.7z"
   class="st8" />
	<path
   id="path878"
   d="M1063.9,534.3h-12v-17.2h12v-4.6h3.1v4.6h12.3v17.2h-12.3v9.2h-3.1V534.3z M1055,531.6h9v-11.7h-9V531.6z    M1067.1,519.9v11.7h9.2v-11.7H1067.1z"
   class="st8" />
	<path
   id="path880"
   d="M948.5,568.2c0.6-1,1.1-2,1.5-3s0.7-2,1-3.1h2.7l-0.3,1.2h11.2v12.6c0,2-0.1,3.7-0.4,5.1   c-0.2,1.4-0.6,2.6-1.1,3.7h-3.3c0.3-0.6,0.6-1.2,0.9-1.8s0.5-1.2,0.6-1.8c0.2-0.7,0.3-1.4,0.4-2.2c0.1-0.8,0.1-1.8,0.1-3v-10.2   h-9.2c-0.2,0.5-0.4,0.9-0.6,1.3c-0.2,0.4-0.4,0.8-0.6,1.2H948.5z M961.8,556.2h3.3v2.4h-3.3v2.8h-2.7v-2.8h-4.6v2.8h-2.7v-2.8h-3.3   v-2.4h3.3v-2.5h2.7v2.5h4.6v-2.5h2.7V556.2z M958.8,569.1v13.9h-9.2v-13.9H958.8z M951.9,580.7h4.5v-9.4h-4.5V580.7z M964.9,565.1   c0.4-1.1,0.8-2.2,1.1-3.2c0.3-1,0.6-2,0.8-2.9c0.2-0.9,0.5-1.8,0.6-2.7c0.2-0.9,0.3-1.8,0.5-2.7h2.7c-0.1,0.5-0.2,1-0.3,1.4   s-0.2,1-0.3,1.4h9.3v2.4h-1.6c-0.3,3-0.8,5.8-1.5,8.4c-0.7,2.6-1.4,5-2.3,7.3c0.8,1.9,1.6,3.7,2.5,5.4c0.9,1.7,1.7,3.2,2.6,4.7   h-3.1c-0.5-1-1.1-2-1.7-3.1s-1.2-2.3-1.8-3.7c-0.6,1.3-1.2,2.4-1.9,3.6c-0.7,1.1-1.3,2.2-2,3.2h-3.3c1.1-1.5,2.1-3,3.1-4.7   s1.9-3.5,2.7-5.4c-0.6-1.6-1.2-3.2-1.7-5s-1-3.6-1.4-5.6l-0.4,1.2H964.9z M972.7,570.9c0.6-1.8,1.1-3.7,1.6-5.7   c0.4-2,0.8-4.1,1-6.2h-5.6c0.3,2.2,0.7,4.3,1.2,6.2C971.4,567.2,972,569.1,972.7,570.9z"
   class="st8" />
	<path
   id="path882"
   d="M988.9,560.8V582h2.9v2.7h-5.8v-21.2h-3.2v-2.6H988.9z M986.4,559.4c-0.2-1.1-0.5-2.1-0.7-3   c-0.2-0.8-0.5-1.8-0.8-2.7h3c0.3,0.8,0.6,1.7,0.8,2.6s0.5,2,0.8,3.1H986.4z M1001.7,555.5v-1.8h2.9v1.8h8.8v2.1h-8.8v2.3h8v2.1h-8   v2.3h9.3v2.1h-21.4v-2.1h9.3v-2.3h-8v-2.1h8v-2.3h-8.9v-2.1H1001.7z M1007.7,584.6c0.5-0.6,0.9-1.3,1.2-2.2c0.3-0.9,0.6-1.9,0.7-3   h-13.1v5.1h-2.8v-16.6h18.8v9.8c0,1.5-0.1,2.8-0.4,4s-0.6,2.1-1,2.8H1007.7z M996.5,572.8h13.2v-2.6h-13.2V572.8z M996.5,577.4   h13.2v-2.5h-13.2V577.4z"
   class="st8" />
	<path
   id="path884"
   d="M1018.9,573.1v-14.5h-1.8v-2.4h1.8v-2.5h2.6v2.5h7.1v-2.5h2.6v2.5h1.9v2.4h-1.9v14.5h2v2.4h-16v-2.4H1018.9z    M1017.5,584.6c0.6-1.2,1.2-2.4,1.8-3.8s0.9-2.7,1.3-4h2.9c-0.3,1.4-0.7,2.8-1.2,4.1c-0.5,1.3-1,2.6-1.5,3.7H1017.5z M1021.5,561.9   h7.1v-3.3h-7.1V561.9z M1021.5,567.5h7.1v-3.3h-7.1V567.5z M1021.5,573.1h7.1v-3.4h-7.1V573.1z M1029.2,584.6   c-0.3-1.1-0.6-2.3-1-3.7c-0.4-1.4-0.9-2.7-1.4-4.1h2.7c0.5,1.2,0.9,2.5,1.4,3.9s0.8,2.7,1.2,3.9H1029.2z M1042.7,584.6   c0.6-0.9,1.1-2.1,1.5-3.5s0.5-3.1,0.5-5v-1.8h-7.6v0.3c0,2.2-0.1,4.1-0.3,5.7s-0.6,3-1.2,4.3h-2.8c0.4-0.7,0.7-1.4,0.9-2.1   c0.2-0.7,0.4-1.5,0.5-2.3s0.2-1.7,0.2-2.6s0.1-1.9,0.1-3v-20.2h12.9v21.7c0,1.9-0.1,3.5-0.4,5c-0.3,1.5-0.6,2.6-1,3.5H1042.7z    M1037.2,563.3h7.6v-6.3h-7.6V563.3z M1037.2,571.9h7.6v-6.3h-7.6V571.9z"
   class="st8" />
	<path
   id="path886"
   d="M1051.4,572.7c0.6-0.8,1.2-1.7,1.9-2.7c0.6-1,1.3-2,1.9-2.9c0.6-1,1.1-1.9,1.6-2.8c0.5-0.9,0.9-1.7,1.2-2.3   h3.3c-0.4,0.8-0.9,1.7-1.3,2.5s-1,1.7-1.5,2.6v17.6h-2.9v-12.9l-0.7,1H1051.4z M1051.4,562.7c1.2-1.6,2.3-3.2,3.2-4.8   c1-1.6,1.8-3,2.4-4.2h3.3c-0.5,0.9-0.9,1.8-1.4,2.6c-0.4,0.8-0.9,1.5-1.3,2.2c-0.4,0.7-0.9,1.4-1.3,2.1c-0.5,0.7-0.9,1.4-1.5,2.1   H1051.4z M1070.8,556.6v-3h3v3h7.8v2.5h-7.8v4.5h8.6v2.5h-20.2v-2.5h8.6v-4.5h-7.8v-2.5H1070.8z M1075.7,570.5v-3h2.9v3h3.5v2.5   h-3.5v4.9c0,1.3-0.1,2.5-0.4,3.7s-0.7,2.2-1.3,3h-3.8c0.9-1.1,1.6-2.1,2-3.2c0.4-1,0.6-2.2,0.6-3.6V573h-13.4v-2.5H1075.7z    M1066.5,581.5c-0.3-1-0.6-2.1-1-3.3c-0.4-1.1-0.8-2.2-1.2-3.2h2.9c0.4,0.8,0.8,1.8,1.2,2.9c0.4,1.1,0.8,2.3,1.2,3.5H1066.5z"
   class="st8" />
	<path
   id="path888"
   d="M1087,578h3.5v5.2h-3.5V578z"
   class="st8" />
	<path
   id="path890"
   d="M1096.3,578h3.5v5.2h-3.5V578z"
   class="st8" />
	<path
   id="path892"
   d="M1105.5,578h3.5v5.2h-3.5V578z"
   class="st8" />
	<path
   id="path894"
   d="M1114.7,578h3.5v5.2h-3.5V578z"
   class="st8" />
	<path
   id="path896"
   d="M1124,578h3.5v5.2h-3.5V578z"
   class="st8" />
	<path
   id="path898"
   d="M1133.2,578h3.5v5.2h-3.5V578z"
   class="st8" />
</g>
</svg>